<?xml version="1.0" encoding="UTF-8"?>
<svg width="37px" height="28px" viewBox="0 0 37 28" version="1.1" xmlns="http://www.w3.org/2000/svg" xmlns:xlink="http://www.w3.org/1999/xlink">
    <!-- Generator: Sketch 57.1 (83088) - https://sketch.com -->
    <title>关于 MT4 平台</title>
    <desc>Created with Sketch.</desc>
    <g id="Page-1" stroke="none" stroke-width="1" fill="none" fill-rule="evenodd">
        <g id="常见问题" transform="translate(-376.000000, -862.000000)" stroke="#333333">
            <g id="关于-MT4-平台" transform="translate(377.000000, 863.000000)">
                <polyline id="Shape" points="33 4 33 0 29 0"></polyline>
                <polyline id="Shape" points="33 0 21.1363111 11.8989959 16.6110897 7.36030715 7 17"></polyline>
                <polygon id="Shape" points="32.74 26 2.26 26 0 24.0029586 0 23 13.55 23 14.68 24.0029586 20.32 24.0029586 21.45 23 35 23 35 24.0029586"></polygon>
                <path d="M26,0 L3.67119901,0 C2.75154512,0 2,0.764367816 2,1.69971264 L2,21" id="Shape"></path>
                <path d="M33,21 L33,6" id="Shape"></path>
                <polyline id="Shape" points="27.0439137 2 5 2 5 19 31 19 31 5.96399055"></polyline>
                <g id="Group" transform="translate(11.000000, 9.000000)">
                    <path d="M2.48,8.38 L2.48,4.99" id="Shape"></path>
                    <path d="M0.23,8.38 L0.23,7.25" id="Shape"></path>
                    <path d="M4.74,8.38 L4.74,2.73" id="Shape"></path>
                    <path d="M7,8.38 L7,2.73" id="Shape"></path>
                    <path d="M9.26,8.38 L9.26,4.99" id="Shape"></path>
                    <path d="M11.52,8.38 L11.52,4.99" id="Shape"></path>
                    <path d="M13.77,8.38 L13.77,2.73" id="Shape"></path>
                    <path d="M16.03,8.38 L16.03,0.47" id="Shape"></path>
                </g>
            </g>
        </g>
    </g>
</svg>