<?xml version="1.0" encoding="UTF-8"?>
<svg width="20px" height="19px" viewBox="0 0 20 19" version="1.1" xmlns="http://www.w3.org/2000/svg" xmlns:xlink="http://www.w3.org/1999/xlink">
    <!-- Generator: Sketch 57.1 (83088) - https://sketch.com -->
    <title>Shape</title>
    <desc>Created with Sketch.</desc>
    <g id="Page-1" stroke="none" stroke-width="1" fill="none" fill-rule="evenodd">
        <g id="常见问题" transform="translate(-1525.000000, -647.000000)" fill="#FFFFFF">
            <path d="M1532.76097,647 C1528.48044,647 1525,650.42059 1525,654.627522 C1525,658.834454 1528.48044,662.245215 1532.76097,662.245215 C1534.6112,662.245215 1536.31141,661.616141 1537.64158,660.554578 C1537.69159,660.6627 1537.75159,660.760993 1537.84161,660.859286 L1542.68221,665.606829 C1542.93224,665.872219 1543.29229,666 1543.64233,666 C1543.99237,666 1544.33242,665.872219 1544.60245,665.606829 C1545.13252,665.085877 1545.13252,664.230729 1544.60245,663.709778 L1539.77185,658.962235 C1539.64183,658.834454 1539.49181,658.736161 1539.32179,658.677186 C1540.08189,657.497672 1540.51194,656.121573 1540.51194,654.637351 C1540.51194,650.42059 1537.04151,647 1532.76097,647 L1532.76097,647 Z M1532.76097,649.349198 C1535.72134,649.349198 1538.12164,651.718055 1538.12164,654.627522 C1538.12164,655.61045 1537.84161,656.56389 1537.31154,657.419038 L1536.82148,658.175892 L1536.14139,658.716503 C1535.17127,659.493016 1534.01113,659.896017 1532.77097,659.896017 C1529.8106,659.896017 1527.40027,657.536989 1527.40027,654.627522 C1527.3903,651.718055 1529.8006,649.349198 1532.76097,649.349198 Z" id="Shape"></path>
        </g>
    </g>
</svg>