<?xml version="1.0" encoding="UTF-8"?>
<svg width="100px" height="100px" viewBox="0 0 100 100" version="1.1" xmlns="http://www.w3.org/2000/svg" xmlns:xlink="http://www.w3.org/1999/xlink">
    <!-- Generator: Sketch 57.1 (83088) - https://sketch.com -->
    <title>1</title>
    <desc>Created with Sketch.</desc>
    <g id="Page-1" stroke="none" stroke-width="1" fill="none" fill-rule="evenodd">
        <g id="全球客户服务" transform="translate(-690.000000, -721.000000)" fill="#00A651" fill-rule="nonzero">
            <g id="1" transform="translate(690.000000, 721.000000)">
                <circle id="Oval" opacity="0.1" cx="50" cy="50" r="50"></circle>
                <g id="客服" transform="translate(28.000000, 29.000000)">
                    <path d="M2.2660968,22.0905724 L2.2660968,26.5184028 L2.2660968,26.5184033 C2.2660968,28.3488093 3.78773706,29.8326498 5.66477125,29.8326498 C7.54180544,29.8326498 9.0634457,28.3488093 9.0634457,26.5184033 L9.0634457,22.0905729 L9.0634457,22.0905729 C9.0634457,20.2601669 7.54180544,18.7763264 5.66477125,18.7763264 C3.78773706,18.7763264 2.2660968,20.2601669 2.2660968,22.0905729 L2.2660968,22.0905724 Z M33.5033482,30.5352806 L33.5033482,30.5352806 C32.3653467,29.4941672 31.7202343,28.0400135 31.7213027,26.5183629 L31.7213027,22.0906123 L31.7213027,22.0906029 C31.723705,19.0566705 34.234984,16.5924993 37.3461218,16.571263 C36.7648837,8.54521163 29.9029891,2.20947503 21.5252793,2.20947503 C13.1463824,2.20947503 6.28562588,8.54521163 5.70443687,16.5712231 L5.70443714,16.5712231 C8.81480533,16.5942441 11.3249991,19.057373 11.3292563,22.090563 L11.3292563,26.5183935 L11.3292563,26.5183935 C11.3292563,29.5690754 8.79318778,32.0421642 5.66477154,32.0421642 C2.53637577,32.0421642 0.000327769656,29.5690954 0.000327769656,26.5183935 L0.000327769656,22.090563 L0.000327769656,22.0904991 C0.0016768891,19.8909382 1.34113961,17.9017756 3.41040254,17.0263806 C3.76156096,7.56532791 11.7371079,6.53688835e-06 21.5253001,6.53688835e-06 C31.3134924,6.53688835e-06 39.28902,7.56532791 39.6402386,17.0264205 L39.6402383,17.0264204 C41.7088954,17.9025299 43.0480412,19.8912734 43.0502517,22.0905788 L43.0502517,26.5184092 L43.0502517,26.5185292 C43.0480913,29.5691991 40.510282,32.0405436 37.3818781,32.0384279 C36.7357668,32.0379928 36.0944982,31.929766 35.4858175,31.7184305 L35.4858174,31.7184306 C33.3465318,33.9155006 30.6942215,35.5755937 27.7549147,36.5572137 L27.7549148,36.5572096 C27.7000891,38.6576947 25.9342762,40.3305654 23.7795992,40.3233121 L20.4013511,40.3233121 C18.2035332,40.3233121 16.4260314,38.5998819 16.4260314,36.4566609 C16.4260314,34.316793 18.1978433,32.5900333 20.4024564,32.5900333 L23.778494,32.5900333 C25.2093209,32.5900333 26.4611819,33.3191699 27.1613268,34.4184234 L27.1613265,34.4184235 C29.5446067,33.5996717 31.7107536,32.2730989 33.5020912,30.5352301 L33.5033482,30.5352806 Z M33.987072,22.0905724 L33.987072,26.5184028 L33.987072,26.5184032 C33.987072,28.3488092 35.5087122,29.8326497 37.3857464,29.8326497 C39.2627806,29.8326497 40.7844209,28.3488092 40.7844209,26.5184032 L40.7844209,22.0905728 L40.7844209,22.0905729 C40.7844209,20.2601669 39.2627806,18.7763264 37.3857464,18.7763264 C35.5087122,18.7763264 33.987072,20.2601669 33.987072,22.0905729 L33.987072,22.0905724 Z M20.403754,38.1138147 L23.7797507,38.1138147 C24.733649,38.1138147 25.4904063,37.3758163 25.4904063,36.4566715 C25.4904063,35.5364089 24.7302514,34.7995682 23.7797507,34.7995682 L20.403754,34.7995682 C19.4498557,34.7995682 18.6930984,35.5375266 18.6930984,36.4566715 C18.6930984,37.376934 19.4532533,38.1138147 20.403754,38.1138147 Z" id="Shape"></path>
                </g>
            </g>
        </g>
    </g>
</svg>