<?xml version="1.0" encoding="UTF-8"?>
<svg width="100px" height="100px" viewBox="0 0 100 100" version="1.1" xmlns="http://www.w3.org/2000/svg" xmlns:xlink="http://www.w3.org/1999/xlink">
    <!-- Generator: Sketch 57.1 (83088) - https://sketch.com -->
    <title>2</title>
    <desc>Created with Sketch.</desc>
    <g id="Page-1" stroke="none" stroke-width="1" fill="none" fill-rule="evenodd">
        <g id="全球客户服务" transform="translate(-1160.000000, -721.000000)" fill="#00A651" fill-rule="nonzero">
            <g id="2" transform="translate(1160.000000, 721.000000)">
                <circle id="Oval" opacity="0.1" cx="50" cy="50" r="50"></circle>
                <g id="注册" transform="translate(31.000000, 31.000000)">
                    <path d="M17.9939257,19.1588028 C23.2885985,19.1588028 27.5880321,14.8704075 27.5880321,9.58932823 C27.5880321,4.30824892 23.2885985,0 17.9939257,0 C12.6992529,0 8.3998193,4.28839523 8.3998193,9.56947455 C8.3998193,14.8505539 12.6992529,19.1588028 17.9939257,19.1588028 Z M17.9939257,3.19644274 C21.5369774,3.19644274 24.4032665,6.0553729 24.4032665,9.58932823 C24.4032665,13.1232836 21.5369774,15.9822137 17.9939257,15.9822137 C14.4707787,15.96236 11.6044897,13.1034299 11.6044897,9.56947455 C11.6044897,6.03551922 14.4707787,3.19644274 17.9939257,3.19644274 L17.9939257,3.19644274 Z M26.0951732,22.8515876 C23.5274559,21.4419762 20.5218334,20.6478289 17.317163,20.6478289 C7.74296139,20.6478289 0,27.8348617 0,36.6896037 C0.776286618,36.66975 2.16962157,36.7491647 2.88619383,36.6896037 C2.88619383,29.3040341 9.35524898,23.3280759 17.317163,23.3280759 C19.9246899,23.3280759 22.3729784,23.9633937 24.4828856,25.0950536 L26.0951732,22.8515876 Z M32.3850853,28.7282773 L32.3850853,23.9435401 L29.1804149,23.9435401 L29.1804149,28.7282773 L24.3833617,28.7282773 L24.3833617,31.9247201 L29.1804149,31.9247201 L29.1804149,36.7094574 L32.3850853,36.7094574 L32.3850853,31.9247201 L37.1821385,31.9247201 L37.1821385,28.7282773 L32.3850853,28.7282773 Z" id="Shape"></path>
                </g>
            </g>
        </g>
    </g>
</svg>