<?xml version="1.0" encoding="UTF-8"?>
<svg width="100px" height="100px" viewBox="0 0 100 100" version="1.1" xmlns="http://www.w3.org/2000/svg" xmlns:xlink="http://www.w3.org/1999/xlink">
    <!-- Generator: Sketch 57.1 (83088) - https://sketch.com -->
    <title>3</title>
    <desc>Created with Sketch.</desc>
    <g id="Page-1" stroke="none" stroke-width="1" fill="none" fill-rule="evenodd">
        <g id="全球客户服务" transform="translate(-690.000000, -861.000000)" fill="#00A651" fill-rule="nonzero">
            <g id="3" transform="translate(690.000000, 861.000000)">
                <circle id="Oval" opacity="0.1" cx="50" cy="50" r="50"></circle>
                <g id="灵活-01" transform="translate(27.000000, 27.000000)">
                    <g id="Group" transform="translate(0.409885, 0.409885)">
                        <path d="M40.1464493,1.46063942 L44.0070461,1.46063942 L44.0070461,5.25548395 L45.4629889,5.25548395 L45.4629889,0.00469658977 L40.1464493,0.00469658977 L40.1464493,1.46063942 Z M1.47942578,5.25548395 L1.47942578,1.46063942 L5.06762036,1.46063942 L5.06762036,0.00469658977 L0.0234829488,0.00469658977 L0.0234829488,5.25548395 L1.47942578,5.25548395 Z M44.0070461,40.2544709 L44.0070461,43.9929564 L40.1464493,43.9929564 L40.1464493,45.4442026 L45.4629889,45.4442026 L45.4629889,40.2544709 L44.0070461,40.2544709 Z M5.06762036,43.9929564 L1.47942578,43.9929564 L1.47942578,40.2544709 L0.0234829488,40.2544709 L0.0234829488,45.4442026 L5.06762036,45.4442026 L5.06762036,43.9929564 Z M32.3407171,20.8293756 L32.2655717,20.8293756 L32.2655718,20.8293756 C31.754921,20.8274568 31.2550348,20.9761159 30.8284154,21.2567653 C30.443295,20.1436735 29.4757975,19.3405567 28.2265046,19.3405567 L28.2265048,19.3405567 C27.691164,19.340864 27.1662731,19.4887444 26.7095063,19.7679463 C26.3290825,18.6548546 25.3568884,17.8564343 24.1075956,17.8564343 L24.1075956,17.8564343 C23.6393775,17.8565239 23.178272,17.9709945 22.7643709,18.1898922 L22.7643709,15.329669 C22.7643709,13.7704012 21.5855269,12.502306 20.0168659,12.502306 L20.0168659,12.502306 C18.4501869,12.4971257 17.1759269,13.7629571 17.1707325,15.3296361 C17.1707324,15.3296465 17.1707324,15.3296569 17.1707324,15.3296672 L17.1707324,26.2915077 L15.4423873,24.5725559 C14.3292956,23.4688573 12.366121,23.6238448 11.4174099,24.5725559 C10.4686988,25.521267 9.85344552,27.4186893 11.2060634,28.7760037 L19.1526933,36.6662745 L19.152693,36.6662743 C19.3119703,36.8252938 19.4902153,36.9641043 19.6834076,37.0795742 C21.1346539,38.2631148 22.7925501,38.9629067 26.3009026,38.9629067 C34.3179814,38.9629067 35.0647391,34.6373475 35.0647391,29.3020215 L35.0647391,23.652024 C35.0647391,22.0927562 33.9140746,20.8293736 32.3407171,20.8293736 L32.3407171,20.8293756 Z M33.5665363,29.3020236 C33.5665363,33.8154463 33.5430441,37.4740898 26.3009027,37.4740898 C23.2340296,37.4740898 21.3929664,36.7883876 19.9980792,35.4075903 L12.478839,27.9353159 C11.8119233,27.2684002 11.9810005,26.4183174 12.5258049,25.873513 C13.0706093,25.3287086 14.0709829,25.3099223 14.597001,25.8312437 L17.0533174,28.2734704 L18.6689443,29.8797041 L18.6689443,15.6255542 L18.6689443,15.6255587 C18.6715311,14.8837229 19.2750063,14.2844381 20.0168468,14.2870175 C20.0168523,14.2870175 20.0168577,14.2870175 20.0168632,14.2870175 C20.7589244,14.2870175 21.2661561,14.8881894 21.2661561,15.625554 L21.2661561,24.6946689 L21.2849424,24.6946689 L21.2849424,24.6946689 C21.2737905,24.7424431 21.2674963,24.7912228 21.2661561,24.8402632 L21.2661561,24.8402633 C21.2989404,25.2539831 21.6609035,25.5627914 22.0746223,25.5300092 C22.4427969,25.5008339 22.735193,25.2084388 22.7643682,24.8402633 L22.7643682,24.8402592 C22.7645715,24.791378 22.7598508,24.7426002 22.7502777,24.6946649 L22.7643674,24.6946649 L22.7643674,20.9749658 C22.7643674,20.2376012 23.3044753,19.6411343 24.0465364,19.6411343 C24.0465364,19.6411343 25.3662782,19.622348 25.3662782,20.9749658 L25.3662782,25.8829021 L25.3803679,25.8829021 L25.3803679,25.8829021 C25.3707951,25.9308374 25.3660747,25.9796152 25.3662782,26.0284964 L25.3662782,26.0284964 C25.3990625,26.4422162 25.7610256,26.7510245 26.1747444,26.7182423 C26.542919,26.6890671 26.8353151,26.396672 26.8644903,26.0284964 L26.8644903,26.0284923 C26.8646936,25.9796112 26.8599729,25.9308333 26.8503998,25.8828981 L26.8644895,25.8828981 L26.8644895,22.4637807 C26.8644895,21.7264161 27.3952042,21.1252526 28.1372654,21.1252526 C28.1372654,21.1252526 29.4851866,21.2097912 29.4851866,22.4637807 L29.4851866,26.7752501 L29.4992764,26.7752501 L29.4992764,26.7752501 C29.4897035,26.8231853 29.4849831,26.8719632 29.4851866,26.9208444 L29.4851866,26.9208591 C29.4851866,27.3306882 29.8174187,27.6629203 30.2272478,27.6629203 C30.2288183,27.6629203 30.2303888,27.6629153 30.2319592,27.6629053 L30.2319592,27.6629053 C30.6417184,27.6553219 30.9677457,27.3169991 30.9601608,26.9072381 C30.9593402,26.8629018 30.9545472,26.8187281 30.9458392,26.7752475 L30.959929,26.7752475 L30.959929,23.8304857 C30.959929,23.0931211 31.5188232,22.4919576 32.2608843,22.4919576 C32.2608843,22.4919576 33.5665363,22.4402952 33.5665363,23.8304857 L33.5665363,29.3020236 Z" id="Shape"></path>
                        <path d="M16.0576404,19.5378438 L16.0576404,17.0439243 L16.0576406,17.0439248 C15.088241,14.8832352 16.0539759,12.3457851 18.2146669,11.376409 C20.3753565,10.4070094 22.9128066,11.3727443 23.8821827,13.5334353 C24.1316181,14.0894035 24.2596932,14.692145 24.2578718,15.3015041 L24.2578718,15.3015434 C24.2575443,15.6177296 24.2213018,15.9328543 24.1498413,16.2408614 L24.1498414,16.2408614 C24.6698666,16.2581091 25.1637177,16.473119 25.5306388,16.8420249 L25.5306388,16.8420248 C26.3856201,13.7709717 24.5891369,10.5882807 21.5180839,9.73331349 C18.4470308,8.8783322 15.2643398,10.6748154 14.4093726,13.7458684 C13.8283574,15.8328592 14.4648421,18.0694597 16.057636,19.5378438 L16.0576404,19.5378438 Z" id="Shape"></path>
                        <path d="M12.9391048,14.5312487 L12.9391047,14.5314435 C12.9414271,10.648444 16.0911035,7.50252728 19.9741265,7.50487557 C23.857126,7.50719801 27.0030427,10.6568744 27.0006945,14.5398974 C27.0000955,15.54137 26.7855545,16.5311575 26.371436,17.4430004 L26.3714361,17.4430005 C26.8281926,17.8733115 27.2036577,18.3824171 27.4798312,18.9459092 L27.4798315,18.9459089 C28.2697744,17.6089776 28.6850938,16.0839808 28.6821739,14.5311145 C28.6821739,9.72180656 24.7839889,5.81894046 19.9699844,5.81894046 C15.1559799,5.81894046 11.2624109,9.72198503 11.2624109,14.5313023 L11.2624109,14.5313363 C11.2601393,17.8236129 13.1159034,20.8353339 16.0576782,22.3135856 L16.0576782,20.373894 L16.0576777,20.3738937 C14.1079354,19.0691529 12.9380431,16.8773625 12.9391421,14.531336 L12.9391048,14.5312487 Z" id="Shape"></path>
                    </g>
                </g>
            </g>
        </g>
    </g>
</svg>