<?xml version="1.0" encoding="UTF-8"?>
<svg width="100px" height="100px" viewBox="0 0 100 100" version="1.1" xmlns="http://www.w3.org/2000/svg" xmlns:xlink="http://www.w3.org/1999/xlink">
    <!-- Generator: Sketch 57.1 (83088) - https://sketch.com -->
    <title>4</title>
    <desc>Created with Sketch.</desc>
    <g id="Page-1" stroke="none" stroke-width="1" fill="none" fill-rule="evenodd">
        <g id="全球客户服务" transform="translate(-1160.000000, -861.000000)" fill="#00A651" fill-rule="nonzero">
            <g id="4" transform="translate(1160.000000, 861.000000)">
                <circle id="Oval" opacity="0.1" cx="50" cy="50" r="50"></circle>
                <g id="线下活动" transform="translate(30.000000, 29.000000)">
                    <path d="M40.1754511,22.1550282 L39.3804181,20.7834641 C38.9106259,19.9894007 38.0433172,19.4840876 36.9953192,19.4119 C36.0918726,19.3397124 35.1161503,19.592369 34.2127037,20.0976821 L33.6706358,20.3864324 C33.4176708,18.7622118 31.7553291,17.4989291 29.7316088,17.4989291 L4.79648361,17.4989291 C2.62821186,17.4989291 0.821318728,18.9787745 0.821318728,20.8195579 L0.821318728,26.4140957 C0.821318728,33.1997286 7.57909903,37.9280153 17.2640462,37.9280153 C24.8891352,37.9280153 30.7434689,34.9683244 32.839465,30.3844128 C32.9840164,30.348319 33.09243,30.3122252 33.2008436,30.2400376 L38.1878686,26.9915964 C40.5729675,25.5839385 41.2234491,23.9597178 40.1754511,22.1550282 L40.1754511,22.1550282 Z M31.5385019,26.3780019 C31.5385019,32.8026969 24.1302401,35.726294 17.2640462,35.726294 C10.3978523,35.726294 2.98959048,32.8026969 2.98959048,26.3780019 L2.98959048,20.7834641 C2.98959048,20.2420572 3.71234773,19.6284628 4.79648361,19.6284628 L29.7316088,19.6284628 C30.7796068,19.6284628 31.5385019,20.2420572 31.5385019,20.7834641 L31.5385019,26.3780019 Z M37.1037327,25.1147192 L37.0675949,25.150813 L33.6706358,27.3525343 C33.7067737,27.0276901 33.7067737,26.702846 33.7067737,26.3780019 L33.7067737,22.7686227 L35.2245639,22.0106531 C35.2607018,22.0106531 35.2607018,21.9745593 35.2968396,21.9745593 C35.8027697,21.6858089 36.3809755,21.5414338 36.8507677,21.5775276 C37.1760085,21.6136213 37.4289735,21.7219027 37.5012492,21.8662779 L38.2962822,23.237842 C38.5492472,23.6709675 38.8022123,24.104093 37.1037327,25.1147192 Z M28.2860943,39.0469229 L6.60337674,39.0469229 C5.98903307,39.0469229 5.51924086,39.5161422 5.51924086,40.1297366 C5.51924086,40.7433311 5.98903307,41.2125504 6.60337674,41.2125504 L28.2860943,41.2125504 C28.9004379,41.2125504 29.3702302,40.7433311 29.3702302,40.1297366 C29.3702302,39.5161422 28.9004379,39.0469229 28.2860943,39.0469229 Z M7.47068544,12.4457982 C9.06075139,13.0593926 10.6869552,13.7090809 11.4458503,15.0084574 C11.6265396,15.2972077 11.9156425,15.5137705 12.2408833,15.5498643 L12.3854347,15.5498643 C12.6745376,15.5498643 12.9275027,15.4415829 13.1443299,15.261114 C13.4695706,14.9723636 20.5887296,8.00626176 16.2883239,2.52000538 C15.0596366,0.96797232 13.8309493,0.751409568 13.0359163,0.859690944 C11.3374367,1.11234749 10.1087494,2.80875571 9.38599216,4.07203843 C8.44640773,3.42235018 7.00089323,2.73656813 5.62765445,3.09750605 C4.36282926,3.45844397 3.49552056,4.54125773 3.02572834,6.38204112 C2.05000606,10.3523582 5.1940001,11.5434534 7.47068544,12.4457982 L7.47068544,12.4457982 Z M5.15786224,6.923448 C5.30241369,6.34594733 5.62765445,5.37141494 6.24199811,5.19094598 C6.31427384,5.15485219 6.42268743,5.15485219 6.49496315,5.15485219 C7.32613399,5.15485219 8.51868345,6.05719699 9.02461353,6.52641629 C9.27757857,6.77907283 9.63895719,6.88735421 10.0003358,6.81516662 C10.3617144,6.74297904 10.6508173,6.4903225 10.7953688,6.16547837 C11.265161,4.97438323 12.4215726,3.09750605 13.361157,2.98922467 C13.8309493,2.91703709 14.3007415,3.42235018 14.6259822,3.81938189 C16.9749433,6.85126042 14.0477764,11.0020465 12.4938483,12.8067361 C11.3374367,11.615641 9.74737078,11.0020465 8.30185628,10.4245458 C5.55537872,9.37782586 4.68807002,8.83641898 5.15786224,6.923448 L5.15786224,6.923448 Z M21.7451412,12.120954 C21.6005897,12.4097044 21.6005897,12.7706423 21.7451412,13.0954864 C21.8896926,13.3842368 22.1787955,13.6007995 22.5040363,13.6729871 C23.0461042,13.7812685 23.6965857,13.8534561 24.419343,13.8534561 C26.3346497,13.8534561 28.5029215,13.2398616 29.2256787,11.0742341 C29.6231952,9.88313894 29.2618166,9.1612631 28.9004379,8.76423139 C28.3222321,8.15063693 27.4549234,7.97016797 26.6960283,7.97016797 C26.6237526,7.3926673 26.4069254,6.77907283 25.9009953,6.34594733 C25.467341,5.94891562 24.6361702,5.62407149 23.2990692,6.09329078 C20.9501082,6.923448 21.4199004,8.98079414 21.6728654,10.2079831 C21.8535547,10.9298589 21.9981062,11.6517348 21.7451412,12.120954 L21.7451412,12.120954 Z M24.0218265,8.11454314 C24.2747915,8.04235555 24.419343,8.00626176 24.4916187,8.00626176 C24.5638944,8.18673072 24.5638944,8.61985622 24.5277566,8.94470035 C24.4554808,9.30563827 24.5638944,9.66657619 24.8168595,9.91923274 C25.0698245,10.1718893 25.4312031,10.2801707 25.7925818,10.2079831 C26.2985118,10.0997017 26.9489934,10.0997017 27.2019584,10.1718893 C27.2019584,10.2079831 27.1658205,10.2801707 27.1658205,10.388452 C26.768304,11.5795472 25.1782381,11.6878285 24.0579644,11.6517348 C24.0941022,10.9659527 23.9495508,10.2801707 23.8049993,9.66657619 C23.4797586,8.2950121 23.5520343,8.2589183 24.0218265,8.11454314 L24.0218265,8.11454314 Z" id="Shape"></path>
                </g>
            </g>
        </g>
    </g>
</svg>