<?xml version="1.0" encoding="UTF-8"?>
<svg width="100px" height="100px" viewBox="0 0 100 100" version="1.1" xmlns="http://www.w3.org/2000/svg" xmlns:xlink="http://www.w3.org/1999/xlink">
    <!-- Generator: Sketch 57.1 (83088) - https://sketch.com -->
    <title>5</title>
    <desc>Created with Sketch.</desc>
    <g id="Page-1" stroke="none" stroke-width="1" fill="none" fill-rule="evenodd">
        <g id="全球客户服务" transform="translate(-690.000000, -1001.000000)" fill="#00A651" fill-rule="nonzero">
            <g id="5" transform="translate(690.000000, 1001.000000)">
                <circle id="Oval" opacity="0.1" cx="50" cy="50" r="50"></circle>
                <g id="免费" transform="translate(28.000000, 28.000000)">
                    <path d="M41.5561921,13.2091162 C40.4667526,10.6334632 38.9074535,8.32059874 36.9216203,6.33475268 C34.9357699,4.34890233 32.6228497,2.78956457 30.0472568,1.70018088 C27.3799643,0.572030744 24.5473793,0 21.628165,0 C18.7089292,0 15.8763614,0.572030744 13.2091162,1.70018088 C10.6334632,2.78957746 8.32064171,4.34887654 6.33475268,6.33475268 C4.34885936,8.32064601 2.78956457,10.6335233 1.70018088,13.2091162 C0.572030744,15.8763657 0,18.7089936 0,21.628165 C0,24.5473536 0.572030744,27.3799686 1.70018088,30.0472139 C2.78957746,32.6228239 4.34887654,34.9356883 6.33475268,36.9215773 C8.32064601,38.9074707 10.6335233,40.4667654 13.2091162,41.5561491 C15.8763657,42.6842993 18.7089936,43.25633 21.628165,43.25633 C24.5473536,43.25633 27.3799686,42.6843422 30.0472568,41.5561491 C32.6228669,40.4667526 34.9357313,38.9074105 36.9216203,36.9215773 C38.9075136,34.935727 40.4667654,32.6228067 41.5561921,30.0472139 C42.6843422,27.3799643 43.256373,24.5473364 43.256373,21.628165 C43.256373,18.7089765 42.6843422,15.8764044 41.5561921,13.2091162 Z M4.09556258,14.2223076 C5.05383127,11.9566874 6.42594537,9.92173225 8.17381303,8.1738474 C9.92167639,6.42598404 11.9566401,5.05386565 14.2222732,4.09559695 C16.5672224,3.10377822 19.0589273,2.60088857 21.6281607,2.60088857 C24.1974414,2.60088857 26.6891119,3.10377822 29.0340912,4.09559695 C31.2997114,5.05386565 33.3346665,6.42597974 35.0825084,8.1738474 C35.9906196,9.08195861 36.7963448,10.0682301 37.4962507,11.1234708 L23.5525743,18.9992221 L28.2562399,14.2955135 C28.7641569,13.7875965 28.7641569,12.9640995 28.2562399,12.4562254 C27.7483229,11.9483084 26.9248259,11.9483084 26.4169518,12.4562254 L21.5025672,17.370653 L16.5881826,12.4562254 C16.0802656,11.9483084 15.2567685,11.9483084 14.7488945,12.4562254 C14.2409775,12.9641424 14.2409775,13.7876395 14.7488945,14.2955135 L19.7838496,19.3304686 L14.7892852,19.3304686 C14.0709972,19.3304686 13.4886926,19.9127732 13.4886926,20.6310611 C13.4886926,21.3493491 14.0709972,21.9316536 14.7892852,21.9316536 L18.3609163,21.9316536 L13.696696,24.5661309 L13.4815994,24.5661309 C12.9409101,24.5661309 12.4773841,24.8961446 12.2811843,25.3656557 L4.43830407,29.7955671 C4.31905147,29.5446211 4.20430759,29.2910747 4.09563219,29.0341041 C3.10381346,26.6891549 2.60092381,24.19745 2.60092381,21.6282166 C2.60092381,19.0589788 3.10381346,16.5672654 4.09563219,14.2222861 L4.09556258,14.2223076 Z M20.3083783,23.8190883 L20.3083783,24.566161 L18.9856783,24.566161 L20.3083783,23.8190883 Z M39.1606815,29.0341256 C38.2024558,31.2997458 36.8302987,33.3347009 35.082474,35.0825857 C33.3346107,36.8304061 31.299604,38.2025675 29.0340139,39.1607932 C26.6890647,40.152612 24.1973598,40.6555016 21.6280834,40.6555016 C19.0588456,40.6555016 16.5671322,40.152569 14.2221958,39.1607932 C11.9565756,38.2025675 9.92162053,36.8304104 8.17373568,35.0825857 C7.24546781,34.1543179 6.42435552,33.144289 5.71373751,32.0625236 L14.3804156,27.167389 L20.3083053,27.167389 L20.3083053,32.421442 C20.3083053,33.13973 20.8906099,33.7220346 21.6088978,33.7220346 C22.3271857,33.7220346 22.9094903,33.13973 22.9094903,32.421442 L22.9094903,27.167389 L29.6930178,27.167389 C30.4113057,27.167389 30.9936103,26.5850845 30.9936103,25.8667965 C30.9936103,25.1485086 30.4113057,24.566204 29.6930178,24.566204 L22.9094903,24.566204 L22.9094903,22.3499119 L23.6498857,21.9317267 L28.4431413,21.9317267 C29.1614292,21.9317267 29.7437338,21.3494221 29.7437338,20.6311342 C29.7437338,19.9128462 29.1614292,19.3305416 28.4431413,19.3305416 L28.2551378,19.3305416 L38.7823649,13.3844332 C38.9148819,13.6600879 39.0409833,13.9394268 39.1606695,14.2223634 C40.1524882,16.5673126 40.6553779,19.0590175 40.6553779,21.6282509 C40.6553779,24.1975317 40.1524452,26.6892022 39.1606265,29.0341814 L39.1606815,29.0341256 Z" id="Shape"></path>
                </g>
            </g>
        </g>
    </g>
</svg>