<?xml version="1.0" encoding="UTF-8"?>
<svg width="100px" height="100px" viewBox="0 0 100 100" version="1.1" xmlns="http://www.w3.org/2000/svg" xmlns:xlink="http://www.w3.org/1999/xlink">
    <!-- Generator: Sketch 57.1 (83088) - https://sketch.com -->
    <title>6</title>
    <desc>Created with Sketch.</desc>
    <g id="Page-1" stroke="none" stroke-width="1" fill="none" fill-rule="evenodd">
        <g id="全球客户服务" transform="translate(-1160.000000, -1001.000000)" fill="#00A651" fill-rule="nonzero">
            <g id="6" transform="translate(1160.000000, 1001.000000)">
                <circle id="Oval" opacity="0.1" cx="50" cy="50" r="50"></circle>
                <g id="市场" transform="translate(29.000000, 29.000000)">
                    <g id="Group" transform="translate(0.435000, 0.637423)">
                        <path d="M1.19955668,19.3520942 L1.38147997,19.3520942 L1.38147999,19.3520942 C2.03033972,19.3508925 2.57956802,18.8727409 2.67010328,18.2302295 L2.67010251,18.2302348 C3.85663084,10.1681432 10.1916356,3.83929726 18.2548642,2.66063333 L18.2548642,2.66063333 C18.968212,2.56253262 19.466966,1.90472312 19.3688649,1.19138011 C19.3667148,1.17574608 19.3642811,1.16015241 19.3615649,1.14460673 L19.3615649,1.14460663 C19.2537815,0.424190403 18.5823932,-0.0724412249 17.8619817,0.0353388484 C17.8564954,0.0361596636 17.8510144,0.037015082 17.8455389,0.0379050564 L17.8455387,0.0379050939 C8.63553008,1.41021784 1.41810261,8.66466954 0.0928577772,17.8815477 L0.0928577798,17.8815476 C-0.00624161536,18.5928772 0.488592572,19.2503972 1.19955779,19.3520942 L1.19955668,19.3520942 Z M18.254865,39.0604461 L18.2548639,39.0604459 C10.1987417,37.8788068 3.86743223,31.559853 2.67010222,23.5060048 L2.67010219,23.5060046 C2.56383436,22.7938318 1.90035349,22.3026437 1.18818067,22.4089124 C1.1767882,22.4106124 1.1654187,22.4124632 1.15407526,22.4144645 L1.15407516,22.4144645 C0.447885906,22.5027608 -0.0530142866,23.1468194 0.035280097,23.8530039 C0.0385240925,23.8789493 0.0425570286,23.90479 0.0473732581,23.93049 L0.0473734142,23.930491 C1.42904289,33.1357621 8.67878069,40.3485467 17.891016,41.6831719 L18.0729393,41.6831719 L18.0729393,41.6831719 C18.7929481,41.6744971 19.3695976,41.0837821 19.3610196,40.363778 C19.3532393,39.7260232 18.8852931,39.187445 18.2548626,39.0907651 L18.254865,39.0604461 Z M40.5859487,22.3841446 L40.5859488,22.3841447 C39.8768412,22.2590407 39.2005792,22.7324704 39.0754738,23.4415785 C39.0734726,23.4529219 39.0716217,23.4642914 39.0699218,23.4756839 L39.0699218,23.4756836 C37.900771,31.5353591 31.597328,37.8818762 23.5458012,39.1059262 L23.5458011,39.1059262 C22.8324534,39.2040269 22.3336993,39.8618364 22.4318005,40.5751794 C22.4339505,40.5908134 22.4363842,40.6064071 22.4391004,40.6219528 L22.4391004,40.6219529 C22.5356557,41.2611812 23.0812896,41.7362047 23.7277237,41.7438132 L23.909647,41.7438132 L23.9096485,41.7438132 C33.1444347,40.3816339 40.3916616,33.1220704 41.7381308,23.8850102 L41.7381308,23.8850104 C41.8343891,23.1714115 41.333937,22.5148959 40.6203401,22.4186376 C40.6088958,22.4170939 40.5974314,22.4157022 40.58595,22.4144631 L40.5859487,22.3841446 Z M23.5458006,2.6606281 L23.5458018,2.66062826 C31.6031558,3.85651332 37.9273589,10.1868516 39.1154032,18.24539 L39.1154032,18.24539 C39.2050862,18.8822542 39.7457769,19.3585758 40.3888662,19.3672503 L40.5859498,19.3672503 L40.5859498,19.3672503 C41.2992975,19.2691496 41.7980516,18.6113401 41.6999504,17.8979971 C41.6978004,17.8823631 41.6953667,17.8667694 41.6926505,17.8512237 L41.6926513,17.851229 C40.320547,8.64955852 33.0845056,1.43194155 23.8793293,0.0833877996 L23.8793294,0.0833878107 C23.1560469,-0.0256946249 22.4798039,0.467962746 22.363302,1.19008782 L22.3633019,1.19008796 C22.2686355,1.90389999 22.7705505,2.55929759 23.4843616,2.65396402 C23.5047871,2.65667287 23.5252739,2.65889718 23.5458047,2.66063502 L23.5458006,2.6606281 Z M33.9305884,20.852957 L33.9305884,20.852957 C33.9305884,13.669119 28.1069112,7.84544182 20.9230732,7.84544182 C13.7392352,7.84544182 7.91555809,13.669119 7.91555809,20.852957 C7.91555809,28.0367949 13.7392352,33.8604721 20.9230732,33.8604721 C20.9230732,33.8604721 20.9230732,33.8604721 20.9230732,33.8604721 L20.9230731,33.8604721 C28.0798121,33.8355211 33.8753006,28.0400165 33.9002677,20.8832775 L33.9305884,20.852957 Z M20.9230732,31.252905 L20.9230732,31.252905 C15.170981,31.2612717 10.5011902,26.6050587 10.4927934,20.852957 C10.484438,15.1008647 15.140651,10.4310739 20.8927527,10.4226772 C26.6448449,10.4143217 31.3146357,15.0705347 31.3230325,20.8226364 C31.3230325,20.8327359 31.3230325,20.8428354 31.3230325,20.8529349 L31.3230325,20.8528497 C31.3314471,26.604942 26.675279,31.2747801 20.9231679,31.2832242 C20.9130536,31.2832242 20.9029394,31.2832242 20.8928252,31.2832242 L20.9230732,31.252905 Z" id="Shape"></path>
                        <path d="M20.8927527,15.6832821 L20.8927524,15.6832821 C18.0208849,15.6832821 15.6927785,18.0114099 15.6927785,20.8832775 C15.6927785,23.7551451 18.0208849,26.0832515 20.8927524,26.0832515 C23.76462,26.0832515 26.0927267,23.7551451 26.0927267,20.8832775 C26.0927267,20.8832775 26.0927267,20.8832775 26.0927267,20.8832775 L26.0927267,20.8833508 C26.0844406,18.0149417 23.7612376,15.6916676 20.8928474,15.6832821 L20.8927527,15.6832821 Z M20.8927527,23.4756844 L20.8927528,23.4756844 C19.4528537,23.450543 18.3059647,22.2628909 18.3311071,20.8229917 C18.3562485,19.3830926 19.5439006,18.2362036 20.9837997,18.261346 C22.4117033,18.2862779 23.5538878,19.4551797 23.5458435,20.8832775 L23.5458435,20.8839869 C23.5458435,22.3157326 22.3851398,23.4763937 20.953394,23.4763937 C20.9329418,23.4763937 20.9124902,23.4761517 20.8920437,23.4756677 L20.8927527,23.4756844 Z" id="Shape"></path>
                    </g>
                </g>
            </g>
        </g>
    </g>
</svg>