<?xml version="1.0" encoding="UTF-8"?>
<svg width="36px" height="36px" viewBox="0 0 36 36" version="1.1" xmlns="http://www.w3.org/2000/svg" xmlns:xlink="http://www.w3.org/1999/xlink">
    <!-- Generator: Sketch 57.1 (83088) - https://sketch.com -->
    <title>净值</title>
    <desc>Created with Sketch.</desc>
    <g id="Page-1" stroke="none" stroke-width="1" fill="none" fill-rule="evenodd">
        <g id="杠杆保证金" transform="translate(-692.000000, -802.000000)" fill="#FFFFFF" fill-rule="nonzero">
            <g id="净值" transform="translate(692.000000, 802.000000)">
                <path d="M27.0782893,16.9043505 L23.556543,22.4608972 C24.3391537,23.0087236 24.8087187,23.7913343 25.043503,24.6522029 L28.800023,18.782614 C28.0174123,18.3913105 27.4695859,17.7652226 27.0782823,16.9043505 L27.0782893,16.9043505 Z M14.165243,18.2347876 C14.086982,19.1739422 13.695678,19.9565529 13.1478516,20.5826407 L17.6869858,24.5739345 C17.9217687,23.7913238 18.3913351,23.0087166 19.0956843,22.4608902 L14.1652606,18.2347876 L14.165243,18.2347876 Z M30.9131024,12.5217743 C29.4261424,12.5217743 28.1739703,13.77395 28.1739703,15.2609064 C28.1739703,16.7478664 29.426146,18.0000385 30.9131024,18.0000385 C32.4000623,18.0000385 33.6522345,16.7478628 33.6522345,15.2609064 C33.6522345,13.7739465 32.4000588,12.5217743 30.9131024,12.5217743 Z M21.5218024,22.6956885 C20.0348425,22.6956885 18.7826703,23.9478642 18.7826703,25.4348206 C18.7826703,26.9217805 20.034846,28.1739527 21.5218024,28.1739527 C23.0087623,28.1739527 24.2609345,26.921777 24.2609345,25.4348206 C24.2609345,23.9478607 23.0087588,22.6956885 21.5218024,22.6956885 Z M9.78265982,14.8695818 C8.29569989,14.8695818 7.04352773,16.1217574 7.04352773,17.6087138 C7.04352773,19.0956738 8.2957034,20.3478459 9.78265982,20.3478459 C11.2696198,20.3478459 12.5217919,19.0956703 12.5217919,17.6087138 C12.5217919,16.1217539 11.2696162,14.8695818 9.78265982,14.8695818 Z" id="形状"></path>
                <path d="M32.8696203,0 L3.13045677,0 C1.40871609,0 1.75781455e-05,1.40869851 1.75781455e-05,3.13043919 L1.75781455e-05,32.8696027 C1.75781455e-05,34.5913434 1.40871609,36.0000419 3.13045677,36.0000419 L32.8696203,36.0000419 C34.591361,36.0000419 36.0000595,34.5913434 36.0000595,32.8696027 L36.0000595,3.13043919 C36.0000595,1.40869851 34.591361,0 32.8696203,0 Z M33.652245,32.8696203 C33.652245,33.3391853 33.339187,33.652231 32.8696203,33.652231 L3.13045677,33.652231 C2.66089177,33.652231 2.34784609,33.339187 2.34784609,32.8696203 L2.34784609,29.5826583 L9.54785447,21.9913604 C8.68698237,21.9130993 7.82611379,21.5217954 7.20002596,20.8957075 L2.34784609,26.0609401 L2.34784609,3.13049544 C2.34784609,2.66093044 2.66090407,2.34788476 3.13047083,2.34788476 L32.8696343,2.34788476 C33.3391993,2.34788476 33.652245,2.66092868 33.652245,3.13049544 L33.652245,17.6087701 C33.652245,17.6870312 33.573984,17.6870312 33.573984,17.7652919 L33.652245,17.843553 L33.652245,32.8696681 L33.652245,32.8696203 Z" id="形状"></path>
            </g>
        </g>
    </g>
</svg>