<?xml version="1.0" encoding="UTF-8"?>
<svg width="36px" height="36px" viewBox="0 0 40 33" version="1.1" xmlns="http://www.w3.org/2000/svg" xmlns:xlink="http://www.w3.org/1999/xlink">
    <!-- Generator: Sketch 57.1 (83088) - https://sketch.com -->
    <title>更改杠杆</title>
    <desc>Created with Sketch.</desc>
    <g id="Page-1" stroke="none" stroke-width="1" fill="none" fill-rule="evenodd">
        <g id="杠杆保证金" transform="translate(-1173.000000, -806.000000)" fill="#FFFFFF" fill-rule="nonzero">
            <g id="更改杠杆" transform="translate(1173.000000, 806.000000)">
                <path d="M8.42370874,18.8865652 L8.42370862,18.8865652 C10.9357333,18.8923733 12.9768232,16.8437239 12.982594,14.31075 C12.9844412,13.4949066 12.7704416,12.6933321 12.3626513,11.988683 L12.3626514,11.9886832 C11.0965799,9.80095584 8.31138824,9.06235775 6.14174129,10.3389798 C3.97209435,11.6156019 3.23960037,14.4240035 4.50567185,16.6117308 C5.31900619,18.0171463 6.80996765,18.8827927 8.4237056,18.8865652 L8.42370874,18.8865652 Z M7.05007942,11.924495 L7.05007924,11.9244952 C8.35854444,11.1701749 10.0257049,11.6282389 10.7737786,12.9476077 C11.5218648,14.2669767 11.0675865,15.9480302 9.75912158,16.7023379 C8.46012563,17.4511997 6.80535116,17.0057078 6.04939885,15.7036262 L6.04939883,15.7036262 C5.28794925,14.3920538 5.72512221,12.7063958 7.02585513,11.9386008 C7.03389786,11.9338533 7.04196465,11.9291474 7.05005519,11.9244833 L7.05007942,11.924495 Z M25.6986774,7.26476137 L25.6986773,7.26476135 C26.6209111,7.5075928 27.6008196,7.37584956 28.4277383,6.89785405 L28.4277385,6.89785395 C30.172614,5.89254773 30.7788856,3.65129169 29.7818877,1.89188182 C29.2920829,1.02751609 28.4749727,0.400944072 27.5180525,0.155934305 L27.5180528,0.155934384 C25.5651371,-0.32205736 23.5976845,0.88679853 23.1236617,2.85599168 C22.9079182,3.75220344 23.0347987,4.69746801 23.4790449,5.50360944 L23.4790449,5.50360936 C23.9591283,6.35762969 24.7585918,6.9820485 25.6986809,7.23724674 L25.6986774,7.26476137 Z M24.8799579,3.23796201 L24.8799579,3.23796201 C25.1234268,2.25496935 26.1110846,1.65710772 27.0859565,1.90260714 C28.0608253,2.14810499 28.6537459,3.14399331 28.4102754,4.12698911 C28.1668065,5.10998177 27.1791486,5.70784339 26.2042767,5.46234398 C25.7205264,5.34052303 25.3075589,5.0238506 25.0618938,4.58634594 L25.0618939,4.58634609 C24.822439,4.16692392 24.7570451,3.66908883 24.8799564,3.20126986 L24.8799579,3.23796201 Z M39.5713938,5.79713845 L1.36444022,28.0408954 L1.36444027,28.0408954 C0.919267321,28.2757138 0.36959645,28.1021793 0.136718936,27.6532941 C-0.0823976625,27.230934 0.0558191203,26.7097339 0.454754314,26.4540209 L38.6617078,4.21026397 L38.6617078,4.21026399 C39.1068808,3.97544552 39.6565516,4.14897969 39.8894291,4.59786524 C40.108546,5.02022531 39.9703293,5.54142545 39.5713938,5.79713845 L39.5713938,5.79713845 Z M25.0709926,20.0331542 L25.0709926,20.0331542 C24.8633823,19.5707998 24.4098729,19.2707045 23.9065926,19.26261 L23.9065926,19.26261 C23.4103754,19.2587351 22.9551728,19.5398254 22.7330969,19.9872935 L17.6752358,30.2698631 L17.6752358,30.2698632 C17.3936564,30.9418376 17.705631,31.7167451 18.3720504,32.0006725 C18.5231049,32.0650288 18.6848002,32.1002145 18.8487315,32.1044003 L28.9644536,32.1044003 L28.9644535,32.1044003 C29.6875436,32.0809274 30.2548549,31.470832 30.231574,30.7417161 C30.2263917,30.5794021 30.1915691,30.4194422 30.1288526,30.2698638 L25.0709926,20.0331542 Z M19.6674511,30.2698662 L23.8974845,21.7392676 L28.1366384,30.2698662 L19.6674511,30.2698662 Z" id="形状"></path>
            </g>
        </g>
    </g>
</svg>