<?xml version="1.0" encoding="UTF-8"?>
<svg width="80px" height="80px" viewBox="0 0 80 80" version="1.1" xmlns="http://www.w3.org/2000/svg" xmlns:xlink="http://www.w3.org/1999/xlink">
    <!-- Generator: Sketch 57.1 (83088) - https://sketch.com -->
    <title>4</title>
    <desc>Created with Sketch.</desc>
    <g id="Page-1" stroke="none" stroke-width="1" fill="none" fill-rule="evenodd">
        <g id="介绍经纪商" transform="translate(-1404.000000, -1348.000000)">
            <g id="4" transform="translate(1404.000000, 1348.000000)">
                <circle id="Oval-3" fill="#00A651" cx="40" cy="40" r="40"></circle>
                <g id="代理" transform="translate(20.000000, 21.000000)" fill="#FFFFFF" fill-rule="nonzero">
                    <path d="M34.3904486,27.0632069 C32.3826455,21.3623643 27.0968385,17.3488635 21.0735581,16.9283279 L21.0735581,14.486411 C24.3716283,13.9801955 26.9056274,11.1234149 26.9056274,7.68595384 C26.9056274,3.89223849 23.8191785,0.805789585 20.0254631,0.805789585 C16.2317478,0.805789585 13.1452989,3.89223849 13.1452989,7.68595384 C13.1452989,11.1234149 15.6792979,13.9801526 18.9773682,14.486411 L18.9773682,16.9283279 C12.9540447,17.3488206 7.66810891,21.3622354 5.66034876,27.0628631 C2.9555917,27.1582968 0.784679022,29.3879049 0.784679022,32.1155213 C0.784679022,34.9035949 3.0528301,37.1717889 5.84090366,37.1717889 C8.62897721,37.1717889 10.8971283,34.9035949 10.8971283,32.1155213 C10.8971283,30.0048509 9.59710724,28.1925129 7.7558512,27.436262 C9.55194704,22.7367643 13.9566358,19.4366316 18.9773682,19.0298889 L18.9773682,27.1679648 C16.6885491,27.6503325 14.9651565,29.6852919 14.9651565,32.1155643 C14.9651565,34.9036379 17.2333075,37.1717889 20.0213811,37.1717889 C22.8094547,37.1717889 25.0776057,34.9036379 25.0776057,32.1155643 C25.0776057,29.6882138 23.3582951,27.655274 21.0735581,27.1697695 L21.0735581,19.0299319 C26.0927436,19.4365886 30.4968738,22.7354753 32.293743,27.433469 C30.4488346,28.1880441 29.1455909,30.0022728 29.1455909,32.1155643 C29.1455909,34.9036379 31.413742,37.1717889 34.2018156,37.1717889 C36.9898891,37.1717889 39.2580402,34.9036379 39.2580402,32.1155643 C39.2580402,29.3906549 37.0914244,27.1627656 34.3904486,27.0632069 Z M8.80093835,32.1155643 C8.80093835,33.7475623 7.47290165,35.075599 5.84090366,35.075599 C4.20890566,35.075599 2.88086896,33.7475623 2.88086896,32.1155643 C2.88086896,30.4835663 4.20890566,29.1555296 5.84090366,29.1555296 C5.95932567,29.1555296 6.07594299,29.163307 6.19079859,29.1769281 C6.23918146,29.1873265 6.28765027,29.1942015 6.33581829,29.197725 C7.73299179,29.4340104 8.80093835,30.6522188 8.80093835,32.1155643 Z M15.2414888,7.68599681 C15.2414888,5.0478414 17.3873077,2.90202249 20.0254631,2.90202249 C22.6636185,2.90202249 24.8094374,5.0478414 24.8094374,7.68599681 C24.8094374,10.3241522 22.6636185,12.4699711 20.0254631,12.4699711 C17.3873077,12.4699711 15.2414888,10.3241522 15.2414888,7.68599681 Z M22.9814158,32.1155643 C22.9814158,33.7475623 21.6533791,35.075599 20.0213811,35.075599 C18.3893831,35.075599 17.0613464,33.7475623 17.0613464,32.1155643 C17.0613464,30.4835663 18.3893831,29.1555296 20.0213811,29.1555296 C21.6533791,29.1555296 22.9814158,30.4835233 22.9814158,32.1155643 Z M34.2018156,35.075599 C32.5698176,35.075599 31.2417809,33.7475623 31.2417809,32.1155643 C31.2417809,30.6486524 32.3149266,29.4279948 33.7171275,29.1958773 L33.7171275,29.1958773 C33.7629275,29.1924519 33.8084559,29.1860503 33.8534245,29.1767132 L33.8534244,29.1767132 C33.9690392,29.1628299 34.0853704,29.1557565 34.2018154,29.1555296 C35.8338134,29.1555296 37.1618501,30.4835663 37.1618501,32.1155643 C37.1618501,33.7475623 35.8338564,35.075599 34.2018154,35.075599 L34.2018156,35.075599 Z" id="形状"></path>
                </g>
            </g>
        </g>
    </g>
</svg>