<?xml version="1.0" encoding="UTF-8"?>
<svg width="80px" height="80px" viewBox="0 0 80 80" version="1.1" xmlns="http://www.w3.org/2000/svg" xmlns:xlink="http://www.w3.org/1999/xlink">
    <!-- Generator: Sketch 57.1 (83088) - https://sketch.com -->
    <title>2</title>
    <desc>Created with Sketch.</desc>
    <g id="Page-1" stroke="none" stroke-width="1" fill="none" fill-rule="evenodd">
        <g id="介绍经纪商" transform="translate(-756.000000, -1348.000000)">
            <g id="2" transform="translate(756.000000, 1348.000000)">
                <circle id="Oval-3" fill="#00A651" cx="40" cy="40" r="40"></circle>
                <g id="激活" transform="translate(21.000000, 21.000000)" fill="#FFFFFF" fill-rule="nonzero">
                    <path d="M30.0215215,9.61986627 L7.97852712,9.61986627 L7.97852712,7.58160268 L30.0215215,7.58160268 L30.0215215,9.61986627 Z M7.97852712,16.2931413 L13.2851739,16.2931413 L13.2851739,14.2548777 L7.97852712,14.2548777 L7.97852712,16.2931413 Z M35.3567426,25.1147461 C37.9080151,27.6625756 37.9080151,31.7920976 35.3567426,34.3399271 C34.0831473,35.6118036 32.4095126,36.2518183 30.7399599,36.2518183 C29.0704071,36.2518183 27.3967724,35.6158801 26.1231771,34.3399271 C23.8168268,32.0366892 23.5963969,28.4452688 25.4578053,25.8933628 L16.7671506,17.2144364 L18.2121914,15.7713458 L19.534771,17.0921406 L22.477919,14.1529645 L23.9229597,15.5960551 L20.9798118,18.5352312 L22.3881142,19.9416331 L25.3312622,17.002457 L26.7763029,18.4455476 L23.8331549,21.3847237 L26.9069281,24.4543487 C28.0498981,23.6227371 29.39697,23.2069314 30.7481239,23.2069314 C32.4135946,23.2028548 34.0831473,23.8387931 35.3567426,25.1147461 L35.3567426,25.1147461 Z M35.2301995,29.7252983 C35.2301995,28.5267993 34.7648474,27.4016778 33.9157839,26.5537602 C33.0667204,25.7058425 31.9400784,25.2411184 30.7399599,25.2411184 C29.7806814,25.2411184 28.8703874,25.5387049 28.1029646,26.0971891 L27.5273975,26.5170714 L27.1069478,27.0918618 C26.4864783,27.9438559 26.1844077,28.9996765 26.2619664,30.0595735 C26.339525,31.1317002 26.8048772,32.1386024 27.5641358,32.8968365 C28.4131993,33.7447541 29.5398413,34.2094782 30.7399599,34.2094782 C31.9400784,34.2094782 33.0667204,33.7447541 33.9157839,32.8968365 C34.7648474,32.0489188 35.2301995,30.9237973 35.2301995,29.7252983 L35.2301995,29.7252983 Z M0.71250304,0.415067897 L0.71250304,33.0272853 L19.530689,33.0272853 L19.530689,30.9890217 L2.75352104,30.9890217 L2.75352104,2.45333149 L35.2465276,2.45333149 L35.2465276,18.7186749 L37.2875456,18.7186749 L37.2875456,0.415067897 L0.71250304,0.415067897 Z" id="形状"></path>
                </g>
            </g>
        </g>
    </g>
</svg>