<?xml version="1.0" encoding="UTF-8"?>
<svg width="80px" height="80px" viewBox="0 0 80 80" version="1.1" xmlns="http://www.w3.org/2000/svg" xmlns:xlink="http://www.w3.org/1999/xlink">
    <!-- Generator: Sketch 57.1 (83088) - https://sketch.com -->
    <title>1</title>
    <desc>Created with Sketch.</desc>
    <g id="Page-1" stroke="none" stroke-width="1" fill="none" fill-rule="evenodd">
        <g id="介绍经纪商" transform="translate(-437.000000, -1348.000000)">
            <g id="1" transform="translate(437.000000, 1348.000000)">
                <circle id="Oval-3" fill="#00A651" cx="40" cy="40" r="40"></circle>
                <g id="填写" transform="translate(23.000000, 23.000000)" fill="#FFFFFF" fill-rule="nonzero">
                    <path d="M29.492044,0.57197914 C30.7597053,1.06519221 31.8267753,1.79162704 32.4284631,3.07036994 C32.689734,3.6257159 32.8496978,4.19921617 32.8486868,4.81831924 C32.8452571,6.96397916 32.8560298,9.10968204 32.8470159,11.2553033 C32.8434104,12.1150101 32.3567033,12.6593174 31.660961,12.6337682 C30.9713763,12.6084413 30.4800065,12.043162 30.4751725,11.2100099 C30.4640921,9.31199204 30.4835269,7.41379374 30.471611,5.5157845 C30.4598709,3.65157882 29.7268413,2.9328397 27.8556017,2.93226821 C20.4557727,2.9299378 13.0559438,2.92954206 5.65607192,2.93266396 C3.83798894,2.93341144 3.1121299,3.6709238 3.1122631,5.4856638 C3.11287867,13.215622 3.11239501,20.9455373 3.11305459,28.6755384 C3.1131865,30.491112 3.83966129,31.2216805 5.65914934,31.2260332 C7.72227909,31.2309579 9.78549047,31.2206249 11.8485901,31.2319692 C12.7262365,31.2368059 13.2797348,31.6629634 13.3459067,32.3342134 C13.4162153,33.0473666 12.8942015,33.6258813 12.0785506,33.6319056 C9.63050631,33.6500653 7.18058002,33.6881436 4.73449514,33.6143175 C2.59103523,33.5495932 0.742921358,31.5382198 0.723134226,29.3278789 C0.6943337,26.1096103 0.712449475,22.8909378 0.711965776,19.6724028 C0.711262247,15.0509365 0.781130934,10.4280093 0.68470422,5.80860544 C0.630488767,3.21040242 1.66312958,1.49079964 4.07124722,0.57197914 L29.492019,0.57197914 L29.492044,0.57197914 Z" id="路径"></path>
                    <path d="M33.8411311,18.780137 C33.9016342,19.7880648 33.485236,20.6434189 32.7566932,21.3893745 C29.6846689,24.5348281 26.6332954,27.7005029 23.551659,30.8364948 C22.0262881,32.3887771 20.015967,32.9530004 17.9597853,33.1775597 C16.4135702,33.3464056 15.3213936,31.9912856 15.6229873,30.4086674 C16.0675683,28.0758268 16.7589577,25.8903691 18.6233396,24.1501327 C21.5145168,21.4514601 24.2517797,18.5865325 27.0228806,15.761248 C28.2146504,14.5461763 29.5396492,14.1591907 31.1304487,14.8179969 C32.6352418,15.4411433 33.8476323,17.1960407 33.8411268,18.7801542 L33.8411311,18.780137 Z M18.1909918,31.3675462 C19.513,30.890382 21.1492218,30.7380232 22.3062986,29.5521918 C24.591345,27.2103363 26.8355538,24.8286746 29.109162,22.4756171 C29.4305845,22.1429381 29.432387,21.9024649 29.1040174,21.5829317 C28.3946025,20.8925993 27.6872545,20.1974285 27.0232576,19.4642261 C26.6100253,19.007949 26.3458072,19.0120783 25.9111176,19.4709096 C23.9443712,21.5467882 21.9640423,23.611323 19.937681,25.6287683 C18.4962496,27.0638704 17.9526427,28.8812917 17.5255157,30.7696845 C17.4357285,31.1665598 17.5759494,31.4225095 18.1910036,31.3675481 L18.1909918,31.3675462 Z M31.9557952,18.9094731 C31.9579876,17.8835157 31.3642591,17.0017787 30.3827529,16.6172166 C29.6236059,16.3197577 28.9596993,16.4269133 28.3514158,17.0357692 C27.9966641,17.390829 27.948912,17.6074691 28.327496,17.9607285 C29.010528,18.5980761 29.6539901,19.2777265 30.3171061,19.9365757 C30.9689643,20.5842573 31.2505517,20.5459162 31.7712004,19.7791621 C31.9568428,19.5057989 31.9441794,19.2096579 31.9557952,18.9094736 L31.9557952,18.9094731 Z M16.5579626,6.6478534 C18.9501216,6.6478534 21.3422377,6.64833705 23.7343967,6.6473697 C24.1201478,6.64719383 24.5052828,6.64266487 24.8687859,6.80381566 C25.348017,7.01628005 25.5797392,7.38602571 25.5797392,7.90733609 C25.5797392,8.43559451 25.3223375,8.79874533 24.8471941,8.99621704 C24.4605196,9.15692809 24.0446486,9.16391954 23.6297892,9.1637468 C18.9004712,9.16167721 14.1712391,9.16440337 9.4419211,9.15815957 C9.11495818,9.15771987 8.78073869,9.12847965 8.46279106,9.05610481 C7.85653137,8.91812597 7.50050048,8.52498895 7.50429844,7.88900345 C7.50819839,7.24901755 7.89465286,6.87496125 8.48253522,6.72524506 C8.77014473,6.65203482 9.08110349,6.65150716 9.38154994,6.65084759 C11.7737047,6.64543924 14.165868,6.64785761 16.5579841,6.64785765 L16.5579626,6.6478534 Z M14.0572429,15.3081721 C12.3525589,15.3093153 10.6479221,15.3064572 8.94322521,15.3107224 C8.26709395,15.3123932 7.75202695,15.0521774 7.54365405,14.3872154 C7.29350731,13.5888938 7.91652183,12.9052 8.91354666,12.9006711 C11.8829013,12.8872602 14.8523504,12.8947351 17.8217953,12.8944273 C18.3442057,12.8943834 18.8669684,12.8836106 19.3888932,12.8997038 C20.2228747,12.9254263 20.7735155,13.4251048 20.7566761,14.1181185 C20.7408907,14.7671192 20.1932434,15.2899679 19.4185718,15.2998636 C17.6317099,15.3225962 15.8443625,15.3070747 14.0572257,15.308174 L14.0572429,15.3081721 Z M11.7066819,21.5922302 C10.718189,21.5914387 9.72942964,21.6062127 8.74132771,21.5867339 C7.96380298,21.5714322 7.50967862,21.1419767 7.49085828,20.4615357 C7.47243477,19.7958716 7.92924317,19.2326538 8.65409245,19.2201241 C10.7399527,19.1840685 12.8273942,19.1834089 14.9131427,19.224609 C15.6270006,19.2387235 16.108032,19.8399265 16.0404077,20.4923132 C15.9673289,21.1975945 15.5493473,21.5806227 14.8368086,21.5896333 C13.7936594,21.6028243 12.7501148,21.593019 11.7066991,21.5922275 L11.7066819,21.5922302 Z" id="形状"></path>
                </g>
            </g>
        </g>
    </g>
</svg>