<?xml version="1.0" encoding="UTF-8"?>
<svg width="80px" height="80px" viewBox="0 0 80 80" version="1.1" xmlns="http://www.w3.org/2000/svg" xmlns:xlink="http://www.w3.org/1999/xlink">
    <!-- Generator: Sketch 57.1 (83088) - https://sketch.com -->
    <title>3</title>
    <desc>Created with Sketch.</desc>
    <g id="Page-1" stroke="none" stroke-width="1" fill="none" fill-rule="evenodd">
        <g id="介绍经纪商" transform="translate(-1085.000000, -1348.000000)">
            <g id="3" transform="translate(1085.000000, 1348.000000)">
                <circle id="Oval-3" fill="#00A651" cx="40" cy="40" r="40"></circle>
                <g id="审核" transform="translate(27.000000, 21.000000)" fill="#FFFFFF" fill-rule="nonzero">
                    <path d="M2.66109708,32.622667 C2.02712968,32.622667 1.51232908,32.1078664 1.51232908,31.473899 L1.51232908,27.3030608 L1.27399547,27.3030608 C0.644794737,27.3030608 0.129994138,26.7834936 0.129994138,26.1542928 L0.129994138,24.0617237 C0.129994138,22.6603221 1.26446212,21.5163208 2.65633041,21.5163208 C3.95286525,21.5163208 5.74990068,20.9586201 7.23233574,20.1006191 C8.85300429,19.156818 9.78250537,18.0557167 9.78250537,17.0785489 L9.78250537,16.3826148 C9.78250537,15.2767468 9.7253053,15.1718801 8.23810357,13.6560783 L8.22857023,13.6465449 L8.21903688,13.6417783 C6.58406831,12.2403766 5.64503389,10.1811742 5.64503389,7.9932717 C5.64503389,6.00556939 6.40770144,4.14180055 7.79480306,2.73564156 C9.18190467,1.32470658 11.0266068,0.552505685 13.0000184,0.552505685 C14.968654,0.552505685 16.8133562,1.32947326 18.2052338,2.73564156 C19.5923354,4.13704319 20.355003,6.0055787 20.355003,7.9932717 C20.355003,10.1764076 19.4159685,12.2403766 17.7762333,13.656069 L17.7666999,13.6608357 L17.7619333,13.6656023 C16.2985649,15.1480374 16.2270648,15.2672042 16.2270648,16.1776386 C16.2270648,16.4731723 16.2222981,16.6924392 16.2222981,16.8354393 L16.2222981,17.088073 C16.2270648,18.0652408 17.1565659,19.1663421 18.7772345,20.1053765 C20.2596695,20.9633775 22.0519383,21.5210781 23.3484731,21.5210781 C24.7403414,21.5210781 25.8748094,22.6603128 25.8748094,24.0664811 L25.8748094,26.1685835 C25.8748094,26.7930176 25.3647755,27.3078182 24.7403414,27.3125849 L24.5020078,27.3125849 L24.5020078,31.4834231 C24.5020078,32.1173905 23.9872072,32.6321911 23.3532398,32.6321911 L2.66113432,32.6321911 L2.66109708,32.622667 Z M3.79556507,30.3203643 L22.1901718,30.3203643 L22.1901718,27.2982942 L3.79556507,27.2982942 L3.79556507,30.3203643 Z M9.82540542,12.0020523 C10.7930399,12.9839868 11.3459739,13.5941209 11.6701076,14.2328549 C12.041908,14.9621558 12.070508,15.6056565 12.070508,16.3730908 L12.070508,17.0690249 C12.070508,18.8803603 10.8073399,20.6344957 8.51457056,22.0072787 C6.69370178,23.09408 4.3913991,23.8043141 2.65631179,23.8043141 L2.47041157,23.8043141 L2.42274485,23.9854477 C2.41797818,24.009281 2.41321151,24.0283477 2.41321151,24.0521811 L2.41321151,25.0007488 L23.5629454,25.0007488 L23.5629454,24.0521811 C23.5629454,24.0283477 23.5581788,24.009281 23.5534121,23.9854477 L23.5057454,23.8043141 L23.3198451,23.8043141 C21.5800098,23.7995474 19.2824738,23.09408 17.4615864,22.0072787 C15.168817,20.6344771 13.9056489,18.8803417 13.9056489,17.073773 L13.9056489,17.0022729 C13.9056489,16.8831061 13.9104156,16.6304724 13.9104156,16.1776386 C13.9104156,14.5236033 14.2011826,13.9802027 16.1459848,12.0068004 L16.1507515,12.0020337 C16.1841182,11.968667 16.2079516,11.9448337 16.2317849,11.925767 L16.2365516,11.9210003 L16.2413183,11.9162336 C17.3805529,10.9438325 18.033587,9.51383083 18.033587,7.99326239 C18.033587,5.1618591 15.7646511,2.85479905 12.9761664,2.85479905 C10.1876632,2.85479905 7.91874584,5.16186841 7.91874584,7.99326239 C7.91874584,9.52336417 8.58131328,10.9628992 9.73008129,11.9353003 L9.7968147,11.997267 L9.82541473,12.0020337 L9.82540542,12.0020523 Z M5.48773371,38.6763314 C4.82516627,38.6763314 4.28653231,38.1376975 4.28653231,37.47513 C4.28653231,36.8125626 4.82516627,36.2739286 5.48773371,36.2739286 L20.4598325,36.2739286 C21.1223999,36.2739286 21.6610339,36.8125626 21.6610339,37.47513 C21.6610339,38.1376975 21.1223999,38.6763314 20.4598325,38.6763314 L5.48773371,38.6763314 Z" id="形状"></path>
                </g>
            </g>
        </g>
    </g>
</svg>