<?xml version="1.0" encoding="UTF-8"?>
<svg width="80px" height="80px" viewBox="0 0 80 80" version="1.1" xmlns="http://www.w3.org/2000/svg" xmlns:xlink="http://www.w3.org/1999/xlink">
    <!-- Generator: Sketch 57.1 (83088) - https://sketch.com -->
    <title>2</title>
    <desc>Created with Sketch.</desc>
    <g id="Page-1" stroke="none" stroke-width="1" fill="none" fill-rule="evenodd">
        <g id="机构合作" transform="translate(-762.000000, -1658.000000)">
            <g id="2" transform="translate(762.000000, 1658.000000)">
                <circle id="Oval-3" fill="#00A651" cx="40" cy="40" r="40"></circle>
                <g id="身份" transform="translate(20.000000, 24.000000)" fill="#FFFFFF" fill-rule="nonzero">
                    <path d="M5.20405989,0.355579936 C2.58721474,0.355579936 0.701775462,2.26029174 0.701775462,4.91789483 L0.701775462,27.0821873 C0.701775462,29.7397904 2.58721474,31.6445022 5.20405989,31.6445022 L34.7960392,31.6445022 C37.4128844,31.6445022 39.2983237,29.7397904 39.2983237,27.0821873 L39.2983237,4.91789483 C39.2983237,2.26029174 37.4128844,0.355579936 34.7960392,0.355579936 L5.20405989,0.355579936 Z M34.7960392,29.6889474 L5.20405989,29.6889474 C3.5772159,29.6889474 2.63159925,28.7326796 2.63159925,27.0821873 L2.63159925,4.91789483 C2.63159925,3.26544999 3.5772159,2.31113471 5.20405989,2.31113471 L34.7960392,2.31113471 C36.4209519,2.31113471 37.3684999,3.2654454 37.3684999,4.91789483 L37.3684999,27.0821873 C37.3684999,27.0821873 36.7644626,29.6889474 34.7960392,29.6889474 Z M24.1106033,12.0889269 L30.6855081,12.0889269 C31.177614,12.0889269 31.5790195,11.6508821 31.5790195,11.1111495 C31.5790195,10.5714156 31.1776153,10.1333721 30.6855081,10.1333721 L24.1106033,10.1333721 C23.6165661,10.1333721 23.217092,10.5714169 23.217092,11.1111495 C23.217092,11.6508835 23.6165661,12.0889269 24.1106033,12.0889269 Z M24.1106033,17.3043997 L30.6855081,17.3043997 C31.177614,17.3043997 31.5790195,16.8643991 31.5790195,16.3266223 C31.5790195,15.7868883 31.1776153,15.3488449 30.6855081,15.3488449 L24.1106033,15.3488449 C23.6165661,15.3488449 23.217092,15.7868897 23.217092,16.3266223 C23.217092,16.8643991 23.6165661,17.3043997 24.1106033,17.3043997 Z M33.8967701,20.5623605 L24.1125482,20.5623605 C23.618511,20.5623605 23.21711,21.002361 23.21711,21.5401379 C23.21711,22.0798719 23.6185142,22.5179153 24.1144795,22.5179153 L33.8987014,22.5179153 C34.3927386,22.5179153 34.7960709,22.0798705 34.7960709,21.5401379 C34.7960709,21.002361 34.3927372,20.5623605 33.8967701,20.5623605 L33.8967701,20.5623605 Z M19.1065925,19.2716924 L19.1065931,19.271693 C18.0464985,18.1323483 16.7012313,17.3057799 15.2141355,16.8800473 L15.0886969,16.8448473 L15.2044865,16.7822696 L15.2044871,16.7822693 C16.8017504,15.9429224 17.8085818,14.2758843 17.8194009,12.4526642 C17.8194009,9.7344373 15.6136088,7.52465848 12.9021871,7.52465848 C10.1888521,7.52465848 7.98112874,9.7344373 7.98112874,12.4526642 C7.98112874,14.2576426 8.98270885,15.9140016 10.5960426,16.7803122 L10.7118322,16.8428899 L10.5863936,16.8800455 L10.5863939,16.8800454 C9.10370798,17.3035596 7.76149384,18.1251643 6.70165255,19.2580052 L6.70165286,19.2580049 C5.63115531,20.40246 4.90481524,21.8324479 4.60779228,23.3803193 L4.60779227,23.3803193 C4.56164966,23.6141067 4.61109387,23.8568628 4.74480982,24.0530297 L4.7448098,24.0530297 C4.91396982,24.3050478 5.19669186,24.4541703 5.49744225,24.4500078 C5.9220043,24.4500078 6.28674292,24.1410298 6.36779565,23.7166736 C6.96604347,20.5897366 9.73920459,18.6048301 12.9234324,18.6048301 C16.1192256,18.6048301 18.8422263,20.5994991 19.4327533,23.7401403 L19.4327532,23.7401401 C19.5260055,24.2311806 19.9944324,24.5526469 20.4790119,24.4581522 C20.4795576,24.4580457 20.4801032,24.4579388 20.4806487,24.4578314 L20.4806487,24.4578314 C20.9630346,24.3690635 21.2830707,23.9008365 21.1954686,23.4120235 C21.1952102,23.4105811 21.1949482,23.4091394 21.1946828,23.4076983 L21.1946826,23.4076975 C20.9025169,21.8541749 20.1780046,20.4177291 19.1066115,19.2677831 L19.1065925,19.2716924 Z M12.9253723,9.4802143 C14.6988847,9.4802143 16.1404653,10.941016 16.1404653,12.7381752 C16.1404653,14.5392439 14.6988847,16.0000456 12.9253723,16.0000456 C11.1499332,16.0000456 9.70835255,14.5372869 9.70835255,12.7401323 C9.70835255,10.9429731 11.1499332,9.48217139 12.9253723,9.48217139 L12.9253723,9.4802143 Z" id="Shape"></path>
                </g>
            </g>
        </g>
    </g>
</svg>