<?xml version="1.0" encoding="UTF-8"?>
<svg width="100px" height="100px" viewBox="0 0 100 100" version="1.1" xmlns="http://www.w3.org/2000/svg" xmlns:xlink="http://www.w3.org/1999/xlink">
    <!-- Generator: Sketch 57.1 (83088) - https://sketch.com -->
    <title>专属机构经理</title>
    <desc>Created with Sketch.</desc>
    <g id="Page-1" stroke="none" stroke-width="1" fill="none" fill-rule="evenodd">
        <g id="机构合作" transform="translate(-1389.000000, -817.000000)" fill="#00A651" fill-rule="nonzero">
            <g id="专属机构经理" transform="translate(1389.000000, 817.000000)">
                <circle id="Oval" opacity="0.1" cx="50" cy="50" r="50"></circle>
                <g id="经理" transform="translate(30.000000, 29.000000)">
                    <path d="M25.4149116,21.7481503 C29.0488444,19.805648 31.5238473,15.9665811 31.5238473,11.5500134 C31.5238473,5.17125602 26.3643175,0 20.0000244,0 C13.6357313,0 8.47620145,5.17125602 8.47620145,11.5500134 C8.47620145,15.9665811 10.9512043,19.805648 14.5851371,21.7481503 C6.22381787,24.1106531 0.0952393143,31.815037 0.0952393143,40.9500477 L0.0952393143,40.9631727 C0.0952393143,41.5341108 0.560120808,42.0000489 1.12976433,42.0000489 C1.69940785,42.0000489 2.16428934,41.5341108 2.16428934,40.9631727 L2.16428934,40.9500477 L2.19047985,40.9500477 C2.19047985,31.3294115 9.77917915,23.4937773 19.2863331,23.1131519 C16.6869253,23.4281523 15.3839476,25.3837795 15.3839476,25.3837795 L18.9327612,28.0547201 L15.3839476,36.9534805 L20.0000244,42.0000489 L24.6161012,36.9534805 L21.0672875,28.0547201 L24.6161012,25.3837795 C24.6161012,25.3837795 23.3131235,23.4347148 20.7202633,23.1131519 C30.2208696,23.4937773 37.8095689,31.335974 37.8095689,40.9500477 C37.8095689,41.5275483 38.280998,42.0000489 38.8571892,42.0000489 C39.4333803,42.0000489 39.9048094,41.5275483 39.9048094,40.9500477 C39.9048094,31.815037 33.7762309,24.1106531 25.4149116,21.7481503 L25.4149116,21.7481503 Z M10.571442,11.5500134 C10.571442,6.33281987 14.7946612,2.10000244 20.0000244,2.10000244 C25.2053876,2.10000244 29.4286068,6.33281987 29.4286068,11.5500134 C29.4286068,16.767207 25.2053876,21.0000244 20.0000244,21.0000244 C14.7946612,21.0000244 10.571442,16.767207 10.571442,11.5500134 Z M19.1619282,33.2850387 L17.9244267,36.3497298 C17.8131171,36.6253551 17.4857357,36.7500428 17.217283,36.6450426 C16.9357351,36.53348 16.7982349,36.2184796 16.9095446,35.9428543 L18.147046,32.8781633 C18.2583557,32.6025379 18.585737,32.4778503 18.8541897,32.5828504 C19.1357377,32.694413 19.2732378,33.0028509 19.1619282,33.2850387 Z" id="Shape"></path>
                </g>
            </g>
        </g>
    </g>
</svg>