<?xml version="1.0" encoding="UTF-8"?>
<svg width="100px" height="100px" viewBox="0 0 100 100" version="1.1" xmlns="http://www.w3.org/2000/svg" xmlns:xlink="http://www.w3.org/1999/xlink">
    <!-- Generator: Sketch 57.1 (83088) - https://sketch.com -->
    <title>完善的后台服务</title>
    <desc>Created with Sketch.</desc>
    <g id="Page-1" stroke="none" stroke-width="1" fill="none" fill-rule="evenodd">
        <g id="机构合作" transform="translate(-1078.000000, -817.000000)" fill="#00A651" fill-rule="nonzero">
            <g id="完善的后台服务" transform="translate(1078.000000, 817.000000)">
                <circle id="Oval" opacity="0.1" cx="50" cy="50" r="50"></circle>
                <g id="后台" transform="translate(30.000000, 30.000000)">
                    <path d="M34.9760954,0 L5.02379491,0 C2.27836203,0 0.0317578495,2.2466198 0.0317578495,4.99203706 L0.0317578495,27.4562819 C0.0317578495,30.2021055 2.27837765,32.448319 5.02379491,32.448319 L34.9760954,32.448319 C37.7219189,32.448319 39.9681324,30.2020898 39.9681324,27.4562819 L39.9681324,4.99203706 C39.9681324,2.24660418 37.7219033,0 34.9760954,0 Z M36.972918,27.4562819 C36.972918,28.5388731 36.0586865,29.4531046 34.9760954,29.4531046 L5.02379491,29.4531046 C3.9412038,29.4531046 3.02697227,28.5388731 3.02697227,27.4562819 L3.02697227,4.99203706 C3.02697227,3.90944596 3.9412038,2.99521442 5.02379491,2.99521442 L34.9760954,2.99521442 C36.0586865,2.99521442 36.972918,3.90944596 36.972918,4.99203706 L36.972918,27.4562819 Z M32.420569,37.0065665 L7.46030556,37.0065665 L7.46030553,37.0065665 C6.63373425,36.9931964 5.95283112,37.6524266 5.93926018,38.478994 C5.92608987,39.3055653 6.58532013,39.9864684 7.4118875,39.9998395 C7.42802564,40.0001006 7.44416695,40.0001006 7.46030514,39.9998395 L32.4205686,39.9998395 L32.4205686,39.9998395 C33.2471399,40.0132096 33.928043,39.3539794 33.941614,38.527412 C33.9547842,37.7008407 33.295554,37.0199376 32.4689867,37.0065665 C32.4528485,37.0063055 32.4367072,37.0063055 32.420569,37.0065665 L32.420569,37.0065665 Z M33.4162381,14.4937669 L30.2972813,14.4937669 L30.2972814,14.4937669 C29.7968199,14.4929175 29.329206,14.7428211 29.0518151,15.1593731 L28.5228535,15.9514443 L27.2307934,13.6868128 L27.2307935,13.6868128 C26.8208399,12.9686948 25.9063583,12.718882 25.1882403,13.1288356 C24.8900966,13.2990378 24.6595014,13.5665275 24.5350833,13.8864967 L22.9176595,18.0367359 L21.3213764,8.56555297 L21.3213764,8.56555301 C21.1838692,7.74995441 20.411223,7.20025064 19.5956244,7.33775861 C19.0936082,7.4223966 18.668971,7.75626691 18.4682716,8.22413855 L15.8309013,14.3790285 L15.4973146,13.3453789 L15.4973146,13.3453788 C15.3460726,12.8789603 14.9765171,12.5158388 14.5075165,12.3728113 L14.5075166,12.3728113 C14.0379457,12.2256767 13.5259178,12.3226183 13.1426322,12.6312233 L9.806765,15.2736834 L6.58444484,15.2736834 L6.58444481,15.2736834 C5.75787354,15.2603133 5.0769704,15.9195435 5.06339946,16.7461109 C5.05022916,17.5726822 5.70945942,18.2535853 6.53602679,18.2669564 C6.55216493,18.2672175 6.56830624,18.2672175 6.58444442,18.2669564 L10.3290699,18.2669564 L10.3290699,18.2669564 C10.6664672,18.2676611 10.9941879,18.154236 11.2589616,17.9451158 L13.3102062,16.3194694 L14.2076018,19.1040547 L14.2076018,19.1040547 C14.4614665,19.8907861 15.3050367,20.3227631 16.091772,20.0688996 C16.5037178,19.9359717 16.8379486,19.6312194 17.0082418,19.2332619 L19.2141428,14.087709 L20.8613244,23.883111 L20.8613244,23.8831109 C20.9729112,24.5474163 21.5145986,25.055288 22.1847087,25.1238818 C22.2371744,25.1285802 22.2884651,25.131321 22.3413222,25.131321 L22.3413222,25.131321 C22.9580807,25.131321 23.5116947,24.7530197 23.7355738,24.1783277 L26.1861822,17.8965625 L27.1258629,19.541002 L27.1258629,19.5410019 C27.383146,19.9921313 27.8561841,20.2773465 28.3752472,20.2943114 C28.9175212,20.3017505 29.3857952,20.0593912 29.6720065,19.6287051 L31.1003207,17.4862339 L33.418589,17.4862339 L33.4185891,17.4862339 C34.2451603,17.499604 34.9260635,16.8403738 34.9396344,16.0138064 C34.9528047,15.1872351 34.2935745,14.506332 33.4670071,14.4929609 C33.4508689,14.4926998 33.4347276,14.4926998 33.4185895,14.4929609 L33.4162381,14.4937669 Z" id="Shape"></path>
                </g>
            </g>
        </g>
    </g>
</svg>