<?xml version="1.0" encoding="UTF-8"?>
<svg width="100px" height="100px" viewBox="0 0 100 100" version="1.1" xmlns="http://www.w3.org/2000/svg" xmlns:xlink="http://www.w3.org/1999/xlink">
    <!-- Generator: Sketch 57.1 (83088) - https://sketch.com -->
    <title>培训教育</title>
    <desc>Created with Sketch.</desc>
    <g id="Page-1" stroke="none" stroke-width="1" fill="none" fill-rule="evenodd">
        <g id="机构合作" transform="translate(-746.000000, -817.000000)" fill="#00A651" fill-rule="nonzero">
            <g id="培训教育" transform="translate(746.000000, 817.000000)">
                <circle id="Oval" opacity="0.1" cx="50" cy="50" r="50"></circle>
                <g id="培训" transform="translate(30.000000, 30.000000)">
                    <path d="M8.78050029,16.8292901 L30.2439399,16.8292901 L30.2439398,16.8292901 C30.98481,16.8292901 31.5854048,16.2286953 31.5854048,15.4878252 C31.5854048,14.746955 30.98481,14.1463602 30.2439398,14.1463602 L8.78050023,14.1463602 L8.78050018,14.1463602 C8.03963003,14.1463602 7.4390352,14.746955 7.4390352,15.4878252 C7.4390352,16.2286953 8.03963003,16.8292901 8.78050018,16.8292901 L8.78050029,16.8292901 Z M20.8536851,22.19515 L8.78050029,22.19515 L8.78050023,22.19515 C8.03963009,22.19515 7.43903526,22.7957449 7.43903526,23.536615 C7.43903526,24.2774852 8.03963009,24.87808 8.78050023,24.87808 L20.853685,24.87808 L20.853685,24.87808 C21.5945551,24.87808 22.1951499,24.2774852 22.1951499,23.536615 C22.1951499,22.7957449 21.5945551,22.19515 20.853685,22.19515 L20.8536851,22.19515 Z M37.7387047,5.42683785 L20.8536851,5.42683785 L20.8536851,2.07317541 L20.8536851,2.07317541 C20.8536851,1.33230527 20.2530902,0.731710439 19.5122201,0.731710439 C18.77135,0.731710439 18.1707551,1.33230527 18.1707551,2.07317541 L18.1707551,5.42683785 L1.40244293,5.42683785 L1.40244287,5.42683785 C0.661572723,5.42683789 0.0609778926,6.02743268 0.0609778926,6.76830283 C0.0609778926,7.50917297 0.661572723,8.1097678 1.40244287,8.1097678 L2.07317536,8.1097678 L2.07317536,30.9669895 L2.07317536,30.9669899 C2.07317558,32.4487302 3.27436502,33.6499199 4.75610531,33.6499199 L8.26135329,33.6499199 L6.23976557,37.6930953 L6.23976556,37.6930953 C5.90822585,38.3558042 6.17669156,39.1618024 6.83940041,39.4933413 C7.50210926,39.824881 8.30810753,39.5564153 8.63964641,38.8937065 C8.63964641,38.8937065 8.63964641,38.8937065 8.63964641,38.8937065 L11.260869,33.6499199 L18.1707551,33.6499199 L18.1707551,36.3234596 L18.1707551,36.3234598 C18.1707552,37.0643299 18.7713499,37.6649248 19.51222,37.6649248 C20.2530902,37.6649247 20.853685,37.0643299 20.853685,36.3234598 L20.853685,33.6499201 L27.7635711,33.6499201 L30.3847937,38.8937067 L30.3847936,38.8937066 C30.7163334,39.5564155 31.5223308,39.8248804 32.1850396,39.4933415 C32.8477485,39.1618018 33.1162134,38.3558043 32.7846745,37.6930955 C32.7846745,37.6930955 32.7846745,37.6930955 32.7846745,37.6930955 L30.7630868,33.6499201 L34.2683347,33.6499201 L34.2683346,33.6499201 C35.7500749,33.6499201 36.9512646,32.4487304 36.9512646,30.9669901 L36.9512646,8.10976839 L37.7387045,8.10976839 L37.7387045,8.10976839 C38.4795746,8.10976842 39.0801694,7.50917356 39.0801694,6.76830341 C39.0801694,6.02743327 38.4795746,5.42683844 37.7387045,5.42683844 L37.7387047,5.42683785 Z M34.2683348,30.9669895 L4.75610537,30.9669895 L4.75610537,8.1097678 L34.2683348,8.1097678 L34.2683348,30.9669895 Z" id="Shape"></path>
                </g>
            </g>
        </g>
    </g>
</svg>