<?xml version="1.0" encoding="UTF-8"?>
<svg width="80px" height="80px" viewBox="0 0 80 80" version="1.1" xmlns="http://www.w3.org/2000/svg" xmlns:xlink="http://www.w3.org/1999/xlink">
    <!-- Generator: Sketch 57.1 (83088) - https://sketch.com -->
    <title>3</title>
    <desc>Created with Sketch.</desc>
    <g id="Page-1" stroke="none" stroke-width="1" fill="none" fill-rule="evenodd">
        <g id="机构合作" transform="translate(-1091.000000, -1658.000000)">
            <g id="3" transform="translate(1091.000000, 1658.000000)">
                <circle id="Oval-3" fill="#00A651" cx="40" cy="40" r="40"></circle>
                <g id="商务" transform="translate(22.000000, 21.000000)" fill="#FFFFFF" fill-rule="nonzero">
                    <g id="Group" transform="translate(0.160720, 0.260774)">
                        <path d="M33.260945,28.1982634 C32.3898323,26.1417998 31.1426077,24.2949544 29.5546281,22.7089179 C27.9666486,21.1233227 26.1170259,19.8784121 24.05747,19.0086074 C23.7595857,18.8828366 23.4590496,18.7654505 23.1563037,18.657773 C23.65484,18.3117928 24.1255325,17.9185935 24.5639616,17.4808227 C26.4975576,15.55013 27.5622508,12.983081 27.5622508,10.2527505 C27.5622508,7.52242007 26.4975576,4.95537105 24.5639616,3.02467835 C22.6303656,1.09398565 20.0594564,0.0308910832 17.3250202,0.0308910832 C14.5905839,0.0308910832 12.0196747,1.09398565 10.0860787,3.02467835 C8.1524827,4.95537105 7.0877895,7.52242007 7.0877895,10.2527505 C7.0877895,12.983081 8.1524827,15.55013 10.0860787,17.4808227 C10.5245078,17.9185935 10.9952003,18.3117928 11.4937366,18.657773 C11.1909907,18.7654505 10.8904546,18.8828366 10.5925704,19.0086074 C8.53301439,19.8784121 6.68339171,21.1233227 5.09541218,22.7089179 C3.50743265,24.2949544 2.26020799,26.1417998 1.38909537,28.1982634 C0.486603245,30.3284242 0.0291696768,32.5900928 0.0291696768,34.9206044 L0.0291696768,35.0084233 C0.0291696768,35.7886438 0.66206327,36.4205871 1.44345704,36.4205871 L33.2065833,36.4205871 C33.987977,36.4205871 34.6208706,35.7886438 34.6208706,35.0084233 L34.6208706,34.9206044 C34.6208706,32.5900928 34.1634371,30.3284242 33.260945,28.1982634 Z M9.91636422,10.2527505 C9.91636422,6.17380364 13.2399395,2.85521869 17.3250202,2.85521869 C21.4101008,2.85521869 24.7336761,6.17380364 24.7336761,10.2527505 C24.7336761,14.3316974 21.4101008,17.6502824 17.3250202,17.6502824 C13.2399395,17.6502824 9.91636422,14.3316974 9.91636422,10.2527505 Z M2.91785161,33.5962595 C3.58963811,26.2494773 9.7948239,20.47461 17.3250202,20.47461 C24.8552164,20.47461 31.0604022,26.2494773 31.7321887,33.5962595 L2.91785161,33.5962595 L2.91785161,33.5962595 Z" id="Shape"></path>
                        <path d="M17.3250202,33.249397 C16.9970823,33.249397 16.6695864,33.1359824 16.4044075,32.9095949 L13.3163994,30.2666421 C12.9036043,29.9136011 12.7303541,29.3549138 12.8704569,28.830648 L14.6352224,22.2230453 C14.8005172,21.6047823 15.3609286,21.174955 16.0017775,21.174955 L18.6487047,21.174955 C19.2895537,21.174955 19.8499651,21.6052236 20.0152599,22.2230453 L21.7800253,28.830648 L21.7800254,28.8306481 C21.9202577,29.3551125 21.7468815,29.913407 21.3340829,30.2666421 L18.2460748,32.909595 L18.2460748,32.909595 C17.9894974,33.1289689 17.6628094,33.249397 17.3250201,33.249397 L17.3250202,33.249397 Z M15.832505,28.7000228 L17.3250202,29.9771485 L18.8175353,28.7000228 L17.5619133,23.9988413 L17.088127,23.9988413 L15.832505,28.7000228 L15.832505,28.7000228 Z" id="Shape"></path>
                    </g>
                </g>
            </g>
        </g>
    </g>
</svg>