<?xml version="1.0" encoding="UTF-8"?>
<svg width="80px" height="80px" viewBox="0 0 80 80" version="1.1" xmlns="http://www.w3.org/2000/svg" xmlns:xlink="http://www.w3.org/1999/xlink">
    <!-- Generator: Sketch 57.1 (83088) - https://sketch.com -->
    <title>1</title>
    <desc>Created with Sketch.</desc>
    <g id="Page-1" stroke="none" stroke-width="1" fill="none" fill-rule="evenodd">
        <g id="机构合作" transform="translate(-443.000000, -1658.000000)">
            <g id="1" transform="translate(443.000000, 1658.000000)">
                <circle id="Oval-3" fill="#00A651" cx="40" cy="40" r="40"></circle>
                <g id="注册" transform="translate(20.000000, 20.000000)" fill="#FFFFFF" fill-rule="nonzero">
                    <path d="M18.4819,19.7049596 C23.9201582,19.7049596 28.3361874,15.2943158 28.3361874,9.8626896 C28.3361874,4.43106344 23.9201582,0 18.4819,0 C13.0436418,0 8.6276126,4.4106438 8.6276126,9.84226996 C8.6276126,15.2738961 13.0436418,19.7049596 18.4819,19.7049596 Z M18.4819,3.2875632 C22.1210352,3.2875632 25.0650546,6.2279924 25.0650546,9.8626896 C25.0650546,13.4973868 22.1210352,16.437816 18.4819,16.437816 C14.8632094,16.4173964 11.9191899,13.4769672 11.9191899,9.84226996 C11.9191899,6.20757275 14.8632094,3.2875632 18.4819,3.2875632 L18.4819,3.2875632 Z M26.8028439,23.5030139 C24.1654931,22.053219 21.0783616,21.2364331 17.7867843,21.2364331 C7.95294147,21.2364331 0,28.6283454 0,37.735508 C0.797338605,37.7150884 2.22845918,37.796767 2.96446405,37.735508 C2.96446405,30.1393993 9.60895242,23.9930855 17.7867843,23.9930855 C20.4650242,23.9930855 22.9797075,24.6465142 25.1468329,25.8104341 L26.8028439,23.5030139 Z M33.263331,29.5472295 L33.263331,24.6260945 L29.9717537,24.6260945 L29.9717537,29.5472295 L25.04461,29.5472295 L25.04461,32.8347927 L29.9717537,32.8347927 L29.9717537,37.7559277 L33.263331,37.7559277 L33.263331,32.8347927 L38.1904747,32.8347927 L38.1904747,29.5472295 L33.263331,29.5472295 Z" id="Shape"></path>
                </g>
            </g>
        </g>
    </g>
</svg>