<?xml version="1.0" encoding="UTF-8"?>
<svg width="100px" height="100px" viewBox="0 0 100 100" version="1.1" xmlns="http://www.w3.org/2000/svg" xmlns:xlink="http://www.w3.org/1999/xlink">
    <!-- Generator: Sketch 57.1 (83088) - https://sketch.com -->
    <title>定制化营销方案</title>
    <desc>Created with Sketch.</desc>
    <g id="Page-1" stroke="none" stroke-width="1" fill="none" fill-rule="evenodd">
        <g id="机构合作" transform="translate(-418.000000, -817.000000)" fill="#00A651" fill-rule="nonzero">
            <g id="定制化营销方案" transform="translate(418.000000, 817.000000)">
                <circle id="Oval" opacity="0.1" cx="50" cy="50" r="50"></circle>
                <g id="定制" transform="translate(30.000000, 31.000000)">
                    <path d="M1.31630779,1.37996364 C-1.23985018,4.00415352 0.436014537,7.11986286 2.13047644,8.76101381 C2.42390765,9.04893457 2.85578936,9.0818398 3.09962544,8.84327688 L8.85664412,2.94706523 C9.09428188,2.70438915 9.06328581,2.29924443 8.75125704,1.99075605 C7.10638765,0.396909895 3.8827958,-1.23395724 1.31628621,1.37995253 L1.31630779,1.37996364 Z M2.73180434,2.75169875 C3.53357486,1.929068 4.92220632,1.58767661 6.55881525,2.76815137 L2.84959773,6.55842237 C1.62214569,4.96251723 1.93004126,3.5702182 2.73181215,2.75170912 L2.73180434,2.75169875 Z M9.232748,4.85969098 L5.02553275,9.16204167 L5.02553265,9.16204176 C4.40653035,9.79530895 4.42040569,10.8080439 5.05652909,11.4242763 L11.0925429,16.1543846 L11.0925428,16.1543846 C11.7291823,16.7687247 12.7448764,16.7558597 13.3656015,16.1255926 L16.4548939,12.9749176 L16.454894,12.9749175 C17.0727502,12.3411985 17.0588898,11.3294005 16.4238976,10.712683 L11.5099667,4.83087678 L11.5099667,4.83087681 C10.8728249,4.21379635 9.85396056,4.22667981 9.23277408,4.85966881 L9.232748,4.85969098 Z M14.4814508,11.5579436 L14.4814508,11.5579435 C14.6383727,11.7133876 14.6389681,11.9660038 14.4827802,12.1221792 C14.4823381,12.1226213 14.481895,12.1230623 14.4814508,12.1235022 L12.4604961,14.1903629 L12.4604961,14.1903629 C12.3043084,14.3465376 12.0504834,14.3471301 11.8935608,14.191686 C11.8931166,14.191246 11.8926735,14.190805 11.8922314,14.1903629 L7.11054219,10.4658979 L7.1105422,10.465898 C6.95834883,10.3070077 6.95834883,10.0571748 7.11054219,9.89828125 L10.0283222,6.9080181 L10.0283222,6.90801811 C10.1879727,6.75654947 10.4390009,6.75654947 10.5986547,6.90801809 L14.4814508,11.5579436 Z M27.1320454,26.3920343 L24.652345,28.921622 L30.2564708,31.8872069 L35.8585129,34.8548472 L32.7299572,29.359693 L29.6055355,23.8562807 L27.1320454,26.3920343 Z M31.7112418,30.8280708 L28.1032781,28.2717459 L29.0372978,27.3174957 L31.7112418,30.8280708 Z M25.013982,6.52139473 L29.037309,10.4288723 L27.5618869,11.9281163 L23.5385599,8.02063872 L25.013982,6.52139473 Z M27.9668912,3.49616959 L31.9902183,7.40364714 L30.5147962,8.91111596 L26.4914692,5.01389629 L27.9668912,3.49616959 Z M22.0610727,9.54043552 L26.0864462,13.4479131 L24.608959,14.9553819 L20.585632,11.0479043 L22.0610727,9.54043552 Z M16.1573378,15.5764803 L20.1806649,19.4839579 L18.7052428,20.9770323 L14.6819158,17.0695548 L16.1573378,15.5764803 Z M10.253603,21.6125251 L14.27693,25.5200027 L12.7994428,27.0295305 L8.77611581,23.1220529 L10.253603,21.6145841 L10.253603,21.6125251 Z M13.2044472,18.5934695 L17.2277742,22.5009471 L15.7523521,24.0104749 L11.7290251,20.1029973 L13.2044472,18.5934695 Z M7.30071233,24.6295144 L11.3240394,28.5369919 L9.84861728,30.0465197 L5.82324374,26.1390422 L7.30071233,24.6295144 Z M29.795727,1.64521707 L29.4444361,2.00511783 L37.6853226,9.99079086 L36.5611932,11.1424739 L36.5735917,11.1548134 L34.7468806,13.0221859 L33.2693934,14.5214299 L31.7939714,16.0288987 L30.3185493,17.5384265 L28.8410621,19.0479543 L28.4422419,19.4592697 L27.36564,20.565707 L19.1103163,12.5574073 L17.6348943,14.0669351 L25.8757807,22.0526082 L24.813642,23.1405368 L24.8260405,23.1528762 L22.937335,25.0901728 L21.4619129,26.5997006 L19.9844257,28.1071694 L18.5090037,29.6146382 L17.0315165,31.124166 L16.6946907,31.4655578 L15.5560944,32.6316352 L15.5436959,32.6192957 L14.0682738,34.1267645 L13.6880546,34.515457 L12.5907866,35.6362923 L4.33959316,27.6485455 L4.01309928,27.9837674 L4.01309942,27.9837672 C3.38425155,28.6251778 3.39692131,29.6524997 4.0414005,30.278353 C4.04229778,30.2792244 4.04319608,30.2800947 4.04409538,30.280964 L11.4418569,37.4501906 L11.4418568,37.4501905 C12.0822954,38.0817542 13.1159094,38.0770289 13.7504912,37.4396387 C13.7538003,37.4363149 13.757095,37.432977 13.7603751,37.429625 L39.5347918,11.0704826 L39.5347917,11.0704826 C40.1636396,10.4290721 40.1509699,9.40175019 39.5064904,8.77589683 C39.5055932,8.77502548 39.5046949,8.77415516 39.5037956,8.77328586 L32.106034,1.60405923 L32.1060341,1.6040593 C31.4577481,0.980476012 30.4242754,0.997999595 29.7977085,1.64320111 C29.797065,1.64386376 29.796422,1.64452696 29.7957796,1.6451907 L29.795727,1.64521707 Z" id="Shape"></path>
                </g>
            </g>
        </g>
    </g>
</svg>