<?xml version="1.0" encoding="UTF-8"?>
<svg width="80px" height="80px" viewBox="0 0 80 80" version="1.1" xmlns="http://www.w3.org/2000/svg" xmlns:xlink="http://www.w3.org/1999/xlink">
    <!-- Generator: Sketch 57.1 (83088) - https://sketch.com -->
    <title>4</title>
    <desc>Created with Sketch.</desc>
    <g id="Page-1" stroke="none" stroke-width="1" fill="none" fill-rule="evenodd">
        <g id="机构合作" transform="translate(-1410.000000, -1658.000000)">
            <g id="4" transform="translate(1410.000000, 1658.000000)">
                <circle id="Oval-3" fill="#00A651" cx="40" cy="40" r="40"></circle>
                <g id="佣金" transform="translate(20.000000, 20.000000)" fill="#FFFFFF" fill-rule="nonzero">
                    <path d="M39.5602023,6.81503224 L39.5602023,6.75517171 L39.5602023,6.67535766 C39.5602023,2.34544565 30.700192,0.0308383006 22.3801823,0.0308383006 C14.0201726,0.0308383006 5.18016228,2.34544565 5.18016228,6.67535766 L5.18016228,10.5862459 C1.28015774,12.1027128 0.440156762,13.9583894 0.440156762,15.2952747 L0.440156762,21.6404914 C0.440156762,23.6358425 2.34015897,25.2121699 5.18016228,26.3096131 L5.18016228,31.7569217 C5.44015676,35.4483214 12.1801704,37.6232541 19.4001788,38.1021384 L19.4801789,38.1021384 C19.6601791,38.1021384 19.8001793,38.1021384 19.9801795,38.1220919 C20.1001796,38.1220919 20.2201798,38.1220919 20.3201799,38.1420454 C20.6201802,38.1420454 20.9001806,38.161999 21.2001809,38.161999 C21.6001814,38.161999 21.9801818,38.1819525 22.4001823,38.1819525 C22.8001828,38.1819525 23.1801832,38.1819525 23.6001837,38.161999 C23.9001841,38.161999 24.1801844,38.1420454 24.4801847,38.1420454 C24.6001849,38.1420454 24.720185,38.1420454 24.8201851,38.1220919 C25.0001853,38.1220919 25.1401855,38.1220919 25.3201857,38.1021384 L25.4001858,38.1021384 C32.7601944,37.6033006 39.6402024,35.3485538 39.6402024,31.5374331 L39.6402024,31.5174796 L39.6402024,25.371798 L39.6402024,25.3119375 L39.6402024,25.1922164 C39.6402024,23.1569582 37.7002001,21.6005843 34.7601967,20.4632342 L34.7601967,17.7495566 C37.7002001,16.6521135 39.6402024,15.0558325 39.6402024,13.0205743 L39.6402024,13.0006208 L39.6402024,6.81503224 L39.5602023,6.81503224 Z M22.3401822,2.06609648 C31.7401932,2.06609648 37.5001999,4.75982055 37.5001999,6.67535766 C37.5001999,8.59089477 31.7401932,11.2846188 22.3401822,11.2846188 C12.9401713,11.2846188 7.18016461,8.61084828 7.18016461,6.67535766 C7.22016465,4.73986704 12.9801714,2.06609648 22.3401822,2.06609648 Z M5.16016225,12.8210392 L5.16016225,13.0205743 C5.16016225,16.8117415 12.0601703,19.0864419 19.4001788,19.5852797 L19.4801789,19.5852797 C19.6601791,19.5852797 19.8001793,19.5852797 19.9801795,19.6052332 C20.1001796,19.6052332 20.2201798,19.6052332 20.3201799,19.6251867 C20.6201802,19.6251867 20.9001806,19.6451402 21.2001809,19.6451402 C21.5201813,19.6451402 21.8601817,19.6451402 22.1801821,19.6650937 C20.7201804,19.8047683 19.2201786,19.9045358 17.6801768,19.9045358 L16.5201755,19.9045358 C7.80016533,19.7050007 2.50015916,17.1509512 2.50015916,15.3152282 C2.48015914,14.5170877 3.46016028,13.6191797 5.16016225,12.8210392 L5.16016225,12.8210392 Z M37.4801999,31.5972936 C37.4801999,33.3132956 32.8201944,35.66781 25.1001855,36.1267408 C24.6601849,36.1466943 24.2201844,36.1866013 23.8001839,36.1866013 L23.6601838,36.1866013 C23.2201833,36.1866013 22.7801828,36.2065548 22.3601823,36.2065548 C21.9201818,36.2065548 21.4801812,36.2065548 21.0601808,36.1866013 L20.9201806,36.1866013 C20.4801801,36.1866013 20.0401796,36.1666478 19.6201791,36.1267408 C11.8801701,35.66781 7.24016467,33.3332491 7.24016467,31.5972936 L7.24016467,28.5244529 C9.82016768,30.3601759 14.5401732,31.4775726 19.4201788,31.7968288 L19.5001789,31.7968288 C19.6801792,31.7968288 19.8201793,31.7968288 20.0001795,31.8167823 C20.1201797,31.8167823 20.2401798,31.8167823 20.3401799,31.8367358 C20.6401803,31.8367358 20.9201806,31.8566893 21.2201809,31.8566893 C21.6201814,31.8566893 22.0001819,31.8766428 22.4201823,31.8766428 C22.8001828,31.8766428 23.2001832,31.8766428 23.6201837,31.8566893 C23.9201841,31.8566893 24.2001844,31.8367358 24.5001848,31.8367358 C24.6201849,31.8367358 24.740185,31.8367358 24.8401852,31.8167823 C25.0201854,31.8167823 25.1601855,31.8167823 25.3401857,31.7968288 L25.4201858,31.7968288 C30.3401916,31.4775726 35.020197,30.3402224 37.6002,28.5244529 L37.6002,31.5773401 C37.4801999,31.5773401 37.4801999,31.5773401 37.4801999,31.5972936 L37.4801999,31.5972936 Z M37.4801999,25.1922164 L37.4801999,25.252077 C37.4801999,26.9680789 32.8201944,29.3225933 25.1001855,29.7815241 C24.6601849,29.8014776 24.2201844,29.8413846 23.8001839,29.8413846 L23.6601838,29.8413846 C23.2201833,29.8413846 22.7801828,29.8613381 22.3601823,29.8613381 C21.9201818,29.8613381 21.4801812,29.8613381 21.0601808,29.8413846 L20.9201806,29.8413846 C20.4801801,29.8413846 20.0401796,29.8214311 19.6201791,29.7815241 C15.1801739,29.5221284 11.7601699,28.6242204 9.64016747,27.6065913 C10.8601689,27.8460335 12.1401675,28.0056616 13.4801719,28.1652896 C13.540172,28.1852432 13.6201721,28.1852432 13.6801722,28.1852432 C14.9401736,28.3049642 16.2001751,28.3249177 17.5201766,28.3249177 L17.6401675,28.3249177 C18.9401783,28.3249177 20.2201798,28.2650572 21.4801812,28.1852432 C21.5601813,28.1852432 21.6201814,28.1652896 21.6801815,28.1652896 C27.9401888,27.5866378 33.6001953,25.6910542 34.5601965,22.6182134 C36.4401987,23.4163539 37.4801999,24.3741224 37.4801999,25.1922164 L37.4801999,25.1922164 Z M32.6401942,21.6404914 C32.6401942,23.5560285 26.9201876,26.229799 17.5401767,26.2497525 C8.20016579,26.2497525 2.48015914,23.5560285 2.44015909,21.6404914 L2.44015909,18.5676506 C4.48016146,20.0242569 7.82016535,21.001979 11.5401697,21.5207703 C11.6201698,21.5407238 11.6801698,21.5806308 11.78017,21.5806308 C13.3001717,21.7801659 14.9001736,21.8799335 16.5201755,21.899887 L18.5401778,21.899887 C20.1401797,21.8799335 21.7001815,21.7602124 23.2201833,21.5806308 C23.2401833,21.5806308 23.3001834,21.5606773 23.3401834,21.5606773 C27.0601877,21.1017465 30.5201918,20.143978 32.5801942,18.7272787 L32.5801942,21.6604449 L32.6401942,21.6604449 L32.6401942,21.6404914 Z M23.5201836,19.65852 C23.7201839,19.65852 23.9001841,19.65852 24.1001843,19.6251867 C23.9201841,19.65852 23.7801839,19.65852 23.6001837,19.7251867 C23.5801837,19.6918533 23.5601837,19.6918533 23.5201836,19.65852 Z M37.4801999,13.0205743 C37.4801999,14.7365763 32.8201944,17.0910907 25.1001855,17.5500215 C24.6601849,17.569975 24.2201844,17.609882 23.8001839,17.609882 L23.6601838,17.609882 C23.2201833,17.609882 22.7801828,17.6298355 22.3601823,17.6298355 C21.9201818,17.6298355 21.4801812,17.6298355 21.0601808,17.609882 L20.9201806,17.609882 C20.4801801,17.609882 20.0401796,17.5899285 19.6201791,17.5500215 C11.8801701,17.0910907 7.2601647,14.7365763 7.2601647,13.0205743 L7.2601647,9.92778005 C10.3801683,12.1426198 16.5001755,13.2999235 22.4201823,13.2999235 C28.3401892,13.2999235 34.4601963,12.1426198 37.5802,9.92778005 L37.5802,12.9806673 C37.4801999,13.0006208 37.4801999,13.0006208 37.4801999,13.0205743 L37.4801999,13.0205743 Z" id="Shape"></path>
                </g>
            </g>
        </g>
    </g>
</svg>