<?xml version="1.0" encoding="UTF-8"?>
<svg width="100px" height="100px" viewBox="0 0 100 100" version="1.1" xmlns="http://www.w3.org/2000/svg" xmlns:xlink="http://www.w3.org/1999/xlink">
    <!-- Generator: Sketch 57.1 (83088) - https://sketch.com -->
    <title>深度流通性</title>
    <desc>Created with Sketch.</desc>
    <g id="Page-1" stroke="none" stroke-width="1" fill="none" fill-rule="evenodd">
        <g id="流动性供应商" transform="translate(-360.000000, -790.000000)" fill="#00A651" fill-rule="nonzero">
            <g id="深度流通性" transform="translate(360.000000, 790.000000)">
                <circle id="Oval" opacity="0.1" cx="50" cy="50" r="50"></circle>
                <g id="流动人员" transform="translate(31.000000, 32.000000)">
                    <path d="M32.4602471,20.848943 C28.7390201,20.848943 25.7113096,23.8760949 25.7113096,27.5968922 C25.7113096,31.2663418 28.6518364,34.2616539 32.2988563,34.3479782 L32.460419,34.3473767 C36.1819468,34.3473767 39.2102159,31.3197091 39.2102159,27.5979665 C39.210044,23.8766106 36.1819897,20.848943 32.4602471,20.848943 L32.4602471,20.848943 Z M32.4602471,31.9033972 C30.0854905,31.9033972 28.1533554,29.9709184 28.1533554,27.5955602 C28.1533554,25.2206746 30.0854905,23.2884966 32.4602471,23.2884966 C34.8355624,23.2884966 36.7676545,25.2206746 36.7676545,27.5955602 C36.7676545,29.9710903 34.8355624,31.9033972 32.4602471,31.9033972 Z M7.53898766,20.848943 C3.81767474,20.848943 0.789921215,23.8760949 0.789921215,27.5968922 C0.789921215,31.2663418 3.73040511,34.2616539 7.37742497,34.3479782 L7.53898766,34.3473767 C11.2605154,34.3473767 14.2887846,31.3197091 14.2887846,27.5979665 C14.2887846,23.8766106 11.2605584,20.848943 7.53898766,20.848943 Z M7.53898766,31.9033972 C5.1636724,31.9033972 3.23158031,29.9709184 3.23158031,27.5955602 C3.23158031,25.2206746 5.16371537,23.2884966 7.53898766,23.2884966 C9.91413105,23.2884966 11.8461802,25.2206746 11.8461802,27.5955602 C11.8461802,29.9710903 9.91413105,31.9033972 7.53898766,31.9033972 Z M20.4382214,13.5157587 L20.5997841,13.5154149 C24.3213119,13.5154149 27.349581,10.4875325 27.349581,6.76600472 C27.349581,3.04447695 24.3215267,0.0168952992 20.5997841,0.0168952992 C16.8786001,0.0168952992 13.8507606,3.04391835 13.8507606,6.76471565 C13.8507606,10.4339934 16.7912875,13.4293054 20.4382214,13.5157587 L20.4382214,13.5157587 Z M20.5997841,2.45632001 C22.9750994,2.45632001 24.9070196,4.38845507 24.9070196,6.76355549 C24.9070196,9.13874185 22.9751423,11.0711777 20.5998271,11.0711777 C18.2250274,11.0711777 16.2929353,9.13874185 16.2929353,6.76355549 C16.2929353,4.38845507 18.2250274,2.45632001 20.5997841,2.45632001 Z M7.79478093,19.2294919 C8.36618003,15.7815465 10.3323894,12.8064297 13.0981621,10.9044587 L13.0981621,10.904458 C12.7651484,10.2816553 12.5129481,9.61890886 12.3476686,8.93227603 C8.75861369,11.2242318 6.23342325,15.0312675 5.67577416,19.4534016 C6.29886473,19.3055459 6.94795143,19.2249794 7.61633111,19.2249794 C7.67605774,19.2249794 7.73518281,19.2282021 7.79478054,19.2294911 L7.79478093,19.2294919 Z M32.6740599,19.2302223 C33.4127365,19.2487849 34.1274366,19.3625233 34.8066014,19.5605665 C34.2970774,15.2705615 31.9360278,11.551397 28.5454027,9.21642835 L28.545403,9.21642835 C28.3558891,9.89480258 28.0810865,10.5463987 27.7275779,11.1556103 C30.3066082,13.0632574 32.1276689,15.9310768 32.6741032,19.2302213 L32.6740599,19.2302223 Z M25.779544,32.6396676 C24.1054796,33.4602858 22.2245204,33.9234465 20.2345063,33.9234465 C18.1301523,33.9234465 16.150193,33.4020631 14.4062183,32.4902651 C13.9881319,33.0691408 13.4995337,33.5937039 12.9502635,34.0483997 C15.0969847,35.2782957 17.5830736,35.98307 20.2345063,35.98307 C22.7917085,35.98307 25.1937934,35.3255614 27.2867606,34.1750288 C26.7214201,33.7296142 26.2138727,33.2142464 25.779544,32.6397536 L25.779544,32.6396676 Z" id="Shape"></path>
                </g>
            </g>
        </g>
    </g>
</svg>