<?xml version="1.0" encoding="UTF-8"?>
<svg width="100px" height="100px" viewBox="0 0 100 100" version="1.1" xmlns="http://www.w3.org/2000/svg" xmlns:xlink="http://www.w3.org/1999/xlink">
    <!-- Generator: Sketch 57.1 (83088) - https://sketch.com -->
    <title>极低的交易成本</title>
    <desc>Created with Sketch.</desc>
    <g id="Page-1" stroke="none" stroke-width="1" fill="none" fill-rule="evenodd">
        <g id="流动性供应商" transform="translate(-649.000000, -790.000000)" fill="#00A651" fill-rule="nonzero">
            <g id="极低的交易成本" transform="translate(649.000000, 790.000000)">
                <circle id="Oval" opacity="0.1" cx="50" cy="50" r="50"></circle>
                <g id="低谷" transform="translate(30.000000, 39.000000)">
                    <path d="M37.5012178,21.5016003 C37.0242642,21.5016003 36.5473105,21.3082407 36.1992632,20.9215215 L21.6844026,4.791034 L12.4890794,13.9863572 C11.8058754,14.6695611 10.6972804,14.6695611 10.0140765,13.9863572 L1.26133192,5.23790952 C0.578128,4.5547056 0.578128,3.44611056 1.26133192,2.76290664 C1.94453584,2.07970272 3.05313088,2.07970272 3.7363348,2.76290664 L11.2515779,10.2738529 L20.5156512,1.0097796 C20.8551047,0.67032608 21.3148709,0.48985712 21.8004183,0.49845088 C22.2816689,0.51134152 22.7328413,0.72188864 23.0551073,1.07852968 L38.8031725,18.5797219 C39.4477045,19.2973009 39.391845,20.4058959 38.6742661,21.0504279 C38.3348126,21.3512095 37.9180152,21.5016003 37.5012178,21.5016003 L37.5012178,21.5016003 Z M37.5012178,21.5016003 L25.250813,21.5016003 C24.284015,21.5016003 23.5019828,20.7195682 23.5019828,19.7527702 C23.5019828,18.7859722 24.284015,18.00394 25.250813,18.00394 L35.7523877,18.00394 L35.7523877,7.4980684 C35.7523877,6.5312704 36.5344198,5.74923824 37.5012178,5.74923824 C38.4680158,5.74923824 39.250048,6.5312704 39.250048,7.4980684 L39.250048,19.7484733 C39.250048,20.7195682 38.4680158,21.5016003 37.5012178,21.5016003 L37.5012178,21.5016003 Z" id="Shape"></path>
                </g>
            </g>
        </g>
    </g>
</svg>