<?xml version="1.0" encoding="UTF-8"?>
<svg width="100px" height="100px" viewBox="0 0 100 100" version="1.1" xmlns="http://www.w3.org/2000/svg" xmlns:xlink="http://www.w3.org/1999/xlink">
    <!-- Generator: Sketch 57.1 (83088) - https://sketch.com -->
    <title>七星级服务体验</title>
    <desc>Created with Sketch.</desc>
    <g id="Page-1" stroke="none" stroke-width="1" fill="none" fill-rule="evenodd">
        <g id="流动性供应商" transform="translate(-1257.000000, -790.000000)" fill="#00A651" fill-rule="nonzero">
            <g id="七星级服务体验" transform="translate(1257.000000, 790.000000)">
                <circle id="Oval" opacity="0.1" cx="50" cy="50" r="50"></circle>
                <g id="高级" transform="translate(28.000000, 30.000000)">
                    <path d="M43.4500506,12.3000166 C42.6250496,11.2000154 41.8000486,9.96251392 40.9062976,8.72501248 C40.0125466,7.48751104 39.0500454,6.04375936 37.9500442,4.5312576 C36.8500429,3.01875584 36.0250419,1.7812544 35.4062912,0.88750336 C35.1312909,0.47500288 34.7875405,0.26875264 34.3062899,0.26875264 L8.66251008,0.26875264 C8.31875968,0.26875264 7.97500928,0.4062528 7.76875904,0.68125312 L7.70000896,0.7500032 L7.5625088,0.88750336 C6.80625792,2.1250048 5.70625664,3.98125696 4.1250048,6.52500992 C2.54375296,9.06876288 1.3750016,10.9937651 0.55000064,12.3000166 C0.20625024,12.7812672 0.27500032,13.3312678 0.6875008,13.8125184 L0.75625088,13.8125184 L0.75625088,13.8812685 C2.95625344,16.7000218 6.32500736,20.9625267 10.7250125,26.6000333 C15.1250176,32.2375398 18.4250214,36.4312947 20.625024,39.250048 C20.9000243,39.5937984 21.2437747,39.8000486 21.5875251,39.7312986 C21.7250253,39.7312986 21.8625254,39.6625485 22.0000256,39.5937984 C22.1375258,39.5250483 22.2750259,39.3875482 22.4125261,39.250048 C24.062528,37.1875456 26.2625306,34.5062925 29.0125338,31.2062886 C31.762537,27.9062848 34.2375398,24.8125312 36.6437926,21.9250278 C38.9812954,19.0375245 41.1812979,16.3562714 43.2438003,13.8812685 L43.3125504,13.7437683 C43.7250509,13.1937677 43.793801,12.7125171 43.4500506,12.3000166 L43.4500506,12.3000166 Z M39.8750464,11.6812659 L31.9687872,11.6812659 C32.1750374,11.0625152 32.4500378,10.3062643 32.7937882,9.3437632 C33.1375386,8.38126208 33.481289,7.55626112 33.7562893,6.66251008 C34.0312896,5.76875904 34.37504,5.01250816 34.5812902,4.32500736 C35.1312909,5.15000832 36.0250419,6.38750976 37.1937933,8.03751168 C38.3625446,9.6875136 39.2562957,10.856265 39.8750464,11.6812659 Z M21.518775,3.43125632 C22.0687757,4.25625728 22.6875264,5.08125824 23.3062771,5.97500928 C23.9250278,6.86876032 24.6125286,7.90001152 25.4375296,9.06876288 C26.2625306,10.3062643 26.8812813,11.1312653 27.2250317,11.6125158 L15.7437683,11.6125158 C18.7687718,7.35001088 20.6937741,4.60000768 21.518775,3.43125632 L21.518775,3.43125632 Z M28.2562829,14.2250189 C27.2250317,17.1125222 26.4000307,19.2437747 25.9187802,20.6187763 C25.4375296,21.9937779 24.7500288,23.8500301 23.8562778,26.1875328 C22.9625267,28.5250355 22.2062758,30.656288 21.518775,32.5125402 C18.8375219,24.8812813 16.5687693,18.7625242 14.8500173,14.2250189 L28.2562829,14.2250189 L28.2562829,14.2250189 Z M29.6312845,10.6500147 C28.8750336,9.61876352 27.0875315,7.00626048 24.2000282,2.8125056 L32.4500378,2.8125056 C32.1062874,3.77500672 31.6250368,5.08125824 31.0062861,6.86876032 C30.3875354,8.6562624 29.9062848,9.89376384 29.6312845,10.6500147 Z M13.5437658,10.3750144 C12.5125146,7.76251136 11.5500134,5.2187584 10.5875123,2.8125056 L18.8375219,2.8125056 C16.9812698,5.42500864 15.1937677,7.9687616 13.5437658,10.3750144 Z M8.45625984,4.39375744 C9.35001088,6.73126016 10.312512,9.13751296 11.2750131,11.6812659 L3.98750464,11.6812659 C5.36250624,9.41251328 6.875008,6.9375104 8.45625984,4.39375744 Z M12.2375142,14.2250189 C14.0250163,18.9687744 16.293769,25.2937818 19.0437722,33.1312909 C13.5437658,26.0500326 8.59376,19.7250189 4.26250496,14.2250189 L12.2375142,14.2250189 Z M31.0062861,14.2250189 L39.6000461,14.2250189 C37.1250432,17.3187725 31.9000371,23.6437798 23.9937779,33.3375411 C24.3375283,32.3062899 24.7500288,31.2750387 25.1625293,30.1062874 C25.5750298,28.937536 25.9875302,27.9062848 26.2625306,27.0125338 C26.606281,26.1187827 26.9500314,25.0187814 27.500032,23.7125299 C27.9812826,22.4062784 28.393783,21.3750272 28.6000333,20.6875264 C28.8750336,20.0000256 29.2875341,18.9000243 29.7687846,17.3875226 C30.3875354,15.8062707 30.8000358,14.7750195 31.0062861,14.2250189 Z" id="Shape"></path>
                </g>
            </g>
        </g>
    </g>
</svg>