<?xml version="1.0" encoding="UTF-8"?>
<svg width="30px" height="30px" viewBox="0 0 30 30" version="1.1" xmlns="http://www.w3.org/2000/svg" xmlns:xlink="http://www.w3.org/1999/xlink">
    <!-- Generator: Sketch 57.1 (83088) - https://sketch.com -->
    <title>钩</title>
    <desc>Created with Sketch.</desc>
    <g id="Page-1" stroke="none" stroke-width="1" fill="none" fill-rule="evenodd">
        <g id="流动性供应商" transform="translate(-360.000000, -1011.000000)" fill="#00A651" fill-rule="nonzero">
            <g id="钩" transform="translate(360.000000, 1011.000000)">
                <path d="M15.0113209,0.539378464 C7.01749377,0.539378464 0.538278968,7.01859326 0.538278968,15.0129511 C0.538278968,23.0072711 7.01749377,29.4870546 15.0113209,29.4870546 C23.0061716,29.4870546 29.4864859,23.0072711 29.4864859,15.0129511 C29.4864859,7.01859326 23.0061337,0.539378464 15.0113209,0.539378464 Z M24.3580206,11.3323322 L14.2258259,21.4639961 C14.16068,21.5275113 14.0804316,21.558842 14.0088408,21.6077211 C13.9589138,21.6803989 13.9296407,21.7622776 13.8645335,21.8257931 C13.5813542,22.1083901 13.2114027,22.2499786 12.8414148,22.2499786 C12.4703778,22.2499786 12.1004684,22.108428 11.8172496,21.8257931 L7.47530295,17.4838844 C6.91003322,16.9186146 6.91003322,16.0023783 7.47530295,15.4366384 C8.04057268,14.8714066 8.95731708,14.8714066 9.52258681,15.4366384 L12.8413427,18.7554323 L22.3106552,9.28558899 C22.8770131,8.72031926 23.7927073,8.72031926 24.3579391,9.28558899 C24.9232505,9.85078289 24.9232505,10.7670192 24.3580167,11.3323307 L24.3580206,11.3323322 Z" id="Shape"></path>
            </g>
        </g>
    </g>
</svg>