<?xml version="1.0" encoding="UTF-8"?>
<svg width="24px" height="17px" viewBox="0 0 24 17" version="1.1" xmlns="http://www.w3.org/2000/svg" xmlns:xlink="http://www.w3.org/1999/xlink">
    <!-- Generator: Sketch 57.1 (83088) - https://sketch.com -->
    <title>美国</title>
    <desc>Created with Sketch.</desc>
    <g id="Page-1" stroke="none" stroke-width="1" fill="none" fill-rule="evenodd">
        <g id="全球财经日历" transform="translate(-576.000000, -1029.000000)" fill-rule="nonzero">
            <g id="美国" transform="translate(576.000000, 1029.000000)">
                <polygon id="路径" fill="#FFFFFF" points="0.431955024 0.45938112 23.5242475 0.45938112 23.5242475 16.3354933 0.431955024 16.3354933"></polygon>
                <path d="M0.431955024,0.45938112 L23.5242475,0.45938112 L23.5242475,1.51383547 L0.431955024,1.51383547 L0.431955024,0.45938112 Z M0.431955024,2.58118046 L23.5242475,2.58118046 L23.5242475,3.63563482 L0.431955024,3.63563482 L0.431955024,2.58118046 Z M0.431955024,4.68751104 L23.5242475,4.68751104 L23.5242475,5.74196539 L0.431955024,5.74196539 L0.431955024,4.68751104 Z M0.431955024,6.80931038 L23.5242475,6.80931038 L23.5242475,7.86376474 L0.431955024,7.86376474 L0.431955024,6.80931038 Z M0.431955024,8.93110973 L23.5242475,8.93110973 L23.5242475,9.98556408 L0.431955024,9.98556408 L0.431955024,8.93110973 Z M0.431955024,11.0400184 L23.5242475,11.0400184 L23.5242475,12.0944728 L0.431955024,12.0944728 L0.431955024,11.0400184 Z M0.431955024,13.1618178 L23.5242475,13.1618178 L23.5242475,14.2162721 L0.431955024,14.2162721 L0.431955024,13.1618178 Z M0.431955024,15.2836171 L23.5242475,15.2836171 L23.5242475,16.3380715 L0.431955024,16.3380715 L0.431955024,15.2836171 Z" id="形状" fill="#D02F44"></path>
                <polygon id="路径" fill="#46467F" points="0.431955024 0.45938112 10.5356387 0.45938112 10.5356387 7.86376474 0.431955024 7.86376474"></polygon>
                <path d="M1.88859734,1.94696098 L1.52765942,2.22024254 L1.65656582,1.77164827 L1.2956279,1.48289794 L1.74422218,1.48289794 L1.88859734,1.03430366 L2.03297251,1.48289794 L2.48156678,1.48289794 L2.12062886,1.77164827 L2.24953526,2.22024254 L1.88859734,1.94696098 L1.88859734,1.94696098 Z M4.25789698,1.94696098 L3.89695906,2.22024254 L4.02586546,1.77164827 L3.66492754,1.48289794 L4.11352181,1.48289794 L4.25789698,1.03430366 L4.40227214,1.48289794 L4.85086642,1.48289794 L4.4899285,1.77164827 L4.6188349,2.22024254 L4.25789698,1.94696098 Z M6.63750912,1.94696098 L6.2765712,2.22024254 L6.4054776,1.77164827 L6.04453968,1.48289794 L6.49313395,1.48289794 L6.63750912,1.03430366 L6.78188429,1.48289794 L7.23047856,1.48289794 L6.86954064,1.77164827 L6.99844704,2.22024254 L6.63750912,1.94696098 Z M9.00423062,1.98821102 L8.6432927,2.26149259 L8.7721991,1.80000768 L8.41126118,1.51125734 L8.85985546,1.49578858 L9.00423062,1.03430366 L9.14860579,1.49578858 L9.59720006,1.51125734 L9.23626214,1.80000768 L9.36516854,2.26149259 L9.00423062,1.98821102 Z M2.8141453,3.18704054 L2.45320738,3.46032211 L2.58211378,3.01172784 L2.22117586,2.7229775 L2.66977013,2.7229775 L2.8141453,2.27438323 L2.95852046,2.7229775 L3.40711474,2.7229775 L3.04617682,3.01172784 L3.17508322,3.46032211 L2.8141453,3.18704054 Z M5.48250778,3.18704054 L5.12156986,3.46032211 L5.25047626,3.01172784 L4.88953834,2.7229775 L5.33813261,2.7229775 L5.48250778,2.27438323 L5.62688294,2.7229775 L6.07547722,2.7229775 L5.7145393,3.01172784 L5.8434457,3.46032211 L5.48250778,3.18704054 Z M8.13797962,3.18704054 L7.7770417,3.46032211 L7.9059481,3.01172784 L7.54501018,2.7229775 L7.99360445,2.7229775 L8.13797962,2.27438323 L8.28235478,2.7229775 L8.73094906,2.7229775 L8.37001114,3.01172784 L8.49891754,3.46032211 L8.13797962,3.18704054 Z M1.88859734,4.44258888 L1.52765942,4.71587045 L1.65656582,4.26727618 L1.2956279,3.97852584 L1.74422218,3.97852584 L1.88859734,3.52993157 L2.03297251,3.97852584 L2.48156678,3.97852584 L2.12062886,4.26727618 L2.24953526,4.71587045 L1.88859734,4.44258888 Z M4.25789698,4.44258888 L3.89695906,4.70297981 L4.02586546,4.25438554 L3.66492754,3.9656352 L4.11352181,3.9656352 L4.25789698,3.51704093 L4.40227214,3.9656352 L4.85086642,3.9656352 L4.4899285,4.25438554 L4.6188349,4.70297981 L4.25789698,4.44258888 Z M6.63750912,4.44258888 L6.2765712,4.71587045 L6.4054776,4.26727618 L6.04453968,3.97852584 L6.49313395,3.97852584 L6.63750912,3.52993157 L6.78188429,3.97852584 L7.23047856,3.97852584 L6.86954064,4.26727618 L6.99844704,4.71587045 L6.63750912,4.44258888 Z M9.00423062,4.47094829 L8.6432927,4.74422986 L8.7721991,4.28274494 L8.41126118,3.99399461 L8.85985546,3.97852584 L9.00423062,3.51704093 L9.14860579,3.97852584 L9.59720006,3.99399461 L9.23626214,4.28274494 L9.36516854,4.74422986 L9.00423062,4.47094829 Z M1.88859734,6.92532614 L1.52765942,7.19860771 L1.65656582,6.75001344 L1.2956279,6.4612631 L1.74422218,6.4612631 L1.88859734,6.01266883 L2.03297251,6.4612631 L2.48156678,6.4612631 L2.12062886,6.75001344 L2.24953526,7.19860771 L1.88859734,6.92532614 Z M4.25789698,6.92532614 L3.89695906,7.19860771 L4.02586546,6.75001344 L3.66492754,6.4612631 L4.11352181,6.4612631 L4.25789698,6.01266883 L4.40227214,6.4612631 L4.85086642,6.4612631 L4.4899285,6.75001344 L4.6188349,7.19860771 L4.25789698,6.92532614 Z M6.63750912,6.92532614 L6.2765712,7.19860771 L6.4054776,6.75001344 L6.04453968,6.4612631 L6.49313395,6.4612631 L6.63750912,6.01266883 L6.78188429,6.4612631 L7.23047856,6.4612631 L6.86954064,6.75001344 L6.99844704,7.19860771 L6.63750912,6.92532614 Z M9.00423062,6.96915432 L8.6432927,7.24243589 L8.7721991,6.78095098 L8.41126118,6.49220064 L8.85985546,6.47673187 L9.00423062,6.01524696 L9.14860579,6.47673187 L9.59720006,6.49220064 L9.23626214,6.78095098 L9.36516854,7.24243589 L9.00423062,6.96915432 Z M2.8141453,5.68524658 L2.45320738,5.95852814 L2.58211378,5.50993387 L2.22117586,5.22118354 L2.66977013,5.22118354 L2.8141453,4.77258926 L2.95852046,5.22118354 L3.40711474,5.22118354 L3.04617682,5.50993387 L3.17508322,5.95852814 L2.8141453,5.68524658 Z M5.48250778,5.68524658 L5.12156986,5.95852814 L5.25047626,5.50993387 L4.88953834,5.22118354 L5.33813261,5.22118354 L5.48250778,4.77258926 L5.62688294,5.22118354 L6.07547722,5.22118354 L5.7145393,5.50993387 L5.8434457,5.95852814 L5.48250778,5.68524658 Z M8.13797962,5.68524658 L7.7770417,5.95852814 L7.9059481,5.50993387 L7.54501018,5.22118354 L7.99360445,5.22118354 L8.13797962,4.77258926 L8.28235478,5.22118354 L8.73094906,5.22118354 L8.37001114,5.50993387 L8.49891754,5.95852814 L8.13797962,5.68524658 Z" id="形状" fill="#FFFFFF"></path>
            </g>
        </g>
    </g>
</svg>