<?xml version="1.0" encoding="UTF-8"?>
<svg width="24px" height="17px" viewBox="0 0 24 17" version="1.1" xmlns="http://www.w3.org/2000/svg" xmlns:xlink="http://www.w3.org/1999/xlink">
    <!-- Generator: Sketch 57.1 (83088) - https://sketch.com -->
    <title>英国</title>
    <desc>Created with Sketch.</desc>
    <g id="Page-1" stroke="none" stroke-width="1" fill="none" fill-rule="evenodd">
        <g id="全球财经日历" transform="translate(-576.000000, -1112.000000)" fill-rule="nonzero">
            <g id="英国" transform="translate(576.000000, 1112.000000)">
                <polygon id="路径" fill="#00237A" points="0.480939456 0.431021712 23.5500288 0.431021712 23.5500288 16.3561184 0.480939456 16.3561184"></polygon>
                <polygon id="路径" fill="#FFFFFF" points="23.5500288 6.02298134 14.2429867 6.02298134 14.2429867 0.431021712 9.71837208 0.431021712 9.71837208 6.02298134 0.480939456 6.02298134 0.480939456 10.769315 9.71837208 10.769315 9.71837208 16.3561184 14.2429867 16.3561184 14.2429867 10.769315 23.5500288 10.769315 23.5500288 6.02298134"></polygon>
                <polygon id="路径" fill="#FFFFFF" points="23.5500288 14.5411163 3.06937997 0.431021712 0.480939456 0.431021712 0.480939456 2.26664885 20.9435414 16.3561184 23.5500288 16.3561184 23.5500288 14.5411163"></polygon>
                <polygon id="路径" fill="#FFFFFF" points="0.480939456 14.5411163 20.9615883 0.43359984 23.5500288 0.43359984 23.5500288 2.26922698 3.08742686 16.3561184 0.480939456 16.3561184"></polygon>
                <polygon id="路径" fill="#CF142B" points="23.5500288 7.02071688 13.2916575 7.02071688 13.2916575 0.431021712 10.6671232 0.431021712 10.6671232 7.01813875 0.480939456 7.01813875 0.480939456 9.77157946 10.6671232 9.77157946 10.6671232 16.3561184 13.2916575 16.3561184 13.2916575 9.77415758 23.5500288 9.77415758"></polygon>
                <path d="M23.5500288,16.3561184 L23.5500288,15.1057263 L17.2026777,10.769315 L15.416035,10.769315 L23.5500288,16.3561184 L23.5500288,16.3561184 Z M23.5500288,0.431021712 L21.7633861,0.431021712 L14.2429867,5.55376205 L14.2429867,6.02298134 L15.3593161,6.02298134 L23.5500288,0.431021712 Z M8.54532384,10.769315 L0.480939456,16.3174464 L0.480939456,16.3561184 L2.19281645,16.3561184 L9.71579395,11.1998624 L9.71579395,10.769315 L8.54532384,10.769315 L8.54532384,10.769315 Z M0.480939456,0.431021712 L0.480939456,1.68141379 L6.79477493,6.02298134 L8.59946453,6.02298134 L0.480939456,0.431021712 L0.480939456,0.431021712 Z" id="形状" fill="#CF142B"></path>
            </g>
        </g>
    </g>
</svg>