<?xml version="1.0" encoding="UTF-8"?>
<svg width="24px" height="16px" viewBox="0 0 24 16" version="1.1" xmlns="http://www.w3.org/2000/svg" xmlns:xlink="http://www.w3.org/1999/xlink">
    <!-- Generator: Sketch 57.1 (83088) - https://sketch.com -->
    <title>日本</title>
    <desc>Created with Sketch.</desc>
    <g id="Page-1" stroke="none" stroke-width="1" fill="none" fill-rule="evenodd">
        <g id="全球财经日历" transform="translate(-576.000000, -1153.000000)" fill-rule="nonzero">
            <g id="日本" transform="translate(576.000000, 1153.000000)">
                <polygon id="路径" fill="#FFFFFF" points="0.50156448 0.137818944 23.4958881 0.137818944 23.4958881 15.4622118 0.50156448 15.4622118"></polygon>
                <path d="M0.50156448,0.137818944 L0.50156448,15.4622118 L23.4984662,15.4622118 L23.4984662,0.137818944 L0.50156448,0.137818944 Z M23.2406534,15.204399 L0.75937728,15.204399 L0.75937728,0.395631744 L23.2406534,0.395631744 L23.2406534,15.204399 Z" id="形状" fill="#000000"></path>
                <path d="M7.39805688,7.78970285 C7.39805688,10.3317371 9.45798115,12.3916613 12.0000154,12.3916613 C14.5420496,12.3916613 16.6019738,10.3317371 16.6019738,7.78970285 C16.6019738,5.24766864 14.5420496,3.18774437 12.0000154,3.18774437 C9.45798115,3.18774437 7.39805688,5.24766864 7.39805688,7.78970285 Z" id="路径" fill="#C01D3C"></path>
            </g>
        </g>
    </g>
</svg>