<?xml version="1.0" encoding="UTF-8"?>
<svg width="24px" height="16px" viewBox="0 0 24 16" version="1.1" xmlns="http://www.w3.org/2000/svg" xmlns:xlink="http://www.w3.org/1999/xlink">
    <!-- Generator: Sketch 57.1 (83088) - https://sketch.com -->
    <title>葡萄牙</title>
    <desc>Created with Sketch.</desc>
    <g id="Page-1" stroke="none" stroke-width="1" fill="none" fill-rule="evenodd">
        <g id="全球财经日历" transform="translate(-577.000000, -1071.000000)" fill-rule="nonzero">
            <g id="葡萄牙" transform="translate(577.000000, 1071.000000)">
                <polygon id="路径" fill="#FF0000" points="0 0 23.9999721 0 23.9999721 15.9999814 0 15.9999814"></polygon>
                <polygon id="路径" fill="#006600" points="0 0 9.59998883 0 9.59998883 15.9999814 0 15.9999814"></polygon>
                <path d="M12.7295789,10.4815816 C11.5211897,10.4451753 5.97999304,6.98639812 5.94199309,6.43558626 L6.24799273,5.92530561 C6.79758584,6.7239453 12.4623917,10.087707 13.0187817,9.96850403 L12.7295789,10.4814253" id="路径" fill="#FFFF00"></path>
                <path d="M6.18358655,5.85599319 C6.07519606,6.14775847 7.62955362,7.10871048 9.4997077,8.24614665 C11.3697836,9.38350471 12.9822974,10.0863945 13.1018285,9.98558213 C13.109141,9.97258215 13.1606253,9.8839885 13.1558909,9.884676 C13.1335003,9.91842596 13.0789848,9.92906657 12.9939068,9.90455097 C12.4886261,9.75883239 11.170862,9.15394247 9.53891078,8.164303 C7.9069908,7.1745854 6.4871487,6.26255521 6.26650833,5.87504004 C6.25114898,5.84819632 6.24019586,5.79919638 6.24244586,5.7611183 L6.23707087,5.76104017 L6.19007092,5.84314945 L6.18363343,5.85604006 L6.18358655,5.85604006 L6.18358655,5.85599319 Z M12.7579852,10.4975815 C12.7375164,10.5347846 12.6992977,10.5359877 12.6267041,10.5280346 C12.1747046,10.4780347 10.8031437,9.81103546 9.18022369,8.83950534 C7.29183526,7.70911603 5.7322277,6.67911723 5.90143063,6.40991442 L5.94747745,6.32855514 L5.95653994,6.33135201 C5.8043995,6.7875546 9.03447386,8.63447433 9.22462989,8.75222419 C11.0935808,9.91011347 12.6692196,10.5862689 12.8086726,10.4105504 L12.7579383,10.4977847 L12.7579383,10.4977065 L12.7579852,10.4975815 Z" id="形状" fill="#FFFF00"></path>
                <path d="M9.6067857,6.76919525 C10.8162687,6.75963276 12.3087826,6.60391419 13.1677191,6.26158646 L12.9826099,5.96093056 C12.474923,6.24193024 10.974206,6.42669565 9.59652008,6.45432061 C7.9671001,6.43932063 6.81692957,6.28760206 6.24066461,5.90093063 L6.06597732,6.22113339 C7.12533546,6.66941411 8.2108967,6.7646015 9.60677007,6.76925775" id="路径" fill="#FFFF00"></path>
                <path d="M13.2175784,6.26839896 C13.1880315,6.31568015 12.6278603,6.50883618 11.8026738,6.65139851 C11.2431432,6.73671091 10.5133003,6.8096327 9.60252008,6.8105077 C8.73719296,6.81130457 8.03030316,6.74972652 7.49514753,6.67719536 C6.62889854,6.54135176 6.18183656,6.35239886 6.0165555,6.28558644 C6.03235236,6.25418022 6.04255547,6.23211775 6.05775858,6.20278966 C6.53353927,6.39222694 6.98271062,6.50642993 7.50894439,6.58739858 C8.04055314,6.6593985 8.73894296,6.72186718 9.59994195,6.7210703 C10.5065034,6.72014843 11.2283463,6.64171102 11.78458,6.55894549 C12.6307822,6.4224769 13.093016,6.24678961 13.1579378,6.1652272 L13.2177034,6.26839896 L13.2176252,6.26839896 L13.2175784,6.26839896 Z M13.0552192,5.96347744 C12.9634693,6.03714922 12.5064698,6.19922716 11.702377,6.32763326 C11.1658151,6.40450817 10.4835503,6.47335184 9.61183257,6.47419559 C8.78367728,6.47499247 8.10703744,6.41919566 7.59242867,6.34422699 C6.77586712,6.23758649 6.341227,6.04522734 6.18458655,5.98914928 L6.18458655,5.98914924 C6.20021531,5.96212239 6.21613811,5.93526664 6.23235215,5.90858683 C6.35427388,5.96999301 6.77367964,6.14022718 7.60139743,6.2575083 C8.11019371,6.32963321 8.7878023,6.38339878 9.61186384,6.38255503 C10.4794722,6.38168003 11.153987,6.31150824 11.6871739,6.23503957 C12.4953917,6.12383658 12.9302662,5.91711807 12.9962974,5.86539938 L13.0552192,5.96339927 L13.0552192,5.96350864 L13.0552192,5.96347744 Z M5.63519657,8.22639668 C6.37910195,8.62650559 8.0313969,8.82814598 9.59494196,8.84202096 C11.0185809,8.84427096 12.8732663,8.62194309 13.5668123,8.25442789 L13.5477499,7.85395961 C13.3307501,8.19302172 11.3432212,8.51830259 9.57950448,8.5049901 C7.81578778,8.49167762 6.17799281,8.21927169 5.63204032,7.86663147 L5.63522782,8.22627168 L5.63519657,8.22639668 Z" id="形状" fill="#FFFF00"></path>
                <path d="M13.604781,8.16878737 L13.604781,8.26425601 C13.500578,8.38891211 12.8469851,8.57730252 12.0273454,8.70994299 C11.4035492,8.8055835 10.5902689,8.87775529 9.57687948,8.87775529 C8.6140681,8.87775529 7.84635024,8.80911475 7.25094469,8.71770861 C6.30975828,8.58063064 5.70775898,8.34063092 5.58694662,8.26903725 L5.58747787,8.15758426 C5.95047745,8.39894335 6.93391381,8.5754744 7.2641478,8.62950558 C7.85567836,8.72030235 8.61886497,8.78847415 9.57683261,8.78847415 C10.5854721,8.78847415 11.3941742,8.71678673 12.0140641,8.62178684 C12.6021103,8.53686507 13.4398281,8.31594345 13.604781,8.16881862 L13.604781,8.16881862 L13.604781,8.16878737 Z M13.6051873,7.82910026 L13.6051873,7.92458453 C13.5009843,8.04914688 12.8473757,8.23755291 12.0277516,8.37019339 C11.4039399,8.46581827 10.5906752,8.53799006 9.57727011,8.53799006 C8.61445873,8.53799006 7.84675649,8.46939639 7.25135094,8.37791213 C6.31014891,8.24094354 5.70814961,8.00094381 5.58735287,7.92927202 L5.5878685,7.8178659 C5.95086808,8.05919375 6.93430443,8.23575604 7.26455405,8.2897091 C7.85606898,8.380584 8.61927122,8.44875579 9.57722323,8.44875579 C10.5858627,8.44875579 11.3945805,8.37706838 12.0144704,8.28194349 C12.602501,8.19703734 13.4402187,7.97611572 13.6051873,7.82903776 L13.6051873,7.82911589 L13.6051873,7.82910026 Z M9.59159821,10.4128004 C7.88070958,10.4025973 6.41475816,9.94644155 6.10519602,9.87105101 L6.33091451,10.22441 C6.87771075,10.4544097 8.30786533,10.7972062 9.60798882,10.7592531 C10.9081436,10.7213156 12.0443922,10.620597 12.8451101,10.2308475 L13.0765785,9.8645979 C12.5309073,10.1215976 10.6738626,10.4101598 9.59158259,10.4128004 L9.59159821,10.4128004 Z" id="形状" fill="#FFFF00"></path>
                <path d="M12.931985,10.1547984 L12.931985,10.1547984 C12.8982542,10.2073978 12.8636346,10.2594006 12.8281413,10.3107836 C12.4504699,10.4463579 11.8553456,10.5887094 11.6042677,10.6301994 C11.0912996,10.7378379 10.2976755,10.8172862 9.59330133,10.817668 C8.07770934,10.7951094 6.83711704,10.4929864 6.25346147,10.2353125 L6.20635215,10.1528893 L6.21407089,10.1405123 L6.29391454,10.1720276 C7.33183521,10.5501307 8.4975526,10.7009455 9.60183257,10.7280381 C10.3033474,10.7305517 11.0056278,10.6461717 11.5735021,10.5427649 C12.4443449,10.365112 12.7964695,10.2312081 12.9045006,10.1705162 L12.931985,10.1547984 L12.931985,10.1547984 Z M13.1326722,9.81778758 L13.1352976,9.82092161 L13.1352976,9.82092099 C13.1094415,9.86539611 13.0832769,9.90968462 13.0568058,9.95378317 C12.8553998,10.0270907 12.3087285,10.1899007 11.5104482,10.3035687 C10.9844957,10.3765103 10.6575742,10.4471769 9.61129417,10.4678583 C7.6507027,10.4170776 6.38129793,10.0267566 6.07973578,9.93047687 L6.03504833,9.84320151 C7.17129701,10.1451972 8.33192066,10.3560357 9.6113723,10.3775284 C10.5685587,10.3567993 10.9758551,10.2850509 11.4974639,10.2125866 C12.428244,10.0652398 12.8972903,9.90922279 13.0380558,9.86418514 L13.0380558,9.86418514 C13.036126,9.86137233 13.0340664,9.85865418 13.0318839,9.85603986 L13.1328213,9.81766798 L13.1327276,9.81774752 L13.1326722,9.81778758 Z" id="形状" fill="#FFFF00"></path>
                <path d="M13.1532278,7.91039705 C13.1587503,9.03586449 12.5827822,10.0458321 12.1188609,10.491394 C11.4625492,11.1217527 10.592347,11.527221 9.57611386,11.5459084 C8.44130268,11.5667522 7.37130392,10.8269405 7.08430426,10.5019409 C6.52319553,9.86655102 6.06635232,9.05967696 6.05171171,7.9722251 C6.12124288,6.74386715 6.60342982,5.88822752 7.302429,5.30147821 C8.00142819,4.71472889 8.93214586,4.42894797 9.70726995,4.44940107 C10.6015814,4.4729948 11.6462677,4.91171303 12.3681106,5.78268077 C12.8410319,6.35330511 13.0458286,6.97258564 13.1532278,7.91039705 Z M9.58575447,4.05671403 C11.7651426,4.05671403 13.557578,5.83022759 13.557578,8.00483444 C13.557578,10.1793944 11.7651426,11.9529861 9.58575447,11.9529861 C7.40636638,11.9529861 5.62879033,10.1794257 5.62879033,8.00483444 C5.62879033,5.83024322 7.40635076,4.05671403 9.5857701,4.05671403 L9.58575447,4.05671403 Z" id="形状" fill="#FFFF00"></path>
                <path d="M9.59639508,4.0431828 C11.7777519,4.0431828 13.556828,5.82250885 13.556828,8.00406881 C13.556828,10.1855819 11.777705,11.9648611 9.59639508,11.9648611 C7.41503825,11.9648611 5.63594657,10.1856288 5.63594657,8.00408444 C5.63594657,5.8225401 7.4150695,4.0431828 9.59639508,4.0431828 L9.59639508,4.0431828 Z M5.72311834,8.00405319 C5.72311834,10.134457 7.4725538,11.8777362 9.59639508,11.8777362 C11.7202676,11.8777362 13.4697031,10.134457 13.4697031,8.00405319 C13.4697031,5.87358692 11.7202207,4.13030769 9.59639508,4.13030769 C7.47256943,4.13030769 5.72311834,5.87366504 5.72311834,8.00405319 L5.72311834,8.00405319 Z" id="形状" fill="#FFFF00"></path>
                <path d="M9.59958258,4.37240116 C11.5888303,4.37240116 13.2272971,6.00522739 13.2272971,8.00055319 C13.2272971,9.99591024 11.5887834,11.628674 9.59958258,11.628674 C7.61038177,11.628674 5.97186805,9.99591024 5.97186805,8.00055319 C5.97186805,6.00524301 7.61042864,4.37240116 9.59958258,4.37240116 Z M6.05899295,8.00052194 C6.05899295,9.9479103 7.65814734,11.5414553 9.59958258,11.5414553 C11.5410178,11.5414553 13.1401878,9.9479103 13.1401878,8.00052194 C13.1401878,6.05307108 11.5410647,4.45951044 9.59958258,4.45951044 C7.65814734,4.45951044 6.05899295,6.05310233 6.05899295,8.00050632 L6.05899295,8.00052194 Z" id="形状" fill="#FFFF00"></path>
                <polygon id="路径" fill="#FFFF00" points="9.75919177 4.02718281 9.41978591 4.02718281 9.42019216 11.9855798 9.76075427 11.9855798"></polygon>
                <path d="M10.1828791,3.98183912 L10.38669,3.98183912 L10.3883485,12.0318297 L10.1844639,12.0318297 L10.1829897,3.98183912 L10.1828791,3.98183912 Z M9.38834845,3.98191724 L9.59363353,3.98191724 L9.59392837,12.0319079 L9.38845902,12.0319079 L9.38845902,3.98191724 L9.38834845,3.98191724 Z" id="形状" fill="#FFFF00"></path>
                <polygon id="路径" fill="#FFFF00" points="13.559578 8.15739676 13.559578 7.86317835 13.3199845 7.63999111 11.9599861 7.27999153 9.99998836 7.07999176 7.63999111 7.19999162 5.95999306 7.59999116 5.62079033 7.85119399 5.62079033 8.1454749 6.47999246 7.75999097 8.51999009 7.43999134 10.4799878 7.43999134 11.9199861 7.59999116 12.919985 7.83999088"></polygon>
                <path d="M9.59798883,7.39078827 C10.5333002,7.38906953 11.4407992,7.47938192 12.1605796,7.61958488 C12.9033444,7.76806909 13.4260625,7.95380324 13.6047967,8.16239675 L13.6045779,8.26570913 C13.3890625,8.00611568 12.6856727,7.81578778 12.1438609,7.70699103 C11.4295492,7.56803807 10.528144,7.4783038 9.59798883,7.48003817 C8.61647435,7.48186629 7.70252229,7.57483494 6.99863248,7.71214728 C6.43383626,7.82422527 5.68058714,8.04686564 5.586556,8.26647476 L5.586556,8.15891238 C5.63819656,8.00691256 6.19907091,7.77975657 6.98591375,7.62222551 C7.69506917,7.48394442 8.61070873,7.39258515 9.59798883,7.39078827 Z M9.59839508,7.05110117 C10.5337065,7.0494293 11.4411898,7.13978857 12.1609858,7.2799134 C12.9037506,7.42842886 13.4264531,7.61411614 13.6051873,7.82272527 L13.6049842,7.92603765 C13.3894688,7.66647545 12.686079,7.47614755 12.1442671,7.36739768 C11.4299398,7.22835096 10.5285502,7.13863232 9.59839508,7.14042919 C8.61686497,7.14219481 7.70735041,7.23522596 7.0033981,7.37246017 C6.45835186,7.47583505 5.67435277,7.70727228 5.58691537,7.92686578 L5.58691537,7.81927215 C5.63855594,7.66886608 6.21078965,7.4335851 6.98630437,7.28258528 C7.69547542,7.14427294 8.61111498,7.05299179 9.59839508,7.0511168 L9.59839508,7.05110117 Z M9.57917635,5.31840006 C11.0531434,5.31104069 12.3387825,5.52447795 12.926985,5.8257901 L13.1415472,6.19694591 C12.6302978,5.92143061 11.2432994,5.63494657 9.58134823,5.67779027 C8.22719355,5.68611838 6.78025774,5.82686822 6.05432108,6.21419589 L6.31043016,5.78583702 C6.90624196,5.47686863 8.31130283,5.32011881 9.57922323,5.31847819 L9.57917635,5.31840006 Z" id="形状" fill="#FFFF00"></path>
                <path d="M9.59878571,5.62479033 C10.4394722,5.62255596 11.2517838,5.6699934 11.8978299,5.78655577 C12.4994698,5.89850876 13.0732192,6.06655544 13.1552659,6.15694596 L13.2188596,6.26935208 C13.0193442,6.13907098 12.5228604,5.99399303 11.8852987,5.87310254 C11.245065,5.75279018 10.4333004,5.71291523 9.59730133,5.71511835 C8.64842744,5.71186835 7.91122517,5.76194642 7.27855403,5.87227442 C6.60942981,5.9974774 6.14519597,6.17630531 6.03068048,6.26130521 L6.09299291,6.14250848 C6.31555515,6.02899298 6.66858599,5.89211814 7.2618978,5.78532139 C7.91619391,5.66579028 8.6612243,5.62994657 9.59883258,5.62479033 L9.59878571,5.62479033 Z M9.59842633,5.28543135 C10.4029566,5.28330635 11.1972995,5.32815005 11.8165019,5.43943117 C12.3048607,5.53450918 12.7878289,5.68294651 12.9646724,5.81504011 L13.0577036,5.96283681 C12.8995475,5.78704014 12.3042669,5.62043096 11.7787519,5.52714982 C11.1642995,5.42114994 10.402941,5.37922812 9.59844196,5.37250937 C8.75411481,5.37491562 7.97383447,5.42658744 7.3683508,5.53683731 C6.79071085,5.6467903 6.41794566,5.77691515 6.26022709,5.87855566 L6.3420395,5.75507143 C6.55967987,5.64050906 6.91130446,5.53527481 7.35414769,5.44922803 C7.96411573,5.33815004 8.74919294,5.28779072 9.59847321,5.28543135 L9.59842633,5.28543135 Z M11.5659865,9.65039502 C10.8372686,9.51439518 10.1072382,9.4945827 9.59730133,9.50058269 C7.14103857,9.52939516 6.34755511,10.0049884 6.25071148,10.1489882 L6.06711794,9.84970729 C6.69250784,9.39642657 8.03008441,9.14222374 9.61062944,9.16822371 C10.4313472,9.18166119 11.1395808,9.2361455 11.7353926,9.35155162 L11.5659397,9.65045752 L11.5659865,9.65039502 Z" id="形状" fill="#FFFF00"></path>
                <path d="M9.58319197,9.45839524 C10.2664724,9.46858273 10.9371435,9.49678582 11.5845021,9.61750443 L11.5376272,9.70031684 C10.9363779,9.58930134 10.2954411,9.54683264 9.58550447,9.55031701 C8.6789899,9.54319202 7.76211597,9.6278638 6.9638669,9.85694166 C6.71199219,9.92706657 6.29503955,10.0889414 6.25250835,10.222785 L6.20586778,10.1458632 C6.21930526,10.0668008 6.47130497,9.90267598 6.94242942,9.77026988 C7.85675648,9.50847331 8.71203674,9.46430149 9.58322322,9.45830149 L9.58322322,9.45839524 L9.58319197,9.45839524 Z M9.61419194,9.11455189 C10.322113,9.127755 11.0531903,9.16050497 11.7637832,9.30127043 L11.7149864,9.38739533 C11.0732996,9.2600361 10.460191,9.21755177 9.61839506,9.20458304 C8.70898987,9.20627054 7.74435036,9.27111421 6.86727326,9.52606704 C6.58407046,9.60858257 6.09539916,9.78686361 6.07911793,9.92806657 L6.03247736,9.84547292 C6.04307109,9.71722307 6.46614873,9.54994201 6.84678891,9.43922339 C7.73063163,9.18227057 8.69778675,9.11619252 9.61422319,9.11453627 L9.61419194,9.11455189 Z" id="形状" fill="#FFFF00"></path>
                <polygon id="路径" fill="#FFFF00" points="13.1031879 9.89519161 12.808032 10.3531598 11.9599861 9.59998883 9.75998864 8.11999055 7.27999153 6.75999213 5.99239928 6.3195864 6.26678958 5.81079011 6.3599926 5.7599933 7.15999167 5.95999306 9.7999886 7.31999148 11.3199868 8.27999037 12.5999853 9.19998929 13.1199847 9.7999886"></polygon>
                <path d="M5.94599308,6.33158638 C6.17183657,6.17839906 7.83155339,6.91778883 9.56817637,7.96494386 C11.3002212,9.01509888 12.9552662,10.201785 12.8058601,10.4238629 L12.7567508,10.501144 L12.7341883,10.5189565 C12.7389852,10.5154721 12.763907,10.4850347 12.7317821,10.4027066 C12.6579384,10.1598944 11.4839398,9.22306739 9.5359889,8.04691251 C7.63699111,6.91450758 6.0543992,6.23207087 5.89611814,6.42714877 L5.94599308,6.33155513 L5.94599308,6.33158638 Z M13.1635784,9.88867599 C13.3063908,9.60658257 11.7669394,8.44691205 9.85830103,7.31778836 C7.9058033,6.21114902 6.49855494,5.55975916 6.24150836,5.7539933 L6.1843442,5.85799318 C6.18391468,5.86368068 6.18647718,5.85086819 6.19855529,5.8415557 C6.24527398,5.80075888 6.32275827,5.80355575 6.35771135,5.80286825 C6.80030459,5.80950886 8.06439687,6.39127381 9.83794168,7.40799138 C10.6150658,7.8605846 13.1207816,9.46762961 13.1112191,9.91958221 C13.1119066,9.95839466 13.1144222,9.96639465 13.0998129,9.98562901 L13.1635784,9.88870724 L13.1635784,9.88862912 L13.1635784,9.88867599 Z" id="形状" fill="#FFFF00"></path>
                <path d="M7.22399159,8.44039643 C7.22399159,9.0912238 7.49050691,9.67986374 7.92227203,10.110082 C8.35486528,10.5411752 8.94273959,10.8132218 9.59462946,10.8132218 C10.2498631,10.8132218 10.844503,10.5471127 11.2752525,10.1176757 C11.7060333,9.68826998 11.9729861,9.09558317 11.9731111,8.44247455 L11.9730329,8.44247455 L11.9730329,5.27491574 L7.22342909,5.26927512 L7.22389784,8.44039643 L7.22399159,8.44039643 L7.22399159,8.44039643 Z" id="路径" fill="#FFFFFF"></path>
                <path d="M7.31280399,8.44478705 L7.31280399,8.44658392 C7.31280399,9.06886445 7.57042869,9.63555129 7.98378758,10.0469414 C8.39794335,10.4591441 8.96834894,10.715425 9.59234821,10.715425 C10.2195819,10.715425 10.7888312,10.4610347 11.2012213,10.0503946 C11.613549,9.63978566 11.8691112,9.07306757 11.8691893,8.44863079 L11.8691112,8.44863079 L11.8691112,5.37558749 L7.31552274,5.3748375 L7.31271024,8.4447558 L7.31280399,8.44478705 Z M10.953581,6.29486768 L10.9537373,8.25050602 L10.9521123,8.45738078 C10.9521123,8.51183385 10.9488623,8.57386502 10.9425029,8.62670871 C10.9055029,8.93591148 10.7633,9.20539554 10.5527065,9.41503592 C10.3061443,9.66047313 9.9658634,9.81270733 9.59083259,9.81270733 C9.2177549,9.81270733 8.88522404,9.65519189 8.63763057,9.4087078 C8.38367774,9.1558956 8.23642792,8.809271 8.23642792,8.45083392 L8.23595917,6.28989893 L10.9535498,6.29478955 L10.9536279,6.29486768 L10.953581,6.29486768 Z" id="形状" fill="#FF0000"></path>
                <path d="M7.6075849,6.17718031 C7.61299114,5.95635244 7.76967846,5.90407125 7.77078783,5.90329836 C7.77194408,5.90255563 7.94006889,5.95958682 7.93950779,6.17924281 L7.6075849,6.17719594" id="路径" fill="#FFFF00"></path>
                <path d="M7.49623801,5.91098921 L7.45885843,6.70663968 L7.68574775,6.70776625 C7.68793144,6.04945904 7.9036026,5.93998607 7.90882632,5.94248412 C7.91375032,5.94184736 8.12743047,6.08795825 8.13312518,6.70776625 L8.36063535,6.70776625 L8.31953066,5.90599313 L7.49623801,5.9107443 L7.49623801,5.91098921 L7.49623801,5.91098921 Z M7.44361544,6.70977448 L8.37236732,6.70977448 C8.39193486,6.70977448 8.40799138,6.75400449 8.40799138,6.80807973 C8.40799138,6.86195904 8.39193486,6.90599313 8.37236732,6.90599313 L7.44361544,6.90599313 C7.4240479,6.90599313 7.40799138,6.86210598 7.40799138,6.80803075 C7.40799138,6.75400449 7.4240479,6.70977448 7.44361544,6.70977448 L7.44361544,6.70977448 Z" id="形状" fill="#FFFF00"></path>
                <path d="M7.79069551,6.4345093 C7.79172283,6.25215358 7.92000297,6.20057105 7.92069529,6.20067839 C7.92069529,6.20067839 8.05460332,6.25385221 8.05563064,6.4345093 L7.79069551,6.4345093 L7.79069551,6.4345093 Z M7.4590967,5.94020725 L8.38785477,5.94020725 C8.40739605,5.94020725 8.42347574,5.96277448 8.42347574,5.99024883 C8.42347574,6.01769546 8.40746305,6.04020725 8.38785477,6.04020725 L7.4590967,6.04020725 C7.43953309,6.04020725 7.42347574,6.01786181 7.42347574,5.99024883 C7.42347574,5.9628022 7.43948842,5.94020725 7.4590967,5.94020725 Z M7.47852632,6.01836584 L8.36686185,6.01836584 C8.38555448,6.01836584 8.40087485,6.04089011 8.40087485,6.06835197 C8.40087485,6.09592479 8.38555448,6.11836584 8.36686185,6.11836584 L7.47852632,6.11836584 C7.45983369,6.11836584 7.44451332,6.09589705 7.44451332,6.06835197 C7.44451332,6.04089011 7.45983369,6.01836584 7.47852632,6.01836584 L7.47852632,6.01836584 Z M7.76552634,5.43545537 L7.83567396,5.43556288 L7.83567396,5.48351162 L7.88686096,5.48351162 L7.88686096,5.4345093 L7.95870588,5.43472432 L7.95870588,5.48355463 L8.01000454,5.48355463 L8.01000454,5.43457381 L8.08191645,5.43457381 L8.08180479,5.54519994 C8.08180479,5.5626593 8.06728841,5.57388317 8.05042707,5.57388317 L7.7982887,5.57388317 C7.7813157,5.57388317 7.76568267,5.56083165 7.76559334,5.54494191 L7.76541468,5.43549838 L7.76548168,5.43549838 L7.76552634,5.43545537 Z M8.02965748,5.58351592 L8.04551384,5.93861612 L7.79949468,5.93777756 L7.81579769,5.58256985 L8.02965748,5.58351592 L8.02965748,5.58351592 Z M7.72950338,5.74811126 L7.73700724,5.93954069 L7.50117188,5.9396052 L7.50780474,5.74811126 L7.72957038,5.74811126 L7.72950338,5.74811126 L7.72950338,5.74811126 Z M7.46423327,5.60938244 L7.53283992,5.60955445 L7.53283992,5.6575462 L7.58297727,5.6575462 L7.58297727,5.60847937 L7.65330355,5.60869439 L7.65330355,5.6576322 L7.70355256,5.6576322 L7.70355256,5.60847937 L7.77387885,5.60858688 L7.77376718,5.71932052 C7.77376718,5.73662937 7.75951879,5.74785324 7.74312645,5.74785324 L7.4963033,5.74785324 C7.4797323,5.74785324 7.46436727,5.73490923 7.46430027,5.71895499 L7.46416627,5.60946845 L7.46423327,5.60938244 Z" id="形状" fill="#FFFF00"></path>
                <path d="M8.32457891,5.67485312 C8.31853929,5.58284281 8.52695141,5.58186885 8.52442739,5.67485312 L8.52442739,5.90012369 L8.32457891,5.90012369 L8.32457891,5.67485312 M7.54288265,6.00187357 C7.54212624,5.9130143 7.74540988,5.91123826 7.74276246,6.00187357 L7.74276246,6.17604004 L7.5427881,6.17604004 L7.5427881,6.00187357" id="形状" fill="#000000"></path>
                <path d="M9.30542667,8.09624058 L9.30542667,8.09642808 C9.30542667,8.18491235 9.33942663,8.26550601 9.39391094,8.32403719 C9.44850463,8.38267775 9.52370767,8.4191152 9.60598882,8.4191152 C9.68867623,8.4191152 9.76375426,8.38291212 9.81811358,8.32450594 C9.87242601,8.26614663 9.9061916,8.1856311 9.9061916,8.09678745 L9.9061916,7.66608483 L9.3065048,7.66556921 L9.30539542,8.0961937" id="路径" fill="#003399"></path>
                <path d="M9.38350471,7.90319999 L9.38350471,7.90320001 C9.38350471,7.97679101 9.44243734,8.03644812 9.51513464,8.03644812 C9.58783194,8.03644812 9.64676458,7.97679101 9.64676458,7.90320001 L9.64676458,7.90320001 C9.64676458,7.82960902 9.58783194,7.76995191 9.51513464,7.76995191 C9.44243734,7.76995191 9.38350471,7.82960902 9.38350471,7.90320001 L9.38350471,7.90319999 Z M10.1202448,7.90383042 L10.1202448,7.90383044 C10.1202448,7.97742143 10.1791775,8.03707855 10.2518748,8.03707855 C10.3245721,8.03707855 10.3835047,7.97742143 10.3835047,7.90383044 L10.3835047,7.90383044 C10.3835047,7.83023945 10.3245721,7.77058233 10.2518748,7.77058233 C10.1791775,7.77058233 10.1202448,7.83023945 10.1202448,7.90383044 L10.1202448,7.90383042 Z M9.7511828,8.26184387 L9.7511828,8.26184387 C9.7511828,8.33542505 9.81010783,8.39507446 9.88279544,8.39507446 C9.95548305,8.39507446 10.0144081,8.33542505 10.0144081,8.26184387 C10.0144081,8.26184386 10.0144081,8.26184385 10.0144081,8.26184384 L10.0144081,8.26184382 C10.0144081,8.18826263 9.95548305,8.12861322 9.88279544,8.12861322 C9.81010783,8.12861322 9.7511828,8.18826263 9.7511828,8.26184382 C9.7511828,8.26184383 9.7511828,8.26184384 9.7511828,8.26184385 L9.7511828,8.26184387 Z M9.38350471,8.63670378 L9.38350471,8.6367038 C9.38350471,8.71029479 9.44243734,8.76995191 9.51513464,8.76995191 C9.58783194,8.76995191 9.64676458,8.71029479 9.64676458,8.6367038 L9.64676458,8.6367038 C9.64676458,8.5631128 9.58783194,8.50345569 9.51513464,8.50345569 C9.44243734,8.50345569 9.38350471,8.5631128 9.38350471,8.6367038 L9.38350471,8.63670378 Z M10.1194491,8.63572311 L10.1194491,8.63572313 C10.1194491,8.70931412 10.1783817,8.76897124 10.251079,8.76897124 C10.3237763,8.76897124 10.3827089,8.70931412 10.3827089,8.63572313 L10.3827089,8.63572313 C10.3827089,8.56213214 10.3237763,8.50247502 10.251079,8.50247502 C10.1783817,8.50247502 10.1194491,8.56213214 10.1194491,8.63572313 L10.1194491,8.63572311 Z" id="形状" fill="#FFFFFF"></path>
            </g>
        </g>
    </g>
</svg>