<?xml version="1.0" encoding="UTF-8"?>
<svg width="26px" height="13px" viewBox="0 0 26 13" version="1.1" xmlns="http://www.w3.org/2000/svg" xmlns:xlink="http://www.w3.org/1999/xlink">
    <!-- Generator: Sketch 57.1 (83088) - https://sketch.com -->
    <title>箭头</title>
    <desc>Created with Sketch.</desc>
    <g id="Page-1" stroke="none" stroke-width="1" fill="none" fill-rule="evenodd">
        <g id="全球财经日历" transform="translate(-396.000000, -859.000000)" fill="#000000">
            <g id="箭头" transform="translate(409.000000, 865.500000) scale(-1, 1) translate(-409.000000, -865.500000) translate(396.000000, 859.000000)">
                <path d="M19.5327355,13 C19.4114917,13 19.2896291,12.9640864 19.189642,12.8905846 C18.9644864,12.7250659 18.935728,12.4315797 19.1253426,12.2350794 L24.7711906,6.38467991 L19.3859023,0.763628432 C19.1970757,0.566532008 19.227051,0.273157046 19.4528666,0.108326707 C19.6786822,-0.0564661983 20.0148052,-0.0303033389 20.2036324,0.166793267 L25.8758799,6.08735455 C26.0418307,6.26057705 26.0413189,6.51277223 25.8746647,6.68547284 L19.9406708,12.8344735 C19.835246,12.9437213 19.6844958,13 19.5327445,13 L19.5327355,13 Z" id="路径" fill-rule="nonzero"></path>
                <rect id="矩形" x="0" y="6" width="25" height="1"></rect>
            </g>
        </g>
    </g>
</svg>