<?xml version="1.0" encoding="UTF-8"?>
<svg width="100px" height="100px" viewBox="0 0 100 100" version="1.1" xmlns="http://www.w3.org/2000/svg" xmlns:xlink="http://www.w3.org/1999/xlink">
    <!-- Generator: Sketch 57.1 (83088) - https://sketch.com -->
    <title>编组 3</title>
    <desc>Created with Sketch.</desc>
    <g id="Page-1" stroke="none" stroke-width="1" fill="none" fill-rule="evenodd">
        <g id="大宗商品" transform="translate(-1037.000000, -906.000000)" fill="#00A651" fill-rule="nonzero">
            <g id="编组-3" transform="translate(1037.000000, 906.000000)">
                <circle id="Oval" opacity="0.1" cx="50" cy="50" r="50"></circle>
                <g id="产品" transform="translate(30.000000, 30.000000)">
                    <g id="Group" transform="translate(0.750003, 0.750003)">
                        <path d="M36.1238702,38.4613729 L30.8515984,38.4613729 C29.5625344,38.4613729 28.5140957,37.4129342 28.5140957,36.1238702 L28.5140957,31.904334 C28.5140957,30.61527 29.5625344,29.5668313 30.8515984,29.5668313 L36.1238702,29.5668313 C37.4129342,29.5668313 38.4613729,30.61527 38.4613729,31.904334 L38.4613729,36.1238702 C38.4613729,37.4129342 37.4129342,38.4613729 36.1238702,38.4613729 Z M31.079333,35.9004324 L35.9004324,35.9004324 L35.9004324,32.1363655 L31.079333,32.1363655 L31.079333,35.9004324 Z M7.6484464,24.7500288 L2.37617464,24.7500288 C1.08711064,24.7500288 0.03867192,23.7015901 0.03867192,22.4125261 L0.03867192,17.1402543 C0.03867192,15.8511903 1.08711064,14.8027516 2.37617464,14.8027516 L7.6484464,14.8027516 C8.9375104,14.8027516 9.98594912,15.8511903 9.98594912,17.1402543 L9.98594912,22.4125261 C9.98594912,23.7015901 8.9375104,24.7500288 7.6484464,24.7500288 Z M2.5996124,22.1890883 L7.42071176,22.1890883 L7.42071176,17.367989 L2.5996124,17.367989 L2.5996124,22.1890883 Z M36.1238702,23.6972932 L30.8515984,23.6972932 C29.5625344,23.6972932 28.5140957,22.6488545 28.5140957,21.3597905 L28.5140957,17.1402543 C28.5140957,15.8511903 29.5625344,14.8027516 30.8515984,14.8027516 L36.1238702,14.8027516 C37.4129342,14.8027516 38.4613729,15.8511903 38.4613729,17.1402543 L38.4613729,21.3597905 C38.4613729,22.6488545 37.4129342,23.6972932 36.1238702,23.6972932 Z M31.079333,21.1320558 L35.9004324,21.1320558 L35.9004324,17.367989 L31.079333,17.367989 L31.079333,21.1320558 Z M36.1238702,8.92891664 L30.8515984,8.92891664 C29.5625344,8.92891664 28.5140957,7.88047792 28.5140957,6.59141392 L28.5140957,2.37187776 C28.5140957,1.08281376 29.5625344,0.03437504 30.8515984,0.03437504 L36.1238702,0.03437504 C37.4129342,0.03437504 38.4613729,1.08281376 38.4613729,2.37187776 L38.4613729,6.59141392 C38.4613729,7.88047792 37.4129342,8.92891664 36.1238702,8.92891664 Z M31.079333,6.36797616 L35.9004324,6.36797616 L35.9004324,2.60390928 L31.079333,2.60390928 L31.079333,6.36797616 Z" id="Shape"></path>
                        <polygon id="Shape" points="9.94298032 17.8535364 28.5613614 17.8535364 28.5613614 20.6465084 9.94298032 20.6465084"></polygon>
                        <path d="M29.7344096,32.9141008 L21.5703376,32.9141008 C20.8140867,32.9141008 20.195336,32.2953501 20.195336,31.5390992 L20.195336,6.9609456 C20.195336,6.20469472 20.8140867,5.585944 21.5703376,5.585944 L29.7344096,5.585944 L29.7344096,2.8359408 L20.195336,2.8359408 C18.6785374,2.8359408 17.4453328,4.06914536 17.4453328,5.585944 L17.4453328,32.9141008 C17.4453328,34.4308994 18.6785374,35.664104 20.195336,35.664104 L29.7344096,35.664104 L29.7344096,32.9141008 Z" id="Shape"></path>
                    </g>
                </g>
            </g>
        </g>
    </g>
</svg>