<?xml version="1.0" encoding="UTF-8"?>
<svg width="100px" height="100px" viewBox="0 0 100 100" version="1.1" xmlns="http://www.w3.org/2000/svg" xmlns:xlink="http://www.w3.org/1999/xlink">
    <!-- Generator: Sketch 57.1 (83088) - https://sketch.com -->
    <title>编组 4</title>
    <desc>Created with Sketch.</desc>
    <g id="Page-1" stroke="none" stroke-width="1" fill="none" fill-rule="evenodd">
        <g id="大宗商品" transform="translate(-1037.000000, -1056.000000)" fill="#00A651" fill-rule="nonzero">
            <g id="编组-4" transform="translate(1037.000000, 1056.000000)">
                <circle id="Oval" opacity="0.1" cx="50" cy="50" r="50"></circle>
                <g id="低谷" transform="translate(28.000000, 38.000000)">
                    <path d="M41.2513396,23.4562913 C40.7266906,23.4562913 40.2020415,23.2453535 39.8191895,22.823478 L23.8528428,5.22658255 L13.7379873,15.2578442 C12.986463,16.0031576 11.7670084,16.0031576 11.0154841,15.2578442 L1.38746511,5.71408311 C0.6359408,4.96876975 0.6359408,3.75939334 1.38746511,3.01407997 C2.13898942,2.2687666 3.35844397,2.2687666 4.10996828,3.01407997 L12.3767357,11.2078395 L22.5672163,1.10157775 C22.9406152,0.731264815 23.446358,0.534389585 23.9804602,0.543764596 C24.5098358,0.557827113 25.0061254,0.78751488 25.360618,1.17657783 L42.6834897,20.2687875 C43.3924749,21.051601 43.3310295,22.2609774 42.5416927,22.9641032 C42.1682938,23.2922286 41.7098167,23.4562913 41.2513396,23.4562913 L41.2513396,23.4562913 Z M41.2513396,23.4562913 L27.7758943,23.4562913 C26.7124165,23.4562913 25.8521811,22.6031653 25.8521811,21.5484765 C25.8521811,20.4937878 26.7124165,19.6406618 27.7758943,19.6406618 L39.3276264,19.6406618 L39.3276264,8.17971098 C39.3276264,7.12502225 40.1878618,6.27189626 41.2513396,6.27189626 C42.3148174,6.27189626 43.1750528,7.12502225 43.1750528,8.17971098 L43.1750528,21.543789 C43.1750528,22.6031653 42.3148174,23.4562913 41.2513396,23.4562913 L41.2513396,23.4562913 Z" id="Shape"></path>
                </g>
            </g>
        </g>
    </g>
</svg>