<?xml version="1.0" encoding="UTF-8"?>
<svg width="100px" height="100px" viewBox="0 0 100 100" version="1.1" xmlns="http://www.w3.org/2000/svg" xmlns:xlink="http://www.w3.org/1999/xlink">
    <!-- Generator: Sketch 57.1 (83088) - https://sketch.com -->
    <title>编组 5</title>
    <desc>Created with Sketch.</desc>
    <g id="Page-1" stroke="none" stroke-width="1" fill="none" fill-rule="evenodd">
        <g id="大宗商品" transform="translate(-360.000000, -1056.000000)" fill="#00A651" fill-rule="nonzero">
            <g id="编组-5" transform="translate(360.000000, 1056.000000)">
                <circle id="Oval" opacity="0.1" cx="50" cy="50" r="50"></circle>
                <g id="组合" transform="translate(29.000000, 30.000000)">
                    <g id="Group" transform="translate(0.000000, 0.899201)">
                        <path d="M37.9969192,37.6192892 L19.4250226,37.6192892 C17.19377,37.6192892 15.4218929,35.8535859 15.4218929,33.6301077 L15.4218929,25.3901591 C15.4218929,24.6707985 16.0125186,24.0822308 16.7343945,24.0822308 C17.4562703,24.0822308 18.046896,24.6707985 18.046896,25.3901591 L18.046896,33.6301077 C18.046896,34.4148647 18.6375217,35.0034325 19.4250226,35.0034325 L37.9969192,35.0034325 C38.7844201,35.0034325 39.3750458,34.4148647 39.3750458,33.6301077 L39.3750458,15.1229216 C39.3750458,14.3381646 38.7844201,13.7495968 37.9969192,13.7495968 L18.900022,13.7495968 C18.3750214,13.7495968 17.9812709,14.1419753 17.9812709,14.6651466 L17.9812709,18.9159138 C17.9812709,19.6352744 17.3906452,20.2238421 16.6687694,20.2238421 C15.9468936,20.2238421 15.3562679,19.6352744 15.3562679,18.9159138 L15.3562679,14.6651466 C15.3562679,12.7032541 16.9312697,11.1337401 18.900022,11.1337401 L37.9969192,11.1337401 C40.2281718,11.1337401 42.0000489,12.8994434 42.0000489,15.1229216 L42.0000489,33.6301077 C42.0000489,35.8535859 40.2281718,37.6192892 37.9969192,37.6192892 Z" id="Shape"></path>
                        <path d="M4.00312966,26.5018982 C1.77187706,26.5018982 0,24.7361949 0,22.5127167 L0,4.00553058 C0,1.78205238 1.77187706,0.0163491044 4.00312966,0.0163491044 L22.5750263,0.0163491044 C24.8062789,0.0163491044 26.5781559,1.78205238 26.5781559,4.00553058 L26.5781559,12.2454792 C26.5781559,12.9648398 25.9875302,13.5534075 25.2656544,13.5534075 C24.5437786,13.5534075 23.9531529,12.9648398 23.9531529,12.2454792 L23.9531529,4.00553058 C23.9531529,3.22077356 23.3625272,2.63220581 22.5750263,2.63220581 L4.00312966,2.63220581 C3.21562874,2.63220581 2.62500305,3.28616998 2.62500305,4.00553058 L2.62500305,22.5127167 C2.62500305,23.2974738 3.21562874,23.8860415 4.00312966,23.8860415 L23.1000269,23.8860415 C23.6250275,23.8860415 24.0187779,23.493663 24.0187779,22.9704917 L24.0187779,18.7197245 C24.0187779,18.0003639 24.6094036,17.4117962 25.3312795,17.4117962 C26.0531553,17.4117962 26.643781,18.0003639 26.643781,18.7197245 L26.643781,22.9704917 C26.643781,24.9323842 25.0687792,26.5018982 23.1000269,26.5018982 L4.00312966,26.5018982 Z" id="Shape"></path>
                    </g>
                </g>
            </g>
        </g>
    </g>
</svg>