<?xml version="1.0" encoding="UTF-8"?>
<svg width="100px" height="100px" viewBox="0 0 100 100" version="1.1" xmlns="http://www.w3.org/2000/svg" xmlns:xlink="http://www.w3.org/1999/xlink">
    <!-- Generator: Sketch 57.1 (83088) - https://sketch.com -->
    <title>1</title>
    <desc>Created with Sketch.</desc>
    <g id="Page-1" stroke="none" stroke-width="1" fill="none" fill-rule="evenodd">
        <g id="外汇交易" transform="translate(-360.000000, -892.000000)" fill="#00A651" fill-rule="nonzero">
            <g id="1" transform="translate(360.000000, 892.000000)">
                <circle id="Oval" opacity="0.1" cx="50" cy="50" r="50"></circle>
                <g id="收益率点差1" transform="translate(30.000000, 26.000000)">
                    <path d="M9.57753907,32.6130612 L5.55703439,32.6130612 C4.89703363,32.6130612 4.35253299,33.4160622 4.35253299,34.4115633 L4.35253299,45.1915759 C4.35253299,46.170577 4.89703363,46.9735779 5.55703439,46.9735779 L9.58303908,46.9735779 C10.2430398,46.9735779 10.7820405,46.170577 10.7820405,45.1915759 L10.7820405,34.4115633 C10.7820405,33.4160622 10.2375398,32.6130612 9.57753907,32.6130612 Z M23.234055,24.8635522 L19.2190503,24.8635522 C18.5590495,24.8635522 18.0090489,25.6830532 18.0090489,26.6895543 L18.0090489,45.2685759 C18.0090489,46.2860771 18.5590495,47.0890781 19.2190503,47.0890781 L23.234055,47.0890781 C23.8885557,47.0890781 24.4440564,46.2860771 24.4440564,45.2685759 L24.4440564,26.6895543 C24.4440564,25.6830532 23.8885557,24.8635522 23.234055,24.8635522 Z M32.2595655,0.911024333 L34.7235683,3.38052721 L21.2375526,15.7500416 L13.8840441,8.33603297 L0.403528397,20.6945474 L2.85653125,23.1695502 L13.8840441,13.2750387 L21.2375526,20.6945474 L37.1655712,5.86103009 L39.602074,8.33603297 L39.602074,0.911024333 L32.2595655,0.911024333 L32.2595655,0.911024333 Z M37.039071,17.8950441 L33.0295664,17.8950441 C32.3640656,17.8950441 31.819565,18.7255451 31.819565,19.7375462 L31.819565,44.8285754 C31.819565,45.8515766 32.3640656,46.6875776 33.0295664,46.6875776 L37.039071,46.6875776 C37.7045718,46.6875776 38.2490724,45.8515766 38.2490724,44.8285754 L38.2490724,19.7375462 C38.2435724,18.7255451 37.7045718,17.8950441 37.039071,17.8950441 Z" id="Shape"></path>
                </g>
            </g>
        </g>
    </g>
</svg>