<?xml version="1.0" encoding="UTF-8"?>
<svg width="100px" height="100px" viewBox="0 0 100 100" version="1.1" xmlns="http://www.w3.org/2000/svg" xmlns:xlink="http://www.w3.org/1999/xlink">
    <!-- Generator: Sketch 57.1 (83088) - https://sketch.com -->
    <title>2</title>
    <desc>Created with Sketch.</desc>
    <g id="Page-1" stroke="none" stroke-width="1" fill="none" fill-rule="evenodd">
        <g id="外汇交易" transform="translate(-760.000000, -892.000000)" fill="#00A651" fill-rule="nonzero">
            <g id="2" transform="translate(760.000000, 892.000000)">
                <circle id="Oval" opacity="0.1" cx="50" cy="50" r="50"></circle>
                <g id="杠杆交易" transform="translate(26.000000, 34.000000)">
                    <path d="M8.99790453,24.2481078 C5.13214855,24.2481078 1.99955319,21.1155125 1.99955319,17.2497565 C1.99955319,13.3840005 5.13214855,10.2514052 8.99790453,10.2514052 C12.8636605,10.2514052 15.9962559,13.3840005 15.9962559,17.2497565 C15.9962559,21.1155125 12.8636605,24.2481078 8.99790453,24.2481078 Z M8.99790453,11.9176793 C6.06526206,11.9176793 3.66582732,14.317114 3.66582732,17.2497565 C3.66582732,20.182399 6.06526206,22.5818337 8.99790453,22.5818337 C11.930547,22.5818337 14.3299817,20.182399 14.3299817,17.2497565 C14.3299817,14.317114 11.930547,11.9176793 8.99790453,11.9176793 L8.99790453,11.9176793 Z M32.992252,16.249992 C28.676602,16.249992 25.1607636,12.7341536 25.1607636,8.41850361 C25.1607636,4.10285362 28.676602,0.58701521 32.992252,0.58701521 C37.307902,0.58701521 40.8237404,4.10285362 40.8237404,8.41850361 C40.8237404,12.7341536 37.307902,16.249992 32.992252,16.249992 Z M32.992252,2.91979899 C29.9596331,2.91979899 27.4935474,5.3858847 27.4935474,8.41850361 C27.4935474,11.4511225 29.9596331,13.9172082 32.992252,13.9172082 C36.0248709,13.9172082 38.4909566,11.4511225 38.4909566,8.41850361 C38.4909566,5.3858847 36.0248709,2.91979899 32.992252,2.91979899 Z M46.4057587,16.3832614 L2.26617332,30.979839 C1.48302448,31.2464429 0.633224678,30.8132116 0.366620817,30.0300628 C0.100016957,29.2469139 0.53324823,28.3971141 1.31639707,28.1305103 L45.4559825,13.5339326 C46.2391313,13.2673288 47.0889311,13.7005601 47.355535,14.4837089 C47.6221388,15.2668577 47.1889075,16.1166575 46.4057587,16.3832614 Z M31.2760222,31.2464592 L24.2110199,24.1814569 L17.1293548,31.2464592 L31.2760222,31.2464592 Z" id="Shape"></path>
                </g>
            </g>
        </g>
    </g>
</svg>