<?xml version="1.0" encoding="UTF-8"?>
<svg width="100px" height="100px" viewBox="0 0 100 100" version="1.1" xmlns="http://www.w3.org/2000/svg" xmlns:xlink="http://www.w3.org/1999/xlink">
    <!-- Generator: Sketch 57.1 (83088) - https://sketch.com -->
    <title>3</title>
    <desc>Created with Sketch.</desc>
    <g id="Page-1" stroke="none" stroke-width="1" fill="none" fill-rule="evenodd">
        <g id="外汇交易" transform="translate(-1160.000000, -892.000000)" fill="#00A651" fill-rule="nonzero">
            <g id="3" transform="translate(1160.000000, 892.000000)">
                <circle id="Oval" opacity="0.1" cx="50" cy="50" r="50"></circle>
                <g id="全球" transform="translate(27.000000, 27.000000)">
                    <path d="M21.2543274,5.90224978 L21.2543274,5.90224978 C20.1461861,5.33552912 19.2708051,5.19384895 19.179725,5.17866894 C18.9166047,5.13818889 18.6484244,5.15842891 18.4004841,5.23938901 C17.4137829,5.54804937 16.6750221,6.19573012 16.2601016,7.11159119 C15.5517008,8.670073 16.0020413,10.6131153 16.4068418,11.7920966 C15.9362612,13.0621581 15.9109612,14.2512595 16.3258817,15.3290407 C17.0089825,17.0899228 18.5978243,17.7629036 18.8002246,17.8388037 C18.9975648,17.9197638 19.210085,17.9602438 19.4226053,17.9602438 C19.5136854,17.9602438 19.6098255,17.9501238 19.7009056,17.9349438 C19.9488459,17.8944637 20.1967862,17.8438637 20.4548465,17.7730236 C21.8615281,17.3935232 22.9747294,16.6648823 23.7590303,15.5921611 C24.5332112,14.5396798 24.9481317,13.2139583 24.9886118,11.6504165 C25.0088518,10.9521357 24.7507915,10.0565146 24.2245509,8.98379336 C23.7539703,8.03757226 22.0032083,6.28175022 21.2543274,5.90224978 Z M20.065226,16.3106918 C19.8577658,16.3663518 19.6604256,16.4068319 19.4630853,16.4422519 L19.4580253,16.4422519 C19.4276653,16.4473119 19.3973052,16.4422519 19.3669452,16.4321319 L19.3568252,16.4270719 C19.3467052,16.4220119 18.2082039,15.9716714 17.7477433,14.78257 C17.444143,14.0033291 17.504863,13.097588 17.9248435,12.1007669 L18.0412237,11.8224666 L17.9349635,11.5391062 C17.7224433,10.9673256 17.0747625,9.00910328 17.6465432,7.7390418 C17.8843635,7.21786119 18.294224,6.86366078 18.8660046,6.68656057 L18.8811846,6.68150057 C18.8913047,6.67644056 18.9014247,6.67644056 18.9166047,6.67644056 C18.9267247,6.67644056 18.9419047,6.67644056 18.9570847,6.68150057 C18.9621447,6.68150057 19.6705456,6.7928207 20.5712266,7.25328123 L20.5712266,7.25328123 C20.9709671,7.45568147 22.5193289,8.94838321 22.8684693,9.66184404 C23.2682098,10.471445 23.49085,11.1849058 23.47567,11.6150063 C23.4048299,14.1045292 22.2258485,15.7287911 20.065226,16.3106918 L20.065226,16.3106918 Z M23.0000294,0.86250368 C10.775075,0.86250368 0.86250368,10.775075 0.86250368,23.0000294 C0.86250368,35.2249839 10.775075,45.1375552 23.0000294,45.1375552 C35.2249839,45.1375552 45.1375552,35.2249839 45.1375552,23.0000294 C45.1375552,10.775075 35.2249839,0.86250368 23.0000294,0.86250368 Z M41.0288304,12.9812178 C40.3052397,13.9476789 39.9662193,15.1924404 40.0471794,16.634542 C40.1230795,17.9906236 40.54306,19.0582849 40.58354,19.154425 L40.58354,19.154425 C40.59366,19.179725 40.59872,19.210085 40.59872,19.2404451 C40.4823399,20.874827 39.9560993,22.0436883 39.0402382,22.7267891 C38.7265179,22.9595494 38.3621974,23.1315896 37.967517,23.2378497 C37.1933361,23.44531 36.5051753,23.3491698 36.307835,23.3137498 L36.257235,23.3036298 L36.2066349,23.3036298 C33.7424121,23.2024297 32.9125711,19.6604256 32.6696908,18.1424238 L32.5634307,17.489683 L31.9056299,17.504863 C30.0840278,17.5402831 28.7279462,15.784461 28.2421857,14.8129399 C26.815264,10.4157948 31.8904499,6.49427047 33.6159218,5.31529898 C35.0529635,6.18055999 36.383745,7.21786119 37.5829664,8.41708259 C38.949168,9.78834418 40.0977893,11.316466 41.0288304,12.9812079 L41.0288304,12.9812178 Z M3.99970733,31.025179 C3.49370674,29.8360776 3.10914629,28.6115562 2.84096598,27.3566747 C3.69610698,27.3920948 4.70304815,27.2554746 5.74034936,27.1087345 C6.78271057,26.9670543 7.96675195,26.8000741 8.44745251,26.9569343 L8.62961272,27.0176543 L8.82189294,26.9822343 C9.80859409,26.7950141 12.1918569,26.1625134 13.0318178,24.2953712 L13.0975979,24.148631 L13.0975979,23.9867108 C13.0975979,23.6274504 13.163378,22.428229 13.9223789,22.0588486 C14.86354,21.598388 16.1842015,22.7621894 16.614302,23.1467498 L16.6699621,23.1973499 L16.7155021,23.2277099 C17.1456026,23.5110703 17.9197835,23.4857702 18.7799845,22.5749692 C18.8002246,22.5547292 18.8204646,22.5395491 18.8457646,22.5294291 L18.8558846,22.5243691 C18.8660046,22.5193091 19.8577658,22.1195686 21.0114471,22.6255692 C21.8058681,22.9696496 22.4687288,23.6527504 22.9899094,24.6546316 L23.3086898,25.2719523 L23.9513105,25.003772 C24.9177717,24.6040315 26.3396333,24.2042911 27.6451148,24.5939115 C28.641936,24.8924519 29.4059969,25.5957927 29.9271775,26.683694 C29.9322375,26.693814 29.9372975,26.703934 29.9372975,26.714054 C29.9423575,26.734294 30.0739177,27.2048746 29.7298373,27.8019553 C29.2592567,28.6216762 28.0853354,29.294657 26.2384332,29.7955976 L26.081573,29.8411376 L25.9550729,29.9473978 C24.7254914,30.9644589 23.8045704,32.8872612 24.9025917,35.2300637 C24.9127117,35.2553637 24.9228317,35.2806637 24.9228317,35.3059638 C24.9481317,36.4495251 24.3864711,38.7265277 22.0791084,39.1667483 L22.0082683,39.1819283 L14.9748601,42.0003515 C14.9748601,42.0003515 14.9698001,42.0003515 14.9698001,42.0003515 C12.5156972,40.9630503 10.3095347,39.4754086 8.41709247,37.5829664 C6.52465027,35.6905242 5.03700854,33.4793016 3.99970733,31.0252185 L3.99970733,31.025179 Z M37.5778866,37.5778866 C35.6854444,39.4703288 33.4792819,40.9579706 31.025179,41.9952718 C28.4850561,43.067993 25.7830327,43.6144737 23.0000294,43.6144737 C20.9912071,43.6144737 19.0279248,43.3311133 17.1304226,42.7694527 L22.4434288,40.6391902 C25.6868926,39.9712694 26.4813135,36.8441858 26.4458934,35.2654541 C26.4408334,35.0276338 26.3851734,34.7999335 26.2890333,34.5874133 L26.2839733,34.5823533 C25.4490723,32.8113512 26.2940933,31.6930899 26.8102139,31.2123893 C28.9910764,30.5950686 30.377518,29.7247476 31.0504988,28.5558863 C31.6728795,27.473045 31.4704793,26.5420039 31.3945792,26.2788836 C31.3692792,26.1979235 31.3389191,26.1169634 31.2984391,26.0360033 C30.5849783,24.5433016 29.507197,23.5667205 28.0802754,23.14168 C26.6280537,22.7065195 25.1404119,22.9746998 23.9968506,23.3643202 C23.3592899,22.357379 22.5598089,21.6388582 21.6135878,21.2289977 C19.9134258,20.4851769 18.4612042,21.0417775 18.2689239,21.1176776 C18.0462837,21.2087577 17.8438834,21.3453779 17.6769032,21.5224781 C17.5504031,21.6590982 17.444143,21.7400583 17.3733029,21.7906584 C16.589002,21.1227376 14.90908,19.8830362 13.2595181,20.6875771 C11.8629565,21.3605579 11.6150162,22.9645798 11.5846562,23.7944207 C11.0027555,24.857022 9.39873361,25.3073625 8.7004528,25.4541026 C7.90097187,25.2770024 6.79283058,25.4288026 5.52782911,25.6059028 C4.56136798,25.737463 3.32166654,25.9095032 2.56772566,25.8133631 C2.44122552,24.887382 2.38050545,23.9462209 2.38050545,22.9999998 C2.38050545,20.2169966 2.92698608,17.5149336 3.99970733,14.9748502 C5.03700854,12.5207474 6.52465027,10.3145848 8.41709247,8.42214259 C10.3095347,6.52970039 12.5156972,5.04205866 14.9698001,4.00475745 C17.5099231,2.93203621 20.2119464,2.38555557 22.9949497,2.38555557 C25.7779529,2.38555557 28.4800158,2.93203621 31.0200992,4.00475745 C31.3945397,4.16161764 31.7639201,4.33365784 32.1231805,4.51075804 C31.0352793,5.31529898 29.5273975,6.58536046 28.3382961,8.18938232 C27.5337552,9.27222358 26.9822145,10.3753049 26.6988542,11.4632061 C26.3497138,12.7788077 26.3901939,14.0842892 26.8101743,15.3391706 L26.8253544,15.3847107 L26.8455944,15.4302507 C27.4477351,16.6699522 29.0112769,18.6888945 31.2730995,18.9874349 C31.4653798,19.948836 31.7993401,21.1328774 32.3711208,22.1853586 C33.2667419,23.8298605 34.5519834,24.7406616 36.0902251,24.8216217 C36.2723854,24.8519817 36.5759857,24.8874018 36.9453661,24.8874018 C37.3451066,24.8874018 37.8359272,24.8469217 38.3520478,24.7052415 C38.9339485,24.5483814 39.4652491,24.2953811 39.9358296,23.9462407 C41.2311911,22.9898995 41.959832,21.4415377 42.1065721,19.3466953 C42.1268122,19.073455 42.0812721,18.8002147 41.969952,18.5522744 C41.9244119,18.4358942 41.129991,16.3461118 41.8333318,14.6105298 C41.8889919,14.7319699 41.9395919,14.8534101 41.990192,14.9697902 C43.0629133,17.5099132 43.6093939,20.2119365 43.6093939,22.9949398 C43.6093939,25.777943 43.0629133,28.4800059 41.990192,31.0200894 C40.9630108,33.4792522 39.4753691,35.6854148 37.5778669,37.5778372 L37.5778866,37.5778866 Z" id="Shape"></path>
                </g>
            </g>
        </g>
    </g>
</svg>