<?xml version="1.0" encoding="UTF-8"?>
<svg width="100px" height="100px" viewBox="0 0 100 100" version="1.1" xmlns="http://www.w3.org/2000/svg" xmlns:xlink="http://www.w3.org/1999/xlink">
    <!-- Generator: Sketch 57.1 (83088) - https://sketch.com -->
    <title>4</title>
    <desc>Created with Sketch.</desc>
    <g id="Page-1" stroke="none" stroke-width="1" fill="none" fill-rule="evenodd">
        <g id="外汇交易" transform="translate(-360.000000, -1043.000000)" fill="#00A651" fill-rule="nonzero">
            <g id="4" transform="translate(360.000000, 1043.000000)">
                <circle id="Oval" opacity="0.1" cx="50" cy="50" r="50"></circle>
                <g id="下单" transform="translate(32.000000, 29.000000)">
                    <path d="M15.2500224,15.5000192 L20.7500224,15.5000192 L20.7500224,18.2500224 L15.2500224,18.2500224 L15.2500224,15.5000192 Z M2.875008,5.8750016 L9.750016,5.8750016 L9.750016,8.6250112 L26.2500352,8.6250112 L26.2500352,5.8750016 L33.1250432,5.8750016 L33.1250432,22.3750272 L35.8750464,22.3750272 L35.8750464,5.8750016 C35.8750464,4.36250624 34.637545,3.1250048 33.1250432,3.1250048 L25.9750349,3.1250048 C25.4250342,1.47500288 23.9125325,0.3750016 22.1250304,0.3750016 L13.8750208,0.3750016 C12.0875187,0.3750016 10.575017,1.47500288 10.0250163,3.1250048 L2.875008,3.1250048 C1.36250624,3.1250048 0.1250048,4.36250624 0.1250048,5.8750016 L0.1250048,38.8750464 C0.1250048,40.3875482 1.36250624,41.6250496 2.875008,41.6250496 L18.0000256,41.6250496 L18.0000256,38.8750464 L2.875008,38.8750464 L2.875008,5.8750016 Z M12.5000192,4.5000064 C12.5000192,3.67500544 13.0500198,3.1250048 13.8750208,3.1250048 L22.1250304,3.1250048 C22.9500314,3.1250048 23.500032,3.67500544 23.500032,4.5000064 L23.500032,5.875008 L12.5000192,5.875008 L12.5000192,4.5000064 Z M34.9125453,30.2125363 L29.0000384,36.1250432 L29.0000384,22.9250278 L26.2500352,22.9250278 L26.2500352,36.1250432 L20.3375283,30.2125363 L18.4125261,32.1375386 L27.6250368,41.3500493 L36.8375475,32.1375386 L34.9125453,30.2125363 Z" id="Shape"></path>
                </g>
            </g>
        </g>
    </g>
</svg>