<?xml version="1.0" encoding="UTF-8"?>
<svg width="100px" height="100px" viewBox="0 0 100 100" version="1.1" xmlns="http://www.w3.org/2000/svg" xmlns:xlink="http://www.w3.org/1999/xlink">
    <!-- Generator: Sketch 57.1 (83088) - https://sketch.com -->
    <title>5</title>
    <desc>Created with Sketch.</desc>
    <g id="Page-1" stroke="none" stroke-width="1" fill="none" fill-rule="evenodd">
        <g id="外汇交易" transform="translate(-760.000000, -1043.000000)" fill="#00A651" fill-rule="nonzero">
            <g id="5" transform="translate(760.000000, 1043.000000)">
                <circle id="Oval" opacity="0.1" cx="50" cy="50" r="50"></circle>
                <g id="流动人员" transform="translate(29.000000, 30.000000)">
                    <path d="M34.5259249,22.7768087 C30.4864506,22.7768087 27.1997943,26.0628681 27.1997943,30.1018946 C27.1997943,34.0851973 30.3918198,37.3366781 34.3506936,37.4303636 L34.5261239,37.4297168 C38.5659465,37.4297168 41.8531999,34.1431102 41.8531999,30.1030389 C41.8530009,26.0634154 38.5659962,22.7768087 34.5259249,22.7768087 L34.5259249,22.7768087 Z M34.5259249,34.7767191 C31.9480547,34.7767191 29.8507024,32.6789687 29.8507024,30.1004517 C29.8507024,27.5224323 31.9480547,25.4250302 34.5259249,25.4250302 C37.1043921,25.4250302 39.2017445,27.5224323 39.2017445,30.1004517 C39.2017445,32.6791677 37.1043921,34.7767191 34.5259249,34.7767191 Z M7.47323882,22.7768087 C3.43366504,22.7768087 0.146958913,26.0628681 0.146958913,30.1018946 C0.146958913,34.0851973 3.33893467,37.3366781 7.29785827,37.4303636 L7.47323882,37.4297168 C11.5130614,37.4297168 14.8003148,34.1431102 14.8003148,30.1030389 C14.8003148,26.0634154 11.5131111,22.7768087 7.47323882,22.7768087 Z M7.47323882,34.7767191 C4.89482135,34.7767191 2.79741923,32.6789687 2.79741923,30.1004517 C2.79741923,27.5224323 4.89482135,25.4250302 7.47323882,25.4250302 C10.051507,25.4250302 12.1488594,27.5224323 12.1488594,30.1004517 C12.1488594,32.6791677 10.051507,34.7767191 7.47323882,34.7767191 Z M21.4756716,14.8164722 L21.6511019,14.8160741 C25.6909245,14.8160741 28.9781779,11.5292188 28.9781779,7.48939621 C28.9781779,3.44957366 25.6911235,0.163116302 21.6511019,0.163116302 C17.6116277,0.163116302 14.324822,3.44897662 14.324822,7.48800311 C14.324822,11.4711068 17.5168475,14.7225876 21.4757214,14.8164722 L21.4756716,14.8164722 Z M21.6511019,2.81113871 C24.2295692,2.81113871 26.3267225,4.90854082 26.3267225,7.48675928 C26.3267225,10.0650772 24.2296189,12.1628276 21.6511019,12.1628276 C19.0732318,12.1628276 16.9758794,10.0650772 16.9758794,7.48675928 C16.9758794,4.90854082 19.0732318,2.81113871 21.6511019,2.81113871 Z M7.75091225,21.0188737 C8.37118723,17.2760289 10.5055561,14.0464396 13.5078721,11.981825 L13.5078721,11.9818242 C13.1463808,11.3057409 12.872616,10.5863075 12.6932104,9.84093768 C8.797175,12.3289036 6.05601432,16.4616156 5.45066535,21.2619181 C6.1270621,21.1014138 6.83166901,21.0139474 7.55722207,21.0139474 C7.62200093,21.0139474 7.6862325,21.0174799 7.75091186,21.018873 L7.75091225,21.0188737 Z M34.7580243,21.0196698 C35.559899,21.0398199 36.3357029,21.1632579 37.072948,21.3782421 C36.5198401,16.7213288 33.9568959,12.6840935 30.2762427,10.1494084 L30.276243,10.1494084 C30.0705293,10.8858127 29.7722316,11.593146 29.388494,12.2544725 C32.1881148,14.3252068 34.1649148,17.4382738 34.7580245,21.019669 L34.7580243,21.0196698 Z M27.2738272,35.5759569 C25.456636,36.4667408 23.4147586,36.9695481 21.2545678,36.9695481 C18.9702423,36.9695481 16.8209475,36.403554 14.9277829,35.4137609 C14.4739826,36.0421457 13.9435621,36.6115728 13.347318,37.1051757 C15.6776156,38.4402571 18.3763864,39.2053143 21.2545678,39.2053143 C24.0304563,39.2053143 26.6379795,38.4915528 28.9099661,37.2426442 C28.2962585,36.7591412 27.7453397,36.1996648 27.2738272,35.5760066 L27.2738272,35.5759569 Z" id="形状"></path>
                </g>
            </g>
        </g>
    </g>
</svg>