<?xml version="1.0" encoding="UTF-8"?>
<svg width="100px" height="100px" viewBox="0 0 100 100" version="1.1" xmlns="http://www.w3.org/2000/svg" xmlns:xlink="http://www.w3.org/1999/xlink">
    <!-- Generator: Sketch 57.1 (83088) - https://sketch.com -->
    <title>6</title>
    <desc>Created with Sketch.</desc>
    <g id="Page-1" stroke="none" stroke-width="1" fill="none" fill-rule="evenodd">
        <g id="外汇交易" transform="translate(-1160.000000, -1043.000000)" fill="#00A651" fill-rule="nonzero">
            <g id="6" transform="translate(1160.000000, 1043.000000)">
                <circle id="Oval" opacity="0.1" cx="50" cy="50" r="50"></circle>
                <g id="交易时间段排行_默认" transform="translate(28.000000, 28.000000)">
                    <path d="M28.9845754,42.8568565 L27.8014629,42.8568565 C27.299535,42.8568565 26.905167,42.4626892 26.905167,41.9610235 L26.905167,34.1851952 C26.905167,33.6835265 27.2995379,33.2893622 27.8014629,33.2893622 L28.9845754,33.2893622 C29.4865033,33.2893622 29.8808713,33.6835294 29.8808713,34.1851952 L29.8808713,41.9610235 C29.8808713,42.4626922 29.4865004,42.8568565 28.9845754,42.8568565 Z M35.5813098,42.8568565 L34.3981973,42.8568565 C33.8962694,42.8568565 33.5019014,42.4626892 33.5019014,41.9610235 L33.5019014,31.211011 C33.5019014,30.7093424 33.8962723,30.315178 34.3981973,30.315178 L35.5813098,30.315178 C36.0832377,30.315178 36.4776057,30.7093453 36.4776057,31.211011 L36.4776057,41.9610235 C36.4776057,42.4626922 36.047383,42.8568565 35.5813098,42.8568565 Z M42.1422063,42.8568565 L40.9590938,42.8568565 C40.4571659,42.8568565 40.0627979,42.4626892 40.0627979,41.9610235 L40.0627979,27.6276875 C40.0627979,27.1260189 40.4571689,26.7318545 40.9590938,26.7318545 L42.1422063,26.7318545 C42.6441342,26.7318545 43.0385023,27.1260218 43.0385023,27.6276875 L43.0385023,41.9610235 C43.0385023,42.4626922 42.6441313,42.8568565 42.1422063,42.8568565 L42.1422063,42.8568565 Z M3.06365634,20.2101495 C3.70899043,11.0726389 11.0944945,3.69094961 20.2367274,3.04594886 C30.5979106,2.32927996 39.2740829,10.1409571 40.0269726,20.1384687 C40.0986765,20.9268016 40.7440119,21.5359704 41.4969017,21.5359704 C42.3573471,21.5359704 43.0385317,20.8193015 43.0026812,19.9593005 C42.1422357,8.31346758 32.0320018,-0.752404293 19.9857655,0.0717773296 C9.37359101,0.78844623 0.769136555,9.38846883 0.0521266926,19.9951198 C-0.77246826,31.9993145 8.29807622,42.1043262 19.9140897,42.9643272 C20.7745352,43.0359941 21.4915745,42.3193265 21.4915745,41.4593255 C21.4915745,40.6709926 20.8820909,40.0259919 20.0933506,39.9901557 C10.1265102,39.2376548 2.34666329,30.5659641 3.06371516,20.2101327 L3.06365634,20.2101495 Z M32.5697507,23.3276531 L21.5273535,23.3276531 L21.5273535,12.2551402 C21.5273535,11.4309712 20.8461689,10.7501385 20.021574,10.7501385 C19.196979,10.7501385 18.5157945,11.4309712 18.5157945,12.2551402 L18.5157945,24.7968355 C18.5157945,25.6210045 19.196979,26.3018372 20.021574,26.3018372 L32.5697507,26.3018372 C33.3943457,26.3018372 34.0755303,25.6210045 34.0755303,24.7968355 C34.0755303,23.9726665 33.3943457,23.3276657 32.5697507,23.3276657 L32.5697507,23.3276531 Z" id="形状"></path>
                </g>
            </g>
        </g>
    </g>
</svg>