<?xml version="1.0" encoding="UTF-8"?>
<svg width="14px" height="17px" viewBox="0 0 14 17" version="1.1" xmlns="http://www.w3.org/2000/svg" xmlns:xlink="http://www.w3.org/1999/xlink">
    <!-- Generator: Sketch 57.1 (83088) - https://sketch.com -->
    <title>6</title>
    <desc>Created with Sketch.</desc>
    <g id="Page-1" stroke="none" stroke-width="1" fill="none" fill-rule="evenodd">
        <g id="STD标准账户" transform="translate(-654.000000, -1194.000000)" fill="#00C096" fill-rule="nonzero">
            <g id="6" transform="translate(654.000000, 1194.000000)">
                <path d="M3.35213868,11.4145714 L1.94496204,11.4145714 C1.71396177,11.4145714 1.52338655,11.6956218 1.52338655,12.0440472 L1.52338655,15.8170516 C1.52338655,16.1597019 1.71396177,16.4407523 1.94496204,16.4407523 L3.35406368,16.4407523 C3.58506395,16.4407523 3.77371417,16.1597019 3.77371417,15.8170516 L3.77371417,12.0440472 C3.77371417,11.6956218 3.58313894,11.4145714 3.35213868,11.4145714 Z M8.13191924,8.70224327 L6.7266676,8.70224327 C6.49566733,8.70224327 6.30316711,8.98906861 6.30316711,9.34134402 L6.30316711,15.8440016 C6.30316711,16.200127 6.49566733,16.4811773 6.7266676,16.4811773 L8.13191924,16.4811773 C8.3609945,16.4811773 8.55541973,16.200127 8.55541973,15.8440016 L8.55541973,9.34134402 C8.55541973,8.98906861 8.3609945,8.70224327 8.13191924,8.70224327 Z M11.2908479,0.318858516 L12.1532489,1.18318452 L7.43314342,5.51251456 L4.85941543,2.91761154 L0.141234939,7.24309157 L0.999785938,8.10934258 L4.85941543,4.64626355 L7.43314342,7.24309157 L13.0079499,2.05136053 L13.8607259,2.91761154 L13.8607259,0.318858516 L11.2908479,0.318858516 L11.2908479,0.318858516 Z M12.9636749,6.26326543 L11.5603482,6.26326543 C11.327423,6.26326543 11.1368477,6.55394077 11.1368477,6.90814118 L11.1368477,15.6900014 C11.1368477,16.0480518 11.327423,16.3406522 11.5603482,16.3406522 L12.9636749,16.3406522 C13.1966001,16.3406522 13.3871754,16.0480518 13.3871754,15.6900014 L13.3871754,6.90814118 C13.3852504,6.55394077 13.1966001,6.26326543 12.9636749,6.26326543 Z" id="形状"></path>
            </g>
        </g>
    </g>
</svg>