<?xml version="1.0" encoding="UTF-8"?>
<svg width="18px" height="18px" viewBox="0 0 18 18" version="1.1" xmlns="http://www.w3.org/2000/svg" xmlns:xlink="http://www.w3.org/1999/xlink">
    <!-- Generator: Sketch 57.1 (83088) - https://sketch.com -->
    <title>13</title>
    <desc>Created with Sketch.</desc>
    <g id="Page-1" stroke="none" stroke-width="1" fill="none" fill-rule="evenodd">
        <g id="STD标准账户" transform="translate(-652.000000, -1622.000000)" fill="#00C096" fill-rule="nonzero">
            <g id="13" transform="translate(652.000000, 1622.000000)">
                <path d="M15.9065931,17.4653768 L15.9065931,4.71821644 L17.4056898,4.71821644 L17.4056898,17.4653768 L15.9065931,17.4653768 Z M5.76319278,17.4653768 L5.76319278,10.732392 L7.2622894,10.732392 L7.2622894,17.4653768 L5.76319278,17.4653768 L5.76319278,17.4653768 Z M10.8305169,17.4566082 L10.8305169,7.33077306 L12.3296136,7.33077306 L12.3296136,17.4566082 L10.8305169,17.4566082 Z M0.687116557,17.4566082 L0.687116557,11.9246918 L2.18621318,11.9246918 L2.18621318,17.4566082 L0.687116557,17.4566082 Z M0.91064229,9.04906823 C0.707069232,9.04906823 0.511765859,8.92714116 0.424662448,8.74564631 C0.36222012,8.61709576 0.354180431,8.47075816 0.401939031,8.33343824 C0.449676871,8.19616087 0.546756213,8.08616795 0.67526402,8.0237474 L14.3726545,1.43423542 L14.3398296,1.29025131 L8.21354617,1.29025131 C7.91626902,1.29025131 7.6744128,1.04839712 7.6744128,0.751117933 C7.6744128,0.453840778 7.91626698,0.211964201 8.21354617,0.211964201 L17.0506701,0.211964201 C17.3012092,0.211964201 17.5213827,0.387211095 17.5742025,0.628627679 C17.6276055,0.880355419 17.5060117,1.13049965 17.2784661,1.23668053 L1.14631182,8.99591632 C1.05835518,9.03988426 0.969648719,9.04906823 0.910643104,9.04906823 L0.91064229,9.04906823 Z" id="形状"></path>
            </g>
        </g>
    </g>
</svg>