<?xml version="1.0" encoding="UTF-8"?>
<svg width="15px" height="19px" viewBox="0 0 15 19" version="1.1" xmlns="http://www.w3.org/2000/svg" xmlns:xlink="http://www.w3.org/1999/xlink">
    <!-- Generator: Sketch 57.1 (83088) - https://sketch.com -->
    <title>8</title>
    <desc>Created with Sketch.</desc>
    <g id="Page-1" stroke="none" stroke-width="1" fill="none" fill-rule="evenodd">
        <g id="STD标准账户" transform="translate(-654.000000, -1315.000000)" fill="#00C096" fill-rule="nonzero">
            <g id="8" transform="translate(654.000000, 1315.000000)">
                <path d="M3.41212821,5.92124699 L7.10441034,5.92124699 C7.32272542,5.92124699 7.49979246,5.74026241 7.49979246,5.5168938 C7.49979246,5.29352519 7.32272663,5.11254061 7.10441034,5.11254061 L3.41212821,5.11254061 C3.19350296,5.11254061 3.01654066,5.29352519 3.01654066,5.5168938 C3.01654066,5.74026241 3.19360649,5.92124699 3.41212821,5.92124699 Z M3.01654066,9.56136231 C3.01654066,9.78473092 3.19360649,9.96571551 3.41212821,9.96571551 L11.3242016,9.96571551 C11.5425167,9.96571551 11.7195837,9.78473092 11.7195837,9.56136231 C11.7195837,9.33809643 11.5425179,9.1571118 11.3242016,9.1571118 L3.41212821,9.1571118 C3.19360568,9.15700872 3.01654066,9.33809643 3.01654066,9.56136231 Z M10.6647185,0.529051999 L9.87343865,0.529051999 L9.87343865,0.259482533 L9.87343865,0.259482533 L9.87343865,0.529051999 L1.17040362,0.529051999 C0.587746693,0.529051999 0.115536366,1.01198774 0.115536366,1.60732785 L0.115536366,17.5155055 C0.115536366,18.1107429 0.587746693,18.5937814 1.17040362,18.5937814 L13.8293142,18.5937814 C14.4121766,18.5937814 14.8846971,18.1107429 14.8846971,17.5155055 L14.8846971,5.11253457 L14.8846971,5.11253457 L10.6647044,0.529025815 L10.6647185,0.529051999 Z M10.6647181,1.60731979 L13.8293102,5.11265542 L11.1924089,5.11265542 C10.9009777,5.11265542 10.6648212,4.87144536 10.6648212,4.57351648 L10.6648212,1.60731979 L10.6647181,1.60731979 L10.6647181,1.60731979 Z M13.8293102,16.975851 C13.8293102,17.2737799 13.5936693,17.5154008 13.3022381,17.5154008 L1.69778186,17.5154008 C1.40655612,17.5154008 1.17029687,17.2736751 1.17029687,16.975851 L1.17029687,2.14686156 C1.17029687,1.84893269 1.40655612,1.60731174 1.69778186,1.60731174 L9.87342858,1.60731174 L9.87342858,4.84296309 C9.87342858,5.43882084 10.3458444,5.92123894 10.9287087,5.92123894 L13.8293102,5.92123894 L13.8293102,16.975849 L13.8293102,16.975849 L13.8293102,16.975851 Z M11.3241956,13.4710471 L3.41212217,13.4710471 C3.19349692,13.4710471 3.01653461,13.6521348 3.01653461,13.8754003 C3.01653461,14.0986662 3.19360045,14.2797535 3.41212217,14.2797535 L11.3241956,14.2797535 C11.5425107,14.2797535 11.7195777,14.0986658 11.7195777,13.8754003 C11.7195777,13.6521344 11.5425119,13.4710471 11.3241956,13.4710471 Z" id="形状"></path>
            </g>
        </g>
    </g>
</svg>