<?xml version="1.0" encoding="UTF-8"?>
<svg width="18px" height="19px" viewBox="0 0 18 19" version="1.1" xmlns="http://www.w3.org/2000/svg" xmlns:xlink="http://www.w3.org/1999/xlink">
    <!-- Generator: Sketch 57.1 (83088) - https://sketch.com -->
    <title>12</title>
    <desc>Created with Sketch.</desc>
    <g id="Page-1" stroke="none" stroke-width="1" fill="none" fill-rule="evenodd">
        <g id="STD标准账户" transform="translate(-652.000000, -1561.000000)" fill="#00C096" fill-rule="nonzero">
            <g id="12" transform="translate(652.000000, 1561.000000)">
                <path d="M6.72279852,0.368372522 L11.2353619,0.368372522 C11.972107,0.368372522 12.6167589,1.01302443 12.6167589,1.74976948 L12.6167589,7.82791609 L14.5507146,7.82791609 C15.1032734,7.82791609 15.6558322,8.19628861 15.8400184,8.65675426 C16.0242047,9.20931304 15.9321116,9.76187182 15.563739,10.2223375 L9.94605809,15.8400184 C9.3934993,16.3925772 8.472568,16.3925772 8.01210235,15.8400184 L2.39442139,10.1302443 C2.02604887,9.76187182 1.84186261,9.11721991 2.118142,8.56466113 C2.30232826,8.01210235 2.85488704,7.73582296 3.40744583,7.73582296 L5.34140156,7.73582296 L5.34140156,1.74976948 C5.34140156,0.920931304 5.98605348,0.368372522 6.72279852,0.368372522 L6.72279852,0.368372522 Z M9.02512678,14.826994 L14.7349009,9.20931304 C14.7349009,9.20931304 14.826994,9.11721991 14.7349009,9.11721991 C14.6428077,9.11721991 14.6428077,9.02512678 14.6428077,9.02512678 L11.972107,9.02512678 C11.6037344,9.02512678 11.327455,8.74884739 11.327455,8.38047487 L11.327455,1.74976948 C11.327455,1.65767635 11.2353619,1.65767635 11.2353619,1.65767635 L6.72279852,1.65767635 C6.63070539,1.65767635 6.63070539,1.74976948 6.63070539,1.74976948 L6.63070539,8.472568 C6.63070539,8.84094052 6.354426,9.11721991 5.98605348,9.11721991 L3.40744583,9.11721991 C3.40744583,9.11721991 3.3153527,9.11721991 3.3153527,9.20931304 L3.3153527,9.30140617 L9.02512678,14.826994 C8.93303365,14.826994 8.93303365,14.826994 9.02512678,14.826994 L9.02512678,14.826994 Z M0.920931304,17.1293223 L17.1293223,17.1293223 C17.4976948,17.1293223 17.7739742,17.4056016 17.7739742,17.7739742 C17.7739742,18.1423467 17.4976948,18.4186261 17.1293223,18.4186261 L0.920931304,18.4186261 C0.552558783,18.4186261 0.276279391,18.1423467 0.276279391,17.7739742 C0.276279391,17.4056016 0.552558783,17.1293223 0.920931304,17.1293223 L0.920931304,17.1293223 Z" id="形状"></path>
            </g>
        </g>
    </g>
</svg>