<?xml version="1.0" encoding="UTF-8"?>
<svg width="18px" height="10px" viewBox="0 0 18 10" version="1.1" xmlns="http://www.w3.org/2000/svg" xmlns:xlink="http://www.w3.org/1999/xlink">
    <!-- Generator: Sketch 57.1 (83088) - https://sketch.com -->
    <title>10</title>
    <desc>Created with Sketch.</desc>
    <g id="Page-1" stroke="none" stroke-width="1" fill="none" fill-rule="evenodd">
        <g id="STD标准账户" transform="translate(-652.000000, -1443.000000)" fill="#00C096" fill-rule="nonzero">
            <g id="10" transform="translate(652.000000, 1443.000000)">
                <path d="M9.72833396,4.7695432 C10.0463031,5.06173104 10.5382958,5.06173104 10.856265,4.7695432 C11.1914216,4.46016784 11.212906,3.94024536 10.9013822,3.60723716 L7.67442532,0.40821 C7.35001088,0.08809244 6.82579152,0.08809244 6.50352552,0.40821 L3.58379556,3.24200236 L0.87676116,3.24200236 L0.87676116,3.2441508 C0.44492472,3.27208052 0.1054712,3.62657312 0.1054712,4.06270644 C0.1054712,4.49669132 0.44707316,4.85333236 0.87676116,4.88126208 L0.87676116,4.88341052 L3.91465532,4.88341052 C4.1337962,4.88341052 4.3808668,4.8339964 4.53555448,4.68145716 L7.0879012,2.15059484 L9.72833396,4.7695432 L9.72833396,4.7695432 Z M17.0931863,4.55684764 L17.0931863,4.5546992 L13.5052915,4.5546992 C13.2754084,4.5546992 13.0799004,4.6943478 12.9295096,4.84259016 L10.3793113,7.37130404 L7.73673008,4.75235568 C7.41231564,4.43223812 6.88809628,4.43223812 6.56583028,4.75235568 C6.24356428,5.07247324 6.24356428,5.59239572 6.56583028,5.91466172 L9.79278716,9.11368888 C10.1172016,9.43380644 10.641421,9.43380644 10.9658354,9.11368888 L13.8361512,6.19610736 L17.0394753,6.19610736 C17.497093,6.19610736 17.8666247,5.82872412 17.8666247,5.37540328 C17.8666247,4.9414184 17.5250227,4.58477736 17.0931863,4.55684764 L17.0931863,4.55684764 Z" id="形状"></path>
            </g>
        </g>
    </g>
</svg>