<?xml version="1.0" encoding="UTF-8"?>
<svg width="18px" height="18px" viewBox="0 0 18 18" version="1.1" xmlns="http://www.w3.org/2000/svg" xmlns:xlink="http://www.w3.org/1999/xlink">
    <!-- Generator: Sketch 57.1 (83088) - https://sketch.com -->
    <title>3</title>
    <desc>Created with Sketch.</desc>
    <g id="Page-1" stroke="none" stroke-width="1" fill="none" fill-rule="evenodd">
        <g id="STD标准账户" transform="translate(-652.000000, -1011.000000)" fill="#00C096" fill-rule="nonzero">
            <g id="3" transform="translate(652.000000, 1011.000000)">
                <path d="M16.0493495,3.42388841 C15.8357332,3.15134345 15.6000187,2.89353065 15.356938,2.64308393 C15.1064913,2.39263721 14.8486785,2.15692265 14.5761335,1.95067241 C11.3424244,-0.605357349 6.65759753,-0.605357349 3.42388841,1.95067241 C3.15134345,2.16428873 2.88616457,2.40000329 2.64308393,2.64308393 C2.40000329,2.88616457 2.16428873,3.14397737 1.95067241,3.42388841 C-0.612723429,6.65759753 -0.612723429,11.3424244 1.95067241,14.5761335 C2.17165481,14.8560446 2.40000329,15.1138574 2.64308393,15.356938 C2.88616457,15.6000187 3.15134345,15.8357332 3.42388841,16.0493495 C5.03705993,17.3310475 7.01853545,17.9718964 9.00001097,17.9718964 C10.9814865,17.9718964 12.962962,17.3310475 14.5761335,16.0493495 C14.8413124,15.8357332 15.1064913,15.6073847 15.356938,15.356938 C15.6000187,15.1138574 15.8357332,14.8486785 16.0493495,14.5761335 C18.6053793,11.3424244 18.6053793,6.65759753 16.0493495,3.42388841 Z M15.4895275,14.1341687 C15.2906433,14.3846155 15.077027,14.6276961 14.8486785,14.8486785 C14.62033,15.077027 14.3772494,15.2906433 14.1341687,15.4895275 C11.1582724,17.8466731 6.84174953,17.8466731 3.86585321,15.4895275 C3.61540649,15.2906433 3.37232585,15.077027 3.15134345,14.8486785 C2.93036105,14.6276961 2.71674473,14.3846155 2.51049449,14.1341687 C0.153348891,11.1582724 0.153348891,6.84174953 2.51049449,3.86585321 C2.70937865,3.60804041 2.92299497,3.37232585 3.15134345,3.15134345 C3.37969193,2.92299497 3.61540649,2.70937865 3.86585321,2.51049449 C5.35380137,1.33192169 7.17322313,0.742635291 9.00001097,0.742635291 C10.8267988,0.742635291 12.6462206,1.33192169 14.1341687,2.51049449 C14.3772494,2.70201257 14.62033,2.91562889 14.8486785,3.15134345 C15.077027,3.37969193 15.2906433,3.62277257 15.4895275,3.86585321 C17.8466731,6.84174953 17.8466731,11.1582724 15.4895275,14.1341687 L15.4895275,14.1341687 Z" id="形状"></path>
                <path d="M12.9113995,11.4971121 C13.8763559,9.97969961 13.8763559,8.01295625 12.9113995,6.49554377 L14.62033,5.04442601 C14.7676516,4.91920265 14.7897499,4.70558633 14.6718926,4.55089865 C14.4951067,4.32255017 14.2962225,4.10156777 14.0973383,3.90268361 C13.8910881,3.69643337 13.6701057,3.49754921 13.4491233,3.32812937 C13.3018017,3.21027209 13.0808193,3.23237033 12.9555959,3.37969193 L11.5044782,5.08862249 C9.98706569,4.12366601 8.02032233,4.12366601 6.50290985,5.08862249 L5.04442601,3.37969193 C4.91920265,3.23237033 4.70558633,3.21027209 4.55089865,3.32812937 C4.32255017,3.50491529 4.10893385,3.69643337 3.90268361,3.90268361 C3.69643337,4.10893385 3.50491529,4.32991625 3.32812937,4.55089865 C3.21027209,4.69822025 3.23237033,4.91920265 3.37969193,5.04442601 L5.08862249,6.49554377 C4.12366601,8.01295625 4.12366601,9.97969961 5.08862249,11.4971121 L3.37969193,12.9555959 C3.23237033,13.0808193 3.21027209,13.2944356 3.32812937,13.4491233 C3.50491529,13.6774718 3.69643337,13.8910881 3.90268361,14.0973383 C4.10893385,14.3035886 4.32991625,14.4951067 4.55089865,14.6718926 C4.69822025,14.7897499 4.91920265,14.7676516 5.04442601,14.62033 L6.50290985,12.9113995 C8.02032233,13.8763559 9.98706569,13.8763559 11.5044782,12.9113995 L12.962962,14.62033 C13.0366228,14.7013569 13.1323819,14.7455534 13.235507,14.7455534 C13.3091678,14.7455534 13.3901947,14.7234551 13.4564894,14.6718926 C13.6848379,14.4951067 13.8984542,14.3035886 14.1047044,14.0973383 C14.3035886,13.8984542 14.5024727,13.6774718 14.6792587,13.4491233 C14.7971159,13.3018017 14.7750177,13.0808193 14.6276961,12.9555959 L12.9113995,11.4971121 Z M13.5890788,13.5890788 C13.4859537,13.6922039 13.3754625,13.7953291 13.2649713,13.8910885 L11.8285857,12.2042558 C11.7549249,12.1232289 11.6591659,12.0790324 11.5560407,12.0790324 C11.4823799,12.0790324 11.4087191,12.1011307 11.3424244,12.1526932 C9.95760137,13.1839444 8.02768841,13.1839444 6.64286537,12.1526932 C6.49554377,12.042202 6.28192745,12.0643003 6.15670409,12.2042558 L4.72768457,13.8910885 L4.72768508,13.8910885 C4.50452048,13.6973606 4.29529618,13.4881363 4.10156828,13.2649717 L5.7884006,11.8285861 C5.92835612,11.7033628 5.95782044,11.4971125 5.83996316,11.3424249 C4.80871196,9.95760181 4.80871196,8.02768885 5.83996316,6.64286581 C5.95045436,6.49554421 5.92835612,6.28192789 5.7884006,6.15670453 L4.10893436,4.72768501 L4.10893387,4.72768558 C4.30266177,4.50452097 4.51188607,4.29529668 4.73505067,4.10156878 L6.17143627,5.7884011 C6.29665963,5.92835662 6.50290987,5.95782094 6.65759755,5.83996366 C8.04242059,4.80871246 9.97233355,4.80871246 11.3571566,5.83996366 C11.5044782,5.95045486 11.7180945,5.92835662 11.8433179,5.7884011 L13.2723374,4.10893486 L13.2723373,4.10893479 C13.4955019,4.3026627 13.7047262,4.51188699 13.8984541,4.73505159 L12.2116218,6.17143719 C12.0716663,6.29666055 12.042202,6.50291079 12.1600592,6.65759847 C13.1913104,8.04242151 13.1913104,9.97233447 12.1600592,11.3571575 C12.049568,11.5044791 12.0716663,11.7180954 12.2116218,11.8433188 L13.8984541,13.2797044 L13.5890788,13.5890798 L13.5890788,13.5890788 Z" id="形状"></path>
                <path d="M9.11786825,8.60224265 C8.61697481,8.42545673 8.37389417,8.31496553 8.33706377,8.04978665 C8.31496553,7.85826857 8.46228713,7.65201833 8.66853737,7.59308969 C8.92635017,7.51942889 9.29465417,7.54889321 9.63349385,7.68884873 C9.81764585,7.76250953 10.0238961,7.67411657 10.0975569,7.48996457 C10.1712177,7.30581257 10.0828247,7.09956233 9.89867273,7.02590153 C9.71452073,6.95224073 9.52300265,6.90804425 9.33885065,6.87857993 L9.33885065,6.63549929 C9.33885065,6.43661513 9.17679689,6.28192745 8.98527881,6.28192745 C8.78639465,6.28192745 8.63170697,6.44398121 8.63170697,6.63549929 L8.63170697,6.87857993 C8.58014441,6.88594601 8.52121577,6.89331209 8.47701929,6.90804425 C7.93192937,7.07009801 7.56362537,7.61518793 7.63728617,8.14554569 C7.73304521,8.87478761 8.40335849,9.11050217 8.88951977,9.27992201 C9.13260041,9.36831497 9.38304713,9.45670793 9.51563657,9.57456521 C9.61876169,9.67032425 9.67769033,9.79554761 9.67032425,9.92077097 C9.67032425,10.0459943 9.61139561,10.1638516 9.50827049,10.2596107 C9.38304713,10.3774679 9.20626121,10.4363966 8.97791273,10.4511287 C8.79376073,10.4584948 8.56541225,10.4437627 8.29286729,10.3922001 C8.22657257,10.3774679 8.16764393,10.3701019 8.10871529,10.3480036 C7.91719721,10.289075 7.71831305,10.3995662 7.66675049,10.5837182 C7.60782185,10.7752363 7.71831305,10.9741204 7.90246505,11.025683 C7.98349193,11.0477812 8.07188489,11.0698795 8.16764393,11.0846116 C8.33706377,11.1140759 8.49175145,11.1361742 8.63907305,11.1435403 L8.63907305,11.3645227 C8.63907305,11.5634068 8.80112681,11.7180945 8.99264489,11.7180945 C9.19152905,11.7180945 9.34621673,11.5560407 9.34621673,11.3645227 L9.34621673,11.1067099 C9.59666345,11.0477812 9.80291369,10.9446561 9.97969961,10.7826023 C10.2375124,10.5542539 10.3774679,10.2448785 10.3774679,9.92077097 C10.384834,9.58929737 10.2448785,9.27992201 10.0017979,9.05157353 C9.75871721,8.82322505 9.43460969,8.71273385 9.11786825,8.60224265 L9.11786825,8.60224265 Z" id="路径"></path>
            </g>
        </g>
    </g>
</svg>