<?xml version="1.0" encoding="UTF-8"?>
<svg width="100px" height="100px" viewBox="0 0 100 100" version="1.1" xmlns="http://www.w3.org/2000/svg" xmlns:xlink="http://www.w3.org/1999/xlink">
    <!-- Generator: Sketch 57.1 (83088) - https://sketch.com -->
    <title>外汇</title>
    <desc>Created with Sketch.</desc>
    <g id="Page-1" stroke="none" stroke-width="1" fill="none" fill-rule="evenodd">
        <g id="STD标准账户" transform="translate(-413.000000, -1824.000000)" fill="#00A651" fill-rule="nonzero">
            <g id="外汇" transform="translate(413.000000, 1824.000000)">
                <circle id="Oval" opacity="0.1" cx="50" cy="50" r="50"></circle>
                <g id="外汇、经费信息审核" transform="translate(28.000000, 30.000000)">
                    <g id="Group" transform="translate(0.000000, 0.790242)">
                        <path d="M8.45074156,38.162612 C3.81052618,38.162612 0.0357150976,34.5114301 0.0357150976,30.0250644 C0.0357150976,25.5359514 3.81052618,21.8875168 8.45074156,21.8875168 C13.0895833,21.8875168 16.8643944,25.5359514 16.8643944,30.0250644 C16.8643944,34.5100565 13.0895833,38.162612 8.45074156,38.162612 M8.45074156,23.1114457 C4.48636572,23.1114457 1.26101768,26.2117909 1.26101768,30.0236907 C1.26101768,33.8328433 4.48636572,36.9359358 8.45074156,36.9359358 C12.4151174,36.9359358 15.6404654,33.8328433 15.6404654,30.0236907 C15.6404654,26.2117909 12.4151174,23.1114457 8.45074156,23.1114457 M35.6024577,37.7189206 C30.9622423,37.7189206 27.1874312,34.0677387 27.1874312,29.581373 C27.1874312,25.0936336 30.9622423,21.4438254 35.6024577,21.4438254 C40.2412994,21.4438254 44.0161105,25.0936336 44.0161105,29.581373 C44.0161105,34.0677387 40.2412994,37.7189206 35.6024577,37.7189206 M35.6024577,22.669128 C31.6380818,22.669128 28.4127338,25.7694732 28.4127338,29.581373 C28.4127338,33.3918992 31.6394555,36.493618 35.6024577,36.493618 C39.5654599,36.493618 42.7921816,33.3918992 42.7921816,29.581373 C42.7921816,25.7694732 39.5668335,22.669128 35.6024577,22.669128 M21.9881372,16.2884884 C17.3479218,16.2884884 13.5731107,12.6386802 13.5731107,8.15231444 C13.5731107,3.66457506 17.3479218,0.0147668192 21.9881372,0.0147668192 C26.6283526,0.0147668192 30.4031637,3.66457506 30.4031637,8.15231444 C30.4031637,12.6373065 26.6283526,16.2884884 21.9881372,16.2884884 M21.9881372,1.2400694 C18.0237614,1.2400694 14.7984133,4.3404146 14.7984133,8.15231444 C14.7984133,11.9628406 18.0237614,15.0645595 21.9881372,15.0645595 C25.952513,15.0645595 29.1764874,11.9628406 29.1764874,8.15231444 C29.1764874,4.33904094 25.952513,1.2400694 21.9881372,1.2400694" id="Shape"></path>
                        <path d="M24.2587932,8.06714767 L24.2587933,8.06714773 C23.9230997,7.89092635 23.5700071,7.75005733 23.2051979,7.64680893 L23.2051972,7.6468087 C23.0433503,7.59812756 22.8807826,7.55187565 22.7175487,7.50806928 L22.7175487,5.27038105 L22.724417,5.27175471 L23.3878936,5.47642969 C23.6269101,5.54785989 23.8151011,5.58357498 23.9497196,5.58357498 C24.1475263,5.58357498 24.3041233,5.52450771 24.4195105,5.4049995 C24.5348977,5.28549128 24.5925913,5.13026798 24.5925913,4.93658225 L24.5925913,4.93658187 C24.5938322,4.7766628 24.5129239,4.62729428 24.3783003,4.54096848 C23.9662031,4.24013747 23.4084981,4.06293564 22.7175483,3.99837373 L22.7175483,3.21813622 L22.7175483,3.21813622 C22.7175483,2.87977816 22.4432551,2.60548493 22.104897,2.60548493 C21.766539,2.60548493 21.4922457,2.87977816 21.4922457,3.21813622 L21.4922457,4.00936299 L21.4922457,4.00936299 C20.9076514,4.07922979 20.351114,4.29928931 19.8768244,4.64811378 C19.2421946,5.12065199 18.923506,5.73879791 18.923506,6.50255154 C18.923506,7.22372178 19.2820306,7.75807458 19.9963326,8.10698361 C20.3260104,8.26495424 20.6721721,8.39407805 21.0389387,8.49160774 L21.4922457,8.60424766 L21.4922457,11.2361756 L21.4922455,11.2361756 C21.1605905,11.1874485 20.8334822,11.1116437 20.5142013,11.0095221 C20.0430367,10.8625407 19.7133589,10.7883632 19.5237941,10.7883632 L19.5237942,10.7883632 C19.3560654,10.7787939 19.1917412,10.8383678 19.0691135,10.9532021 L19.0691135,10.9532021 C18.9451517,11.0687464 18.8762194,11.2315858 18.8795488,11.4010145 C18.8795488,11.6056894 18.9702102,11.771902 19.1501593,11.8996522 C19.6487971,12.2554295 20.4304082,12.4573572 21.4922456,12.5054352 L21.4922456,13.0851187 L21.4922456,13.0851188 C21.4922456,13.4234768 21.7665388,13.69777 22.1048968,13.69777 C22.4432549,13.69777 22.7175481,13.4234768 22.7175481,13.0851188 L22.7175481,12.4669728 L22.7175483,12.4669728 C23.3055811,12.3931709 23.8657157,12.1730835 24.3467062,11.8268484 C25.0046882,11.3460682 25.3329924,10.7086911 25.3329924,9.91609065 C25.3316187,9.0850278 24.9744678,8.46825554 24.2587922,8.06714752 M20.6089839,6.28139264 C20.6089839,5.93248361 20.7751965,5.65912574 21.1076216,5.45857173 C21.2257562,5.38714154 21.35488,5.33356889 21.4922458,5.29373282 L21.4922458,7.15915984 C20.9070676,6.93250634 20.6089839,6.64129093 20.6089839,6.28139264 M23.0843149,10.9586968 L23.0843148,10.9586968 C22.9693981,11.0318831 22.8463042,11.0913556 22.7175487,11.1358986 L22.7175487,8.94354111 C23.3288263,9.18942582 23.6406466,9.52322462 23.6406466,9.95043213 L23.6406466,9.9504336 C23.6501535,10.3621471 23.4376857,10.7472108 23.0843153,10.9586983 M11.1994297,32.8094697 C11.1032737,32.5388592 10.9301929,32.4014934 10.6801872,32.4014934 C10.5881521,32.4014934 10.3642459,32.4839129 10.0098423,32.6432572 C9.58950304,32.8314482 9.15817455,32.9234833 8.71448315,32.9234833 L8.71448325,32.9234833 C7.9599503,32.9431505 7.24172914,32.5998758 6.78312067,32.0003854 L6.78312063,32.0003853 C6.6834197,31.8738436 6.59515834,31.7386937 6.51937837,31.59653 L8.11968947,31.59653 L8.1196895,31.59653 C8.45766808,31.5805128 8.71866861,31.2935423 8.70265262,30.9555642 C8.68769782,30.6400046 8.4352487,30.3875568 8.1196895,30.3726011 L6.15673279,30.3726011 L6.15673274,30.3726006 C6.13763997,30.213938 6.12709337,30.0543632 6.12513866,29.8945678 C6.12513866,29.6816509 6.13887523,29.4769759 6.16497473,29.2819165 L8.11968949,29.2819165 L8.11968952,29.2819165 C8.45804757,29.2819165 8.73234081,29.0076233 8.73234081,28.6692652 C8.73234078,28.3309072 8.45804757,28.0566139 8.11968952,28.0566139 L6.57844569,28.0566139 C6.62927102,27.9700735 6.67460172,27.8780384 6.733669,27.7969926 C7.21032819,27.1321424 7.87105749,26.7969699 8.71448326,26.7969699 C9.1471854,26.7969699 9.56203,26.8752684 9.9603907,27.0277444 C10.3216626,27.1664838 10.5373269,27.233793 10.6073834,27.233793 L10.6073835,27.233793 C10.7469939,27.238085 10.8807868,27.1777766 10.9700291,27.0703278 L10.9700291,27.0703278 C11.0646857,26.956913 11.1145288,26.8127588 11.1101421,26.6650988 L11.1101422,26.6650981 C11.1178704,26.4821304 11.0468638,26.3046139 10.9150824,26.1774497 C10.4535334,25.7502422 9.72000024,25.5359516 8.71448288,25.5359516 C7.52077442,25.5359516 6.55097216,25.9521698 5.80644974,26.78598 L5.80644944,26.7859803 C5.4762552,27.1589528 5.21695716,27.5890978 5.04132215,28.0552399 L3.82426152,28.0552399 L3.82426152,28.0552399 C3.48590346,28.05524 3.21161023,28.3295332 3.21161023,28.6678912 C3.21161023,29.0062493 3.48590346,29.2805425 3.82426152,29.2805425 L4.761096,29.2805425 L4.76109581,29.2805444 C4.72367132,29.6430346 4.72137126,30.0082953 4.75422773,30.3712285 L3.82426154,30.3712285 L3.82426151,30.3712285 C3.48628293,30.3712286 3.21229705,30.6452144 3.21229705,30.983193 C3.21229706,31.3211716 3.48628293,31.5951575 3.82426151,31.5951575 L5.02758557,31.5951575 C5.20616106,32.0731903 5.46578234,32.5086398 5.80644943,32.9001322 C6.56196111,33.7559209 7.53176337,34.184502 8.71448257,34.184502 L8.71448255,34.184502 C9.27365563,34.1929853 9.82975945,34.1003788 10.3560034,33.9111442 C10.9411815,33.6886116 11.2323969,33.378165 11.2323969,32.9798043 L11.2323969,32.9798045 C11.2305441,32.9216339 11.2194148,32.8641322 11.1994292,32.8094709 M38.7604953,26.4617991 C38.7604953,26.2791027 38.7028017,26.129374 38.5874144,26.0126131 C38.4720272,25.8958522 38.3222985,25.8367849 38.1354811,25.8367849 C37.8854754,25.8367849 37.7041526,25.9219517 37.5887654,26.0881643 L35.5859726,28.9357565 L33.5804325,26.0881643 C33.4650452,25.9219517 33.2809751,25.8367849 33.0337168,25.8367849 L33.0337167,25.8367849 C32.8660807,25.8320564 32.7041415,25.8978286 32.587278,26.0181077 L32.587278,26.0181077 C32.4692791,26.1351605 32.4046897,26.2956398 32.4087025,26.4617991 C32.4087025,26.6101542 32.4471649,26.7406516 32.5254634,26.8519179 L34.3331968,29.3464801 L33.454056,29.3464801 L33.4540559,29.3464801 C33.1160773,29.3464801 32.8420915,29.620466 32.8420915,29.9584446 C32.8420915,30.2964231 33.1160773,30.570409 33.4540559,30.570409 L34.9197486,30.570409 L34.9197486,31.6610932 L33.4540559,31.6610932 L33.4540559,31.6610932 C33.1160773,31.6771104 32.8550768,31.9640808 32.8710928,32.302059 C32.8860476,32.6176186 33.1384963,32.8700664 33.4540559,32.8850221 L34.9197486,32.8850221 L34.9197486,33.4839368 C34.9197486,33.900155 35.1409075,34.108951 35.5845989,34.108951 C36.021422,34.108951 36.2425808,33.900155 36.2425808,33.4839368 L36.2425808,32.8850221 L37.7508569,32.8850221 L37.7508569,32.8850221 C38.0888355,32.8690048 38.349836,32.5820344 38.33382,32.2440563 C38.3188652,31.9284966 38.0664161,31.6760489 37.7508569,31.6610932 L36.2425809,31.6610932 L36.2425809,30.570409 L37.7508569,30.570409 L37.750857,30.570409 C38.0888355,30.5543918 38.3498361,30.2674214 38.3338201,29.9294432 C38.3188653,29.6138836 38.0664162,29.3614358 37.750857,29.3464801 L36.8332537,29.3464801 L38.6437344,26.8519179 L38.6437344,26.8519179 C38.7227562,26.7374141 38.7636178,26.6008884 38.7604953,26.4617991 M36.0090591,21.4534435 C36.5777534,21.4809166 37.1340847,21.5619624 37.6711848,21.6938336 C37.2398564,16.5000342 34.4032534,11.9985582 30.3083801,9.37349785 L30.3083802,9.37349785 C30.2182816,9.94046643 30.0667448,10.4959478 29.8564469,11.0301289 L29.8564469,11.0301292 C33.3192321,13.4503422 35.5634366,17.252283 36.0090597,21.4534431 M16.2325113,26.9315897 L21.9867629,23.9672365 L27.6627161,26.8917535 C27.8509072,26.3752583 28.08855,25.8834889 28.3756444,25.4219399 L22.8040892,22.5496219 L22.8040892,16.2486544 L22.8040898,16.2486544 C22.2609542,16.301657 21.7139465,16.301657 21.1708109,16.2486544 L21.1708109,22.5482483 L15.4426587,25.5016121 C15.7517317,25.9494245 16.0168476,26.428831 16.2325118,26.9315897 M29.6009476,35.2779299 L29.6009471,35.2779299 C27.3473717,36.7833679 24.6982773,37.5873654 21.9881367,37.5884257 L21.9881362,37.5884257 C19.4045481,37.5876208 16.8735367,36.8582236 14.6857724,35.4839822 L14.6857727,35.4839818 C14.2973487,35.8967917 13.8684465,36.2695508 13.4055276,36.5966402 L13.4055276,36.5966398 C18.7269484,40.1839724 25.717449,40.0859233 30.9361466,36.350756 L30.9361466,36.3507565 C30.4556884,36.0395762 30.008301,35.6800982 29.6009515,35.2779299 M7.92600818,21.9053731 C8.27903819,17.3819187 10.6513449,13.4354004 14.1184566,11.0301259 L14.1184566,11.0301249 C13.9078088,10.4956905 13.7567099,9.93966394 13.6678965,9.37212013 C9.44802039,12.0768519 6.56471308,16.7720136 6.27075008,22.1649934 L6.27075008,22.1649934 C6.81263654,22.0243107 7.36706621,21.9373505 7.92600319,21.9053721" id="Shape"></path>
                    </g>
                </g>
            </g>
        </g>
    </g>
</svg>