<?xml version="1.0" encoding="UTF-8"?>
<svg width="18px" height="16px" viewBox="0 0 18 16" version="1.1" xmlns="http://www.w3.org/2000/svg" xmlns:xlink="http://www.w3.org/1999/xlink">
    <!-- Generator: Sketch 57.1 (83088) - https://sketch.com -->
    <title>9</title>
    <desc>Created with Sketch.</desc>
    <g id="Page-1" stroke="none" stroke-width="1" fill="none" fill-rule="evenodd">
        <g id="STD标准账户" transform="translate(-652.000000, -1377.000000)" fill="#00C096" fill-rule="nonzero">
            <g id="9" transform="translate(652.000000, 1377.000000)">
                <path d="M10.3153942,15.828893 C9.64251065,15.828893 8.7028805,15.498982 7.61485051,15.116948 C6.5848564,14.7552781 5.41750932,14.3454302 4.41746361,14.2198491 C3.75603938,14.1368418 3.02629023,14.0947583 2.24852863,14.0947583 C1.5343279,14.0947583 0.933698914,14.130257 0.555624353,14.1600162 L0.5208333,14.1628466 L0.507624472,14.1625321 C0.316449694,14.1599769 0.160282688,13.981737 0.160282688,13.7652842 C0.160282688,13.5533329 0.313225948,13.3754081 0.501216667,13.3686268 L0.636646509,13.3636932 L0.636646509,13.3575212 L0.723997814,13.3515064 C1.23218472,13.316676 1.74137319,13.2992215 2.25067885,13.2992215 C3.05065761,13.2992215 3.80586142,13.3430936 4.49539499,13.4295998 C5.56232187,13.5635357 6.7638611,13.9853726 7.82395361,14.3575003 C8.81432121,14.7053327 9.74967012,15.0338042 10.3130445,15.0337838 L10.3130444,15.0337838 C10.329053,15.0337909 10.3450605,15.0335157 10.3610594,15.0329585 C11.2991817,14.9998774 13.9219615,13.5466696 14.8534135,12.9895233 L14.8590941,12.9859263 C15.9124585,12.2873318 16.5798577,11.8236667 16.7382482,11.6805325 L16.7418452,11.6772696 L16.7457764,11.6743802 C17.0074964,11.4830101 17.221629,11.0817512 17.1112401,10.7672562 C17.0132549,10.4877472 16.7049499,10.1763178 16.4191518,10.1763178 L16.4191518,10.1763178 C16.3799098,10.176178 16.3409002,10.1823433 16.303614,10.1945783 L16.3000169,10.1956987 L11.0342574,11.7036282 L11.0065031,11.7366503 C10.7383362,12.0560609 10.3601554,12.211342 9.85037633,12.211342 C9.17658805,12.211342 8.28281565,11.9497594 6.95242657,11.3631851 L6.86951761,11.326625 L6.8701859,11.3248363 L6.74464308,11.2682664 C6.56762141,11.1904287 6.47657464,10.9629886 6.54251988,10.7615342 C6.59336998,10.6057801 6.72630404,10.5011313 6.87334918,10.5011313 C6.92596834,10.50121 6.97776187,10.5144974 7.02426791,10.5398144 L7.02861189,10.5421535 L7.03275929,10.5440011 C8.34220308,11.132463 9.26061607,11.418497 9.8404279,11.4184564 C10.1812634,11.4184564 10.4191991,11.3172281 10.5476505,11.1175817 C10.6730951,10.9229288 10.7235722,10.7421525 10.6975864,10.5802261 C10.6554834,10.3169733 10.4254289,10.1337797 10.4156602,10.1261141 L10.3871198,10.103549 C9.82515479,9.62620268 8.81560597,8.83386923 7.81979463,8.17173875 C6.5390883,7.32014286 5.60129721,6.88835899 5.03250099,6.88835899 C4.9153316,6.88835899 4.38495331,6.99186746 2.47973834,8.32344326 C1.77125791,8.81875518 1.27468818,9.21670941 0.977980712,9.4544685 L0.975445075,9.45649308 C0.899140476,9.51764285 0.83323399,9.57045857 0.780792176,9.61124478 L0.769981392,9.61969684 L0.760900309,9.63011452 C0.694738198,9.7060849 0.602925493,9.74968188 0.509067789,9.74968204 C0.469696898,9.74968204 0.430620693,9.74211448 0.392920581,9.72719566 C0.209509857,9.65480262 0.111250596,9.42011008 0.178434893,9.21472438 C0.202572521,9.14083743 0.245304659,9.07719141 0.30203178,9.03070428 L0.399623854,8.95070437 L0.396518217,8.94553485 L0.4649997,8.89281741 C0.770316532,8.65779112 1.39649705,8.18386511 2.15984148,7.65020479 C4.12213607,6.27835326 4.71319788,6.09339098 5.03257251,6.09339098 C5.74691074,6.09339098 6.90586721,6.62257005 8.38411548,7.62365014 C9.57359848,8.42915232 10.608316,9.29646069 10.8036439,9.46211675 L10.808951,9.46644107 C10.8887544,9.52782678 11.2920161,9.8626078 11.3885676,10.4216634 C11.3982383,10.4767591 11.4045478,10.5346264 11.4073194,10.593391 L11.4157322,10.7740958 L16.2283516,9.39591615 L16.2632409,9.39229945 L16.2702777,9.39078594 L16.2702777,9.39078594 C16.3268544,9.3789536 16.3845062,9.37302503 16.4423072,9.3730955 C16.9382472,9.3730955 17.4813825,9.80061375 17.733726,10.3895849 C17.8314164,10.6175159 18.0853725,11.4236087 17.2531375,12.227364 L17.239968,12.2402584 C17.1634274,12.3153836 16.9597121,12.5152846 15.2092672,13.6761286 L15.1930707,13.6863104 C13.892355,14.4651204 11.4176376,15.7912923 10.3831075,15.8277923 L10.3831074,15.8277923 C10.3605442,15.8285091 10.3379712,15.828893 10.3153967,15.828893 L10.3153942,15.828893 Z" id="路径"></path>
                <path d="M9.5373639,3.38790231 C9.69874028,3.433976 9.86683696,3.34041346 9.91299003,3.17889943 C10.328263,1.72335268 11.6755505,0.706761678 13.189205,0.706761678 C14.4913956,0.706761678 15.6704208,1.45905611 16.2387952,2.5960251 L15.5854881,2.3722613 C15.426707,2.31785355 15.253951,2.40262986 15.1996214,2.56162671 C15.1452922,2.72060465 15.2299506,2.89357788 15.3887321,2.94798563 L16.6591775,3.3831695 L16.6591775,3.3831695 C16.7662466,3.41971587 16.8847538,3.39373588 16.9667146,3.31574943 L16.9667146,3.31574942 C17.0487385,3.2377142 17.080735,3.12063558 17.0498005,3.01172946 C16.5603667,1.29635646 14.972756,0.0982797268 13.1892425,0.0982797268 C11.4056508,0.0982797268 9.8181214,1.29635177 9.32873135,3.01177634 L9.32873135,3.01177634 C9.30658465,3.08936406 9.31612811,3.17256834 9.35526694,3.24312763 L9.35526694,3.24312764 C9.39436081,3.3136413 9.4598712,3.3657314 9.53737923,3.3879334 L9.5373639,3.38790231 Z M16.465309,5.05690037 C16.0500954,6.51246586 14.7028266,7.52910061 13.1891722,7.52910061 C11.8869815,7.52910061 10.7080032,6.77680618 10.139582,5.63983719 L10.7928296,5.86356193 L10.7928296,5.86356193 C10.8690658,5.88976471 10.9525982,5.88453065 11.0249669,5.84901649 L11.0249669,5.84901649 C11.0973771,5.81346543 11.1526772,5.7505777 11.1786767,5.67421513 L11.1786767,5.67421512 C11.2047889,5.59788177 11.1995362,5.51430593 11.1640723,5.44184196 L11.1640723,5.44184198 C11.1286356,5.36941987 11.0658655,5.31405322 10.9895866,5.28793544 L9.71914117,4.85275157 L9.71914116,4.85275156 C9.61211503,4.81603942 9.49355236,4.84193881 9.4115837,4.9199357 L9.41158371,4.9199357 C9.32952912,4.99805154 9.29758087,5.1152386 9.32863537,5.22419159 C9.81803011,6.93951772 11.4054923,8.13757883 13.1891153,8.13757883 C14.9727069,8.13757883 16.5601738,6.93950679 17.0495951,5.22408222 L17.0495951,5.22408223 C17.0717887,5.14650029 17.0622727,5.06328086 17.0231381,4.99271219 L17.0231381,4.99271222 C16.9840338,4.9221798 16.9184883,4.87009111 16.8409462,4.84792614 C16.6795901,4.80179353 16.5114325,4.89533639 16.46532,5.05688839 L16.465309,5.05690037 Z" id="形状"></path>
                <path d="M13.2284221,6.19163342 C13.3966782,6.19163342 13.5330905,6.05522077 13.5330905,5.88692596 L13.5330905,5.8242626 C14.0643914,5.71959444 14.4470941,5.34609128 14.4470941,4.88857775 C14.4470941,4.24873631 13.7148887,4.01366939 13.3215517,3.88741954 C12.7041571,3.68926821 12.6190853,3.543459 12.6190853,3.41538103 C12.6190853,3.24753903 12.879685,3.05990175 13.2284205,3.05990175 C13.4985718,3.05990175 13.7255403,3.17445693 13.9026994,3.40040292 C14.0066404,3.53272714 14.1980897,3.55584258 14.3305114,3.45203926 C14.4628749,3.34817704 14.4860297,3.15668805 14.3822461,3.02424601 C14.1548651,2.73451666 13.8651357,2.55079188 13.5331471,2.48172008 L13.5331471,2.34892414 C13.5331471,2.18066809 13.3966558,2.04421668 13.2284787,2.04421668 C13.0602429,2.04421668 12.9238103,2.18072762 12.9238103,2.34892414 L12.9238103,2.47979383 C12.3925093,2.58436371 12.0097917,2.95792609 12.0097917,3.41538024 C12.0097917,4.10628882 12.770062,4.35041666 13.1353491,4.4676634 C13.621147,4.62357478 13.8378155,4.75344119 13.8378155,4.88851759 C13.8378155,5.05635958 13.5772158,5.24399687 13.2284802,5.24399687 C12.9217884,5.24399687 12.7345246,5.15102401 12.560806,4.912341 L12.560806,4.91234101 C12.4618882,4.7763582 12.2714642,4.74631152 12.1354799,4.84522906 C12.135378,4.84530319 12.1352762,4.84537739 12.1351743,4.84545165 L12.1351744,4.84545164 C11.9991542,4.9444473 11.9691402,5.13496536 12.0681357,5.27098552 C12.0681593,5.27101788 12.0681828,5.27105023 12.0682064,5.27108259 C12.295528,5.58324004 12.5721855,5.7639367 12.923871,5.82721006 L12.923871,5.88702328 C12.923871,6.05525902 13.0602246,6.19163342 13.2284206,6.19163342 L13.2284221,6.19163342 Z" id="路径"></path>
            </g>
        </g>
    </g>
</svg>