<?xml version="1.0" encoding="UTF-8"?>
<svg width="18px" height="18px" viewBox="0 0 18 18" version="1.1" xmlns="http://www.w3.org/2000/svg" xmlns:xlink="http://www.w3.org/1999/xlink">
    <!-- Generator: Sketch 57.1 (83088) - https://sketch.com -->
    <title>11</title>
    <desc>Created with Sketch.</desc>
    <g id="Page-1" stroke="none" stroke-width="1" fill="none" fill-rule="evenodd">
        <g id="STD标准账户" transform="translate(-654.000000, -1500.000000)" fill="#00C096" fill-rule="nonzero">
            <g id="11" transform="translate(654.000000, 1500.000000)">
                <path d="M9.0000128,17.800023 C4.13800714,17.800023 0.20000256,13.8620185 0.20000256,9.0000128 C0.20000256,4.13800714 4.13800714,0.20000256 9.0000128,0.20000256 C13.8620185,0.20000256 17.800023,4.13800714 17.800023,9.0000128 C17.800023,13.8620185 13.8620185,17.800023 9.0000128,17.800023 Z M9.0000128,16.1940212 C12.9490174,16.1940212 16.1500211,12.9930174 16.1500211,9.04401285 C16.1500211,5.09500826 12.9490174,1.89400453 9.0000128,1.89400453 C5.0510082,1.89400453 1.85000448,5.09500826 1.85000448,9.04401285 C1.85000448,12.9930174 5.0510082,16.1940212 9.0000128,16.1940212 L9.0000128,16.1940212 Z M9.02201283,10.4080144 C8.5710123,10.4080144 8.20801188,10.045014 8.20801188,9.59401349 L8.18601185,6.09600942 C8.18601185,5.6450089 8.54901228,5.28200847 8.98901279,5.28200847 C9.44001331,5.28200847 9.80301373,5.6450089 9.80301373,6.09600942 L9.82501376,9.59401349 C9.83601377,10.045014 9.47301335,10.4080144 9.02201283,10.4080144 Z M9.03301284,12.9270174 C8.58201231,12.9270174 8.21901189,12.5640169 8.20801188,12.1130164 L8.20801188,12.0800164 C8.19701187,11.6400159 8.56001229,11.2770154 9.0000128,11.2660154 L9.01101281,11.2660154 C9.46201334,11.2660154 9.82501376,11.6290159 9.83601377,12.0800164 L9.83601377,12.1130164 C9.84701379,12.5640169 9.49501338,12.9270174 9.03301284,12.9270174 C9.04401285,12.9270174 9.04401285,12.9270174 9.03301284,12.9270174 Z" id="形状"></path>
            </g>
        </g>
    </g>
</svg>