<?xml version="1.0" encoding="UTF-8"?>
<svg width="18px" height="15px" viewBox="0 0 18 15" version="1.1" xmlns="http://www.w3.org/2000/svg" xmlns:xlink="http://www.w3.org/1999/xlink">
    <!-- Generator: Sketch 57.1 (83088) - https://sketch.com -->
    <title>5</title>
    <desc>Created with Sketch.</desc>
    <g id="Page-1" stroke="none" stroke-width="1" fill="none" fill-rule="evenodd">
        <g id="STD标准账户" transform="translate(-652.000000, -1136.000000)" fill="#00C096" fill-rule="nonzero">
            <g id="5" transform="translate(652.000000, 1136.000000)">
                <path d="M3.79066893,8.42871503 L3.79066888,8.42871503 C4.92108,8.43130711 5.83957046,7.51703383 5.8421673,6.38661571 C5.84299856,6.02252031 5.74669871,5.66479284 5.56319308,5.35032135 L5.56319312,5.35032142 C4.99346095,4.37398029 3.74012471,4.044358 2.76378358,4.61409017 C1.78744246,5.18382234 1.45782017,6.43715859 2.02755233,7.41349971 C2.39355279,8.04070993 3.06448544,8.42703145 3.79066752,8.42871503 L3.79066893,8.42871503 Z M3.17253574,5.32167548 L3.17253566,5.32167552 C3.761345,4.98503674 4.5115672,5.18946198 4.84820037,5.77827119 C5.18483915,6.36708053 4.98041391,7.11730273 4.39160471,7.4539359 C3.80705653,7.78813873 3.06240802,7.58932416 2.72222948,7.00822988 L2.72222947,7.00822986 C2.37957716,6.42290005 2.57630499,5.67062291 3.16163481,5.3279706 C3.16525403,5.32585189 3.16888409,5.32375175 3.17252483,5.32167024 L3.17253574,5.32167548 Z M11.5644048,3.24212491 L11.5644048,3.2421249 C11.97941,3.35049596 12.4203688,3.29170146 12.7924822,3.07838115 L12.7924823,3.0783811 C13.5776763,2.62973204 13.8504985,1.62950208 13.4018495,0.844310896 C13.1814373,0.458560898 12.8137377,0.178933718 12.3831236,0.0695905161 L12.3831238,0.0695905514 C11.5043117,-0.143728078 10.618958,0.395761328 10.4056478,1.2745748 C10.3085632,1.67453707 10.3656594,2.09639068 10.5655702,2.45615628 L10.5655702,2.45615624 C10.7816077,2.83728928 11.1413663,3.11595553 11.5644064,3.22984565 L11.5644048,3.24212491 Z M11.195981,1.4450409 L11.195981,1.4450409 C11.3055421,1.00634996 11.7499881,0.739535678 12.1886804,0.849097401 C12.6273714,0.958658424 12.8941856,1.40310445 12.7846239,1.84179679 C12.6750629,2.28048773 12.2306169,2.54730201 11.7919245,2.43774029 C11.5742369,2.38337392 11.3884015,2.24204903 11.2778522,2.04679901 L11.2778523,2.04679908 C11.1700975,1.85961894 11.1406703,1.6374446 11.1959804,1.42866589 L11.195981,1.4450409 Z M17.8071272,2.5871527 L0.613998101,12.5141186 L0.613998124,12.5141186 C0.413670294,12.6189136 0.166318402,12.5414685 0.0615235211,12.3411395 C-0.0370789481,12.1526482 0.0251186041,11.9200465 0.204639441,11.8059267 L17.3977685,1.87896078 L17.3977685,1.87896079 C17.5980963,1.77416577 17.8454482,1.85161077 17.9502431,2.05193986 C18.0488457,2.24043113 17.9866482,2.47303285 17.8071272,2.5871527 L17.8071272,2.5871527 Z M11.2819467,8.94041592 L11.2819467,8.94041591 C11.188522,8.73407595 10.9844428,8.60014912 10.7579667,8.59653671 L10.7579667,8.59653671 C10.5346689,8.59480739 10.3298278,8.72025267 10.2298936,8.91994917 L7.95385612,13.5088645 L7.9538561,13.5088646 C7.82714538,13.808754 7.96753394,14.1545805 8.26742269,14.2812919 C8.33539719,14.3100128 8.4081601,14.3257155 8.48192918,14.3275836 L13.0340041,14.3275836 L13.0340041,14.3275836 C13.3593946,14.3171081 13.6146847,14.0448341 13.6042083,13.7194436 C13.6018763,13.6470059 13.5862061,13.5756189 13.5579837,13.5088649 L11.2819467,8.94041592 Z M8.850353,13.5088659 L10.753868,9.70182192 L12.6614873,13.5088659 L8.850353,13.5088659 Z" id="形状"></path>
            </g>
        </g>
    </g>
</svg>