<?xml version="1.0" encoding="UTF-8"?>
<svg width="15px" height="18px" viewBox="0 0 15 18" version="1.1" xmlns="http://www.w3.org/2000/svg" xmlns:xlink="http://www.w3.org/1999/xlink">
    <!-- Generator: Sketch 57.1 (83088) - https://sketch.com -->
    <title>7</title>
    <desc>Created with Sketch.</desc>
    <g id="Page-1" stroke="none" stroke-width="1" fill="none" fill-rule="evenodd">
        <g id="STD标准账户" transform="translate(-654.000000, -1254.000000)" fill="#00C096" fill-rule="nonzero">
            <g id="7" transform="translate(654.000000, 1254.000000)">
                <path d="M11.4735615,13.1917758 L3.64307253,13.1917758 C3.40293733,13.1917758 3.20804479,12.9968833 3.20804479,12.7567481 C3.20804479,12.5166129 3.40293733,12.3217203 3.64307253,12.3217203 L11.4735615,12.3217203 C11.7136967,12.3217203 11.9085892,12.5166129 11.9085892,12.7567481 C11.9085892,12.9968833 11.7136967,13.1917758 11.4735615,13.1917758 Z M11.4735615,4.94366496 L3.64307253,4.94366496 C3.40293733,4.94366496 3.20804479,4.74877242 3.20804479,4.50863721 C3.20804479,4.26850201 3.40293733,4.07360947 3.64307253,4.07360947 L11.4735615,4.07360947 C11.7136967,4.07360947 11.9085892,4.26850201 11.9085892,4.50863721 C11.9085892,4.74877242 11.7136967,4.94366496 11.4735615,4.94366496 Z M7.45391153,16.9486832 L1.46793381,16.9486832 C1.21735893,16.9486832 1.01376521,16.7381302 1.01376521,16.4771139 L1.01376521,1.34163865 C1.01376521,1.08062235 1.21735719,0.870069425 1.46793381,0.870069425 L13.4364053,0.870069425 C13.6869802,0.870069425 13.8905739,1.08062235 13.8905739,1.34163865 L13.8905739,10.4598154 L14.7606276,10.4598154 L14.7606276,0.522055242 C14.7606276,0.233196904 14.5291936,2.26457189e-05 14.245556,2.26457189e-05 L0.658786596,2.26457189e-05 C0.37340873,2.26457189e-05 0.143714945,0.233196904 0.143714945,0.522055242 L0.143714945,17.2967148 C0.143714945,17.5855731 0.375148966,17.8187473 0.658786596,17.8187473 L7.45391327,17.8187473 L7.45391327,16.9486936 L7.45391153,16.9486832 Z M13.8923159,10.5294231 L13.8923159,10.5294231 C13.8923159,10.769682 14.0870847,10.9644508 14.3273436,10.9644508 C14.5676025,10.9644508 14.7623714,10.769682 14.7623714,10.5294231 C14.7623714,10.5294231 14.7623714,10.5294231 14.7623714,10.5294231 L14.7623714,10.5294231 C14.7623714,10.2891642 14.5676025,10.0943953 14.3273436,10.0943953 C14.0870847,10.0943953 13.8923159,10.2891642 13.8923159,10.5294231 C13.8923159,10.5294231 13.8923159,10.5294231 13.8923159,10.5294231 L13.8923159,10.5294231 Z M7.10588167,17.4028518 L7.10588167,17.4028517 C7.10588167,17.6431106 7.30065053,17.8378795 7.54090942,17.8378795 C7.7811683,17.8378795 7.97593716,17.6431106 7.97593716,17.4028517 C7.97593716,17.4028517 7.97593716,17.4028517 7.97593716,17.4028517 L7.97593716,17.4028517 C7.97593716,17.1625928 7.7811683,16.9678239 7.54090942,16.9678239 C7.30065053,16.9678239 7.10588167,17.1625928 7.10588167,17.4028517 C7.10588167,17.4028517 7.10588167,17.4028517 7.10588167,17.4028517 L7.10588167,17.4028518 Z M11.1933991,17.738693 L9.30885721,16.4875553 C9.10874396,16.355307 9.05480186,16.0838501 9.18704954,15.8837369 C9.31929793,15.6836236 9.59075478,15.6296815 9.79086803,15.7619292 L11.6754099,17.0130668 C11.8755232,17.1453152 11.9294653,17.4167721 11.7972176,17.6168853 C11.6632291,17.8169986 11.3935123,17.8709407 11.1933991,17.738693 Z M11.0715914,17.1348745 L13.9584328,12.7845971 C14.0906812,12.5844838 14.3621381,12.5305417 14.5622513,12.6627894 C14.7623646,12.7950378 14.8163067,13.0664946 14.684059,13.2666079 L11.7972176,17.6168853 C11.6649692,17.8169986 11.3935123,17.8709407 11.1933991,17.738693 C10.9932858,17.6047045 10.9376035,17.3349878 11.0715914,17.1348745 Z M11.369151,9.06772038 L3.53866201,9.06772038 C3.2985268,9.06772038 3.10363426,8.87282784 3.10363426,8.63269264 C3.10363426,8.39255743 3.2985268,8.19766489 3.53866201,8.19766489 L11.369151,8.19766489 C11.6092862,8.19766489 11.8041787,8.39255743 11.8041787,8.63269264 C11.8041787,8.87282784 11.6092862,9.06772038 11.369151,9.06772038 Z" id="形状"></path>
            </g>
        </g>
    </g>
</svg>