<?xml version="1.0" encoding="UTF-8"?>
<svg width="100px" height="100px" viewBox="0 0 100 100" version="1.1" xmlns="http://www.w3.org/2000/svg" xmlns:xlink="http://www.w3.org/1999/xlink">
    <!-- Generator: Sketch 57.1 (83088) - https://sketch.com -->
    <title>贵金属</title>
    <desc>Created with Sketch.</desc>
    <g id="Page-1" stroke="none" stroke-width="1" fill="none" fill-rule="evenodd">
        <g id="STD标准账户" transform="translate(-810.000000, -1824.000000)" fill="#00A651" fill-rule="nonzero">
            <g id="贵金属" transform="translate(810.000000, 1824.000000)">
                <circle id="Oval" opacity="0.1" cx="50" cy="50" r="50"></circle>
                <g transform="translate(28.000000, 31.000000)" id="Shape">
                    <path d="M18.2044463,23.180535 L18.22992,23.2314101 L21.4396079,31.9819203 L21.3886605,32.159983 C21.0829759,34.6782984 19.5290794,36.2045502 17.1090766,36.3317378 L4.55053565,36.3317378 C1.72295342,36.1282376 0.270951726,34.6782984 0.245478012,32.0582329 L0.245478012,31.9056077 L0.29642544,31.7784201 L3.42969224,23.2314101 C4.11748252,21.2218453 5.08548364,19.0850928 7.73474988,19.0850928 L13.8739149,19.0850928 C16.3958126,19.0596553 17.3128663,21.1709702 18.2044463,23.180535 L18.2044463,23.180535 Z M15.5042326,33.2029217 C17.2109714,33.1011716 17.8987617,32.7196086 18.051604,31.727545 L15.4787589,24.6813493 C14.7654949,23.0533474 14.3324418,22.1884714 13.1606509,22.1884714 L8.52443501,22.1884714 C7.42906532,22.1884714 6.86864361,22.7989721 6.20632705,24.6559118 L6.20632705,24.6813493 L3.58253453,31.8038576 C3.60800824,32.8722338 4.16842995,33.0757341 6.18085334,33.2029217 L15.5042326,33.2029217 Z M15.7080223,17.9149664 C12.8804401,17.7114662 11.4284384,16.261527 11.4029647,13.6414614 L11.4029647,13.4888363 L11.4539121,13.3616486 L14.5871789,4.81463868 C15.2749692,2.80507384 16.2429703,0.66832135 18.8922366,0.66832135 L25.0568753,0.66832135 C27.5532993,0.66832135 28.470353,2.75419878 29.3619329,4.78920115 L29.3874067,4.8400762 L32.5970946,13.5905864 L32.5461472,13.7686491 C32.2404626,16.2869645 30.6865661,17.8132163 28.2665632,17.9404039 L28.2156158,17.9404039 L15.7080223,17.9149664 Z M17.3638137,6.26457786 L14.7400212,13.3870862 C14.7654949,14.4554624 15.3259166,14.6589626 17.33834,14.7861503 L26.687193,14.7861503 C28.3939318,14.6844002 29.0817221,14.3028372 29.2345644,13.3107736 L26.6107718,6.29001539 C25.8975079,4.6620135 25.4644547,3.79713749 24.2926639,3.79713749 L19.6819217,3.79713749 C18.5610783,3.79713749 18.0006566,4.38220067 17.3638137,6.26457786 L17.3638137,6.26457786 Z M40.5194196,23.2314101 L43.7291076,31.9819203 L43.6781601,32.159983 C43.3724756,34.6782984 41.818579,36.2045502 39.3985762,36.3317378 L26.8400353,36.3317378 C24.012453,36.1282376 22.5604513,34.6782984 22.5349776,32.0582329 L22.5349776,31.9056077 L22.5859251,31.7784201 L25.7191919,23.2314101 C26.4069821,21.2218453 27.3749833,19.0850928 30.0242495,19.0850928 L36.1634145,19.0850928 C38.6598385,19.0850928 39.5768922,21.1709702 40.4684722,23.2059726 L40.5194196,23.2314101 L40.5194196,23.2314101 Z M37.7937322,33.2029217 C39.5004711,33.1011716 40.1882613,32.7196086 40.3411036,31.727545 L37.7682585,24.6813493 C37.0549945,23.0533474 36.6219414,22.1884714 35.4501506,22.1884714 L30.8139346,22.1884714 C29.7185649,22.1884714 29.1581432,22.7989721 28.4958267,24.6559118 L28.4958267,24.6813493 L25.8720341,31.8038576 C25.8975079,32.8722338 26.4579296,33.0757341 28.470353,33.2029217 L37.7937322,33.2029217 L37.7937322,33.2029217 Z"></path>
                </g>
            </g>
        </g>
    </g>
</svg>