<?xml version="1.0" encoding="UTF-8"?>
<svg width="18px" height="17px" viewBox="0 0 18 17" version="1.1" xmlns="http://www.w3.org/2000/svg" xmlns:xlink="http://www.w3.org/1999/xlink">
    <!-- Generator: Sketch 57.1 (83088) - https://sketch.com -->
    <title>2</title>
    <desc>Created with Sketch.</desc>
    <g id="Page-1" stroke="none" stroke-width="1" fill="none" fill-rule="evenodd">
        <g id="STD标准账户" transform="translate(-652.000000, -953.000000)" fill="#00C096" fill-rule="nonzero">
            <g id="2" transform="translate(652.000000, 953.000000)">
                <path d="M16.4095552,12.6771297 L10.2400949,12.6771297 L10.2400949,15.1908045 L12.0963471,15.1908045 L12.0963471,16.428306 L5.94235555,16.428306 L5.94235555,15.1908045 L7.76251392,15.1908045 L7.76251392,12.6797078 L1.59047549,12.6797078 C0.907271568,12.6797078 0.352974048,12.1254103 0.352974048,11.4422064 L0.352974048,1.58602306 C0.352974048,0.902819136 0.907271568,0.348521616 1.59047549,0.348521616 L16.404399,0.348521616 C17.0876029,0.348521616 17.6419004,0.900241008 17.6470567,1.58344493 L17.6470567,11.4396283 C17.6470567,12.1228322 17.0927592,12.6771297 16.4095552,12.6771297 Z M16.4069771,1.58602306 L1.61110051,1.58602306 L1.61110051,11.4808783 L16.4069771,11.4808783 L16.4069771,1.58602306 Z M5.30297981,7.768374 L12.7305666,7.768374 L12.7305666,9.00587544 L5.30297981,9.00587544 L5.30297981,7.768374 Z M5.30297981,4.05844781 L12.7305666,4.05844781 L12.7305666,5.29594925 L5.30297981,5.29594925 L5.30297981,4.05844781 Z M12.7228322,5.35008994 L5.27977666,5.35008994 C4.92141686,5.35008994 4.6300884,5.05876147 4.6300884,4.70040168 C4.6300884,4.34204189 4.92141686,4.05071342 5.27977666,4.05071342 L12.7254103,4.05071342 C13.0837701,4.05071342 13.3750986,4.34204189 13.3750986,4.70040168 C13.3750986,5.05618334 13.081192,5.35008994 12.7228322,5.35008994 L12.7228322,5.35008994 Z M12.7228322,9.06001613 L5.27977666,9.06001613 C4.92141686,9.06001613 4.6300884,8.76868766 4.6300884,8.41032787 C4.6300884,8.05196808 4.92141686,7.76063962 5.27977666,7.76063962 L12.7254103,7.76063962 C13.0837701,7.76063962 13.3750986,8.05196808 13.3750986,8.41032787 C13.3750986,8.76610954 13.081192,9.06001613 12.7228322,9.06001613 L12.7228322,9.06001613 Z M11.8772062,16.4515091 L6.07641821,16.4515091 C5.75673034,16.4515091 5.49633941,16.1911182 5.49633941,15.8714303 L5.49633941,15.7322114 C5.49633941,15.4125235 5.75673034,15.1521326 6.07641821,15.1521326 L11.8772062,15.1521326 C12.1968941,15.1521326 12.457285,15.4125235 12.457285,15.7322114 L12.457285,15.8714303 C12.457285,16.18854 12.194316,16.4515091 11.8772062,16.4515091 Z" id="形状"></path>
            </g>
        </g>
    </g>
</svg>