<?xml version="1.0" encoding="UTF-8"?>
<svg width="18px" height="18px" viewBox="0 0 18 18" version="1.1" xmlns="http://www.w3.org/2000/svg" xmlns:xlink="http://www.w3.org/1999/xlink">
    <!-- Generator: Sketch 57.1 (83088) - https://sketch.com -->
    <title>1</title>
    <desc>Created with Sketch.</desc>
    <g id="Page-1" stroke="none" stroke-width="1" fill="none" fill-rule="evenodd">
        <g id="STD标准账户" transform="translate(-652.000000, -891.000000)" fill="#00C096" fill-rule="nonzero">
            <g id="1" transform="translate(652.000000, 891.000000)">
                <path d="M7.92000922,8.36000973 L8.36000973,8.36000973 L8.36000973,4.18000486 L8.36000973,4.18000486 C8.36000973,1.87144593 6.4885638,-4.88498699e-15 4.18000486,-4.88498699e-15 C1.87144593,-4.88498699e-15 9.94964499e-16,1.87144593 9.94964499e-16,4.18000486 C9.94964499e-16,6.4885638 1.87144593,8.36000973 4.18000486,8.36000973 L7.92000922,8.36000973 Z M0.88000088,4.18000486 L0.88000088,4.18000536 C0.88000088,2.35745793 2.35746259,0.880001522 4.18000486,0.880001522 C6.0025523,0.880001522 7.4800087,2.35746309 7.4800087,4.18000536 C7.4800087,4.18000536 7.4800087,4.18000536 7.4800087,4.18000536 L7.4800087,7.4800092 L4.18000486,7.4800092 L4.18000472,7.4800092 C2.35745729,7.4800092 0.88000088,6.00254764 0.88000088,4.18000536 C0.88000088,4.18000536 0.88000088,4.18000536 0.88000088,4.18000536 L0.88000088,4.18000486 Z M7.4800087,10.1200118 L7.4800087,13.4200156 L7.4800087,13.4200156 C7.4800087,15.242563 6.00254714,16.7200195 4.18000486,16.7200195 C2.35745743,16.7200195 0.880001024,15.2425579 0.880001024,13.4200156 C0.880001024,11.5974682 2.35746259,10.1200118 4.18000486,10.1200118 L7.4800087,10.1200118 Z M-1.82713603e-07,13.4200156 L-1.82713603e-07,13.4200162 C-1.82713603e-07,15.7285752 1.87144593,17.6000211 4.18000486,17.6000211 C6.4885638,17.6000211 8.36000973,15.7285752 8.36000973,13.4200162 L8.36000973,9.24001138 L4.18000486,9.24001138 L4.18000468,9.24001138 C1.87144574,9.24001138 -1.82713603e-07,11.1114573 -1.82713603e-07,13.4200162 C-1.82713603e-07,13.4200162 -1.82713603e-07,13.4200162 -1.82713603e-07,13.4200162 L-1.82713603e-07,13.4200156 Z M10.1200118,4.18000486 L10.1200118,4.18000536 C10.1200118,2.35745793 11.5974733,0.880001522 13.4200156,0.880001522 C15.242563,0.880001522 16.7200195,2.35746309 16.7200195,4.18000536 C16.7200195,6.0025528 15.2425579,7.4800092 13.4200156,7.4800092 L10.1200118,7.4800092 L10.1200118,4.18000486 Z M17.6000205,4.18000486 L17.6000205,4.18000486 C17.6000205,1.87144593 15.7285746,-2.22045173e-15 13.4200156,-2.22045173e-15 C11.1114567,-2.22045173e-15 9.24001075,1.87144593 9.24001075,4.18000486 L9.24001075,8.36000973 L13.4200156,8.36000973 L13.4200154,8.36000973 C15.7285744,8.36000973 17.6000205,6.4885638 17.6000205,4.18000486 L17.6000205,4.18000486 Z M10.1200118,10.1200118 L13.4200156,10.1200118 L13.4200155,10.1200118 C15.2425629,10.1185867 16.7211709,11.5948935 16.7225974,13.4174375 C16.722845,13.7340729 16.6775206,14.049096 16.5880181,14.3528201 L16.5880181,14.3528201 C16.5199765,14.5958259 16.6618129,14.8479788 16.9048185,14.9160208 C17.1478242,14.9840624 17.3999772,14.842226 17.4680191,14.5992204 L17.4680191,14.5992207 C17.5678686,14.21443 17.6123164,13.8173639 17.6000194,13.4200194 L17.6000194,13.4200194 C17.6000194,11.1114604 15.7285735,9.24001451 13.4200145,9.24001451 L9.24000962,9.24001451 L9.24000962,13.4200194 L9.24000962,13.419514 C9.24000962,15.7280729 11.1114556,17.5995188 13.4200145,17.5995188 C14.0607154,17.5995188 14.6928432,17.4522359 15.2675698,17.1690471 L15.2675698,17.169047 C15.4862741,17.0621245 15.5768919,16.7981507 15.46997,16.5794464 C15.3630475,16.360742 15.0990737,16.2701243 14.8803694,16.3770461 L14.8803693,16.3770461 C13.2461232,17.1838283 11.2672776,16.5130359 10.4604954,14.8787894 C10.2352392,14.422502 10.1185549,13.9203016 10.1195638,13.4114427 L10.1200118,10.1200118 Z" id="形状"></path>
            </g>
        </g>
    </g>
</svg>