<?xml version="1.0" encoding="UTF-8"?>
<svg width="18px" height="18px" viewBox="0 0 18 18" version="1.1" xmlns="http://www.w3.org/2000/svg" xmlns:xlink="http://www.w3.org/1999/xlink">
    <!-- Generator: Sketch 57.1 (83088) - https://sketch.com -->
    <title>4</title>
    <desc>Created with Sketch.</desc>
    <g id="Page-1" stroke="none" stroke-width="1" fill="none" fill-rule="evenodd">
        <g id="STD标准账户" transform="translate(-652.000000, -1073.000000)" fill="#00C096" fill-rule="nonzero">
            <g id="4" transform="translate(652.000000, 1073.000000)">
                <path d="M14.6804882,14.7707226 C12.1517743,17.2650615 8.17930872,17.87307 4.95235184,16.012521 C1.72539496,14.1519719 0.26875264,10.4029441 1.16035524,6.96544012 L0.50937792,6.58731468 C-0.56913896,10.3900535 1.01426132,14.577363 4.58711704,16.6398654 C8.15997276,18.7023678 12.5793138,17.9783436 15.3271686,15.1488481 L14.6804882,14.7707226 L14.6804882,14.7707226 Z M1.21836312,5.05547696 C1.21836312,5.25743032 1.38164456,5.41856332 1.58144948,5.41856332 C1.78340284,5.41856332 1.94453584,5.25528188 1.94453584,5.05547696 C1.94453584,4.8535236 1.7812544,4.6923906 1.58144948,4.6923906 C1.38164456,4.69024216 1.21836312,4.8535236 1.21836312,5.05547696 Z M9.0000128,2.63418508 C5.48516496,2.63418508 2.63418508,5.48516496 2.63418508,9.0000128 C2.63418508,12.5148606 5.48516496,15.3658405 9.0000128,15.3658405 C12.5148606,15.3658405 15.3658405,12.5148606 15.3658405,9.0000128 C15.3658405,5.48301652 12.5148606,2.63418508 9.0000128,2.63418508 Z M9.00645812,14.0767765 C6.20274392,14.0767765 3.9296944,11.803727 3.9296944,8.99786436 C3.9296944,6.19200172 6.20274392,3.9189522 9.00860656,3.9189522 C11.8144692,3.9189522 14.0875187,6.19200172 14.0875187,8.99786436 C14.0875187,11.803727 11.8101723,14.0767765 9.00645812,14.0767765 Z M13.4107601,1.3623086 C9.52208372,-0.88066276 4.63653116,0.16347908 1.9853562,3.64610032 L2.62129444,4.015632 C5.06621916,0.8789096 9.50919308,-0.05351336 13.0476738,1.99180152 C16.5861544,4.0371164 17.999828,8.34903548 16.5066622,12.0314616 L17.1426004,12.4009933 C18.8334227,8.36407456 17.301585,3.60527996 13.4107601,1.3623086 Z M15.6859581,13.5718931 C15.6859581,13.702948 15.7547082,13.8211122 15.8685755,13.8877138 C15.9802944,13.952167 16.119943,13.952167 16.2316618,13.8877138 C16.3433807,13.8232606 16.4142792,13.702948 16.4142792,13.5718931 C16.4142792,13.4408383 16.3455292,13.3226741 16.2316618,13.2560724 C16.119943,13.1916192 15.9802944,13.1916192 15.8685755,13.2560724 C15.7547082,13.3226741 15.6859581,13.4429867 15.6859581,13.5718931 Z" id="形状"></path>
            </g>
        </g>
    </g>
</svg>