<?xml version="1.0" encoding="UTF-8"?>
<svg width="100px" height="100px" viewBox="0 0 100 100" version="1.1" xmlns="http://www.w3.org/2000/svg" xmlns:xlink="http://www.w3.org/1999/xlink">
    <!-- Generator: Sketch 57.1 (83088) - https://sketch.com -->
    <title>大宗商品</title>
    <desc>Created with Sketch.</desc>
    <g id="Page-1" stroke="none" stroke-width="1" fill="none" fill-rule="evenodd">
        <g id="STD标准账户" transform="translate(-1200.000000, -1824.000000)" fill="#00A651" fill-rule="nonzero">
            <g id="大宗商品" transform="translate(1200.000000, 1824.000000)">
                <circle id="Oval" opacity="0.1" cx="50" cy="50" r="50"></circle>
                <g id="原油混炼" transform="translate(30.000000, 29.000000)">
                    <path d="M36.7604345,34.0621627 L36.7604345,24.6003392 L36.7604344,24.6003392 C38.8466106,23.5961402 39.7255681,21.0870515 38.723642,18.9961218 C38.3113421,18.1356909 37.6189142,17.4416893 36.7604344,17.0284523 L36.7604344,7.99261755 L36.7604344,7.99261754 C38.4086849,7.20984573 39.362449,5.44840305 39.1190369,3.63667106 L39.1190368,3.6366708 C38.7831231,1.51975759 36.9473569,-0.0288547551 34.8088979,0.000729849672 L30.7741358,0.000729849672 L30.7741357,0.000729849685 C30.1129072,0.000852413128 29.5769758,0.538199225 29.5770986,1.20093047 C29.5772208,1.86348944 30.1130832,2.40056506 30.7741357,2.40068811 L34.8867409,2.40068811 L34.8867408,2.40068811 C35.7621626,2.38424448 36.5291721,2.98522297 36.7245328,3.84066225 L36.7245328,3.84066258 C36.9233388,4.81458383 36.2967723,5.76563475 35.3250595,5.96489299 C35.2240648,5.98560278 35.1214786,5.99755848 35.0184374,6.00062769 L34.3659296,6.00062769 L34.3659296,19.0324143 L34.9645586,19.0324143 L34.9645587,19.0324143 C35.9564014,19.0324144 36.7604458,19.8382903 36.7604458,20.832383 C36.7604458,21.8264799 35.9563973,22.6323517 34.9645587,22.6323517 L34.3659297,22.6323517 L34.3659297,27.2822575 L34.3659315,27.2822572 C31.8865908,27.6631928 29.378727,27.8258092 26.8711088,27.7682479 C23.4529326,27.5942508 18.9871524,24.9362961 15.6228591,25.0322933 C12.2585616,25.1282917 5.63171279,27.6002518 5.63171279,27.6002518 L5.63171279,22.6203339 L5.03308374,22.6203339 L5.03308367,22.6203339 C4.04124099,22.6203338 3.23719653,21.8144579 3.23719653,20.8203652 C3.23719657,19.8262683 4.04124509,19.0203965 5.03308367,19.0203965 L5.63171271,19.0203965 L5.63171271,6.0006274 L5.03308367,6.0006274 L5.03308367,6.0006274 C4.16951719,5.99094393 3.4259728,5.38730364 3.23719654,4.54265149 L3.23719654,4.54265153 C3.04858152,3.5666959 3.68505421,2.62227723 4.65879678,2.43323189 C4.78208164,2.40929719 4.90753089,2.39838875 5.03308613,2.40068546 L9.22348535,2.40068546 L9.22348532,2.40068546 C9.88471377,2.40056296 10.4206452,1.86321609 10.4205224,1.20048485 C10.4204002,0.537925872 9.8845378,0.000850247374 9.22348532,0.000727200356 L5.21865402,0.000727200356 L5.21865421,0.000727203794 C3.06008994,-0.0391829735 1.20506137,1.52771199 0.878600795,3.66666702 L0.87860078,3.66666714 C0.648967737,5.46807959 1.600538,7.21336209 3.23720323,7.99259014 L3.23720323,17.0464308 L3.23720274,17.046431 C1.15598641,18.0609167 0.289367094,20.574312 1.30155242,22.6602461 C1.71188809,23.5058744 2.39348785,24.1890274 3.23720274,24.6002956 L3.23720274,34.0621192 L3.23720293,34.0621191 C1.95875017,34.6588602 1.07033545,35.865693 0.878600479,37.2660665 L0.878600473,37.2660666 C0.584353814,39.5667997 2.2067047,41.6709858 4.50222076,41.9658885 C4.67827867,41.9885074 4.85559249,41.9999817 5.03309005,41.9999817 L34.9645832,41.9999817 L34.9645831,41.9999817 C37.2788827,41.9989157 39.154123,40.1176858 39.1530999,37.7981224 C39.153019,37.6202206 39.1416604,37.4425034 39.1190927,37.2660466 L39.1190929,37.2660479 C38.9273603,35.8656744 38.0389432,34.6588415 36.7604945,34.0621004 L36.7604345,34.0621627 Z M34.9645474,39.6000578 L5.14080359,39.6000578 L5.14080366,39.6000578 C4.24870999,39.6196669 3.46580209,39.0079596 3.26709389,38.1360813 L3.26709384,38.136081 C3.08194987,37.1594568 3.72177331,36.2173186 4.69618293,36.0317514 C4.80722863,36.010604 4.92001846,36.0000114 5.03305095,36.0001145 L10.4207246,36.0001145 L10.4207246,36.0001145 C11.081953,35.999992 11.6178845,35.4626452 11.6177617,34.7999139 C11.6176395,34.1373549 11.0817771,33.6002793 10.4207246,33.6001563 L5.63166769,33.6001563 L5.63166769,30.0002148 C5.63166769,30.0002148 12.156746,27.6002565 15.4192646,27.4202592 C18.6817956,27.2402624 22.7524837,30.0002148 26.9967781,30.168215 L26.9967777,30.168215 C29.4634406,30.2721163 31.9340975,30.1091782 34.365886,29.6822244 L34.365886,33.6001563 L29.57687,33.6001563 L29.57687,33.6001563 C28.9156415,33.6002788 28.3797101,34.1376256 28.3798329,34.8003569 C28.3799551,35.4629158 28.9158175,35.9999915 29.57687,36.0001145 L34.8747593,36.0001145 L34.8747593,36.0001145 C35.7713012,35.9747068 36.5608632,36.5876886 36.7604512,37.464091 L36.7604512,37.4640912 C36.9457487,38.4406867 36.3060705,39.3829274 35.3316936,39.5686423 C35.2107152,39.591701 35.0876914,39.6022269 34.9645641,39.6000538 L34.9645474,39.6000578 Z M19.7473719,21.4743707 C24.7100228,21.4743707 28.1281704,18.0424294 28.1281704,13.074525 C28.1281704,8.10662467 22.1239149,0.000738282109 19.7473719,0.000738282109 C17.3708126,0.000738282109 11.3665735,8.10059536 11.3665735,13.074525 C11.3665735,18.0484546 14.7907326,21.4743707 19.7473719,21.4743707 Z M19.7473719,2.40068834 C21.0763314,2.40068834 25.7336624,9.42659105 25.7336624,13.074525 C25.7336624,16.722463 23.3870339,19.0744206 19.7473719,19.0744206 C16.1077059,19.0744206 13.7610815,16.7164583 13.7610815,13.074525 C13.7610815,9.43258344 18.9811359,2.40068834 19.7473719,2.40068834 Z" id="Shape"></path>
                </g>
            </g>
        </g>
    </g>
</svg>