<?xml version="1.0" encoding="UTF-8"?>
<svg width="100px" height="100px" viewBox="0 0 100 100" version="1.1" xmlns="http://www.w3.org/2000/svg" xmlns:xlink="http://www.w3.org/1999/xlink">
    <!-- Generator: Sketch 57.1 (83088) - https://sketch.com -->
    <title>平台真实可靠</title>
    <desc>Created with Sketch.</desc>
    <g id="Page-1" stroke="none" stroke-width="1" fill="none" fill-rule="evenodd">
        <g id="交易平台和工具" transform="translate(-910.000000, -1578.000000)" fill="#00A651" fill-rule="nonzero">
            <g id="平台真实可靠" transform="translate(910.000000, 1578.000000)">
                <circle id="Oval" opacity="0.1" cx="50" cy="50" r="50"></circle>
                <g id="Group-2" transform="translate(30.000000, 30.000000)">
                    <path d="M9.60003444,34.9892308 C5.40002956,30.1492252 0.300023622,20.1667136 0.300023622,0.705857621 C0.500023855,0.50419072 0.800023622,0.302523819 1.10002455,0.302523819 C3.90002781,1.51252523 6.9000313,2.11752593 10.0000349,2.11752593 C13.8000393,2.11752593 16.9000429,1.21002487 18.700045,0.605024171 C19.3000457,0.403357269 19.9000464,0.201690368 20.1000467,0.201690368 C20.3000469,0.201690368 20.6000472,0.302523819 20.9000476,0.403357269 C21.5000483,0.605024171 22.4000493,0.806691072 23.6000507,0.907524523 C21.9000488,2.21835938 20.0000465,2.72252663 20.0000465,2.72252663 L19.3000457,3.02502699 C17.2000433,3.73086114 14.1000397,4.8400291 10.0000349,4.8400291 C8.00003258,4.8400291 6.00003025,4.8400291 4.10002804,4.13419494 L3.50002735,3.93252804 L3.50002735,7.96586607 C4.20002816,17.7467108 6.80002362,30.3508921 15.3000411,36.3000657 C14.7000404,36.4008992 14.0000396,36.5017326 13.500039,36.6025661 C12.8000382,36.7033995 12.1000374,36.804233 11.6000368,36.9050664 L9.60003444,34.9892308 L9.60003444,34.9892308 Z M20.1000467,42.9550735 C18.6000449,42.4509062 17.1000432,41.9467389 15.9000418,41.1400713 C17.9000418,40.837571 20.2000468,39.9300699 20.3000469,39.8292365 C30.1000583,35.695065 35.7000648,25.2083861 36.8000661,8.67170022 L36.8000661,4.53752875 L36.2000654,4.73919565 C34.2000631,5.4450298 32.3000609,5.4450298 30.3000585,5.4450298 C27.9000557,5.4450298 26.2000538,5.4450298 24.4000418,5.041696 L27.7000555,1.71419213 C28.7000567,1.91585903 29.9000581,2.11752593 31.0000593,2.11752593 C33.7000625,2.11752593 36.4000656,1.51252523 39.2000689,0.302523819 L39.300069,0.302523819 L39.4000691,0.201690368 C39.5000692,0.100856917 39.6000694,0.100856917 39.6000694,0.100856917 C39.7000695,0.100856917 39.9000697,0.302523819 39.9000697,0.605024171 C39.9000697,16.3350425 36.5000657,28.4350566 29.9000581,36.5017326 L27.9000557,38.5184016 C25.8000533,40.4342372 22.9000418,41.8459055 20.1000467,42.9550735 Z" id="Shape"></path>
                    <path d="M19.2000456,26.4183875 C19.1000455,26.3175541 18.9000453,26.1158872 18.700045,26.0150537 C17.3000347,24.7042189 14.6000403,22.2842161 10.100035,21.2758816 L10.0000349,21.1750481 C9.90003479,21.1750481 9.80003468,21.1750481 9.80003468,20.9733812 C9.80003468,20.2675471 13.0000384,19.360046 14.7000404,19.360046 C16.100042,19.360046 16.6000426,19.360046 17.1000432,19.8642132 L17.5000436,20.2675471 L17.8000347,19.7633798 C19.2000456,17.7467108 24.6000519,12.4025379 33.4000621,12.4025379 C33.9000627,12.4025379 34.4000633,12.4025379 34.9000639,12.5033713 L35.1000641,12.5033713 L35.1000641,12.9067052 L34.9000639,12.9067052 C34.9000639,13.0075386 23.00005,14.6208738 19.2000456,26.4183875 L19.2000456,26.4183875 Z" id="Shape"></path>
                    <path d="M18.6000449,24.2000516 C17.5000436,23.0908837 15.9000389,21.7800488 13.4000389,20.9733812 C13.7000392,20.8725478 13.9000389,20.7717143 14.1000397,20.7717143 C14.5000401,20.7717143 15.4000389,21.1750481 15.9000389,21.376715 L16.0000419,21.4775485 L17.5000436,21.4775485 C17.9000389,21.4775485 18.2000445,21.1750481 19.0000454,20.469214 C19.8000463,19.6625463 21.1000478,18.5533784 23.00005,17.343377 C21.2000479,18.9567122 19.7000462,21.1750481 18.6000449,24.2000516 Z" id="Shape"></path>
                </g>
            </g>
        </g>
    </g>
</svg>