<?xml version="1.0" encoding="UTF-8"?>
<svg width="100px" height="100px" viewBox="0 0 100 100" version="1.1" xmlns="http://www.w3.org/2000/svg" xmlns:xlink="http://www.w3.org/1999/xlink">
    <!-- Generator: Sketch 57.1 (83088) - https://sketch.com -->
    <title>交易操作界面简单易懂</title>
    <desc>Created with Sketch.</desc>
    <g id="Page-1" stroke="none" stroke-width="1" fill="none" fill-rule="evenodd">
        <g id="交易平台和工具" transform="translate(-1350.000000, -1578.000000)" fill="#00A651" fill-rule="nonzero">
            <g id="交易操作界面简单易懂" transform="translate(1350.000000, 1578.000000)">
                <circle id="Oval" opacity="0.1" cx="50" cy="50" r="50"></circle>
                <g id="界面设计" transform="translate(30.000000, 30.000000)">
                    <path d="M2.79600558,2.79600558 L2.79600558,37.2260456 L37.2260456,37.2260456 L37.2260456,2.79600558 L2.79600558,2.79600558 Z M2.81800561,0.662003098 L37.2040456,0.662003098 C38.392047,0.662003098 39.3600481,1.63000422 39.3600481,2.81800561 L39.3600481,37.2040456 C39.3600481,38.392047 38.392047,39.3600481 37.2040456,39.3600481 L2.81800561,39.3600481 C1.63000422,39.3600481 0.662003098,38.392047 0.662003098,37.2040456 L0.662003098,2.81800561 C0.662003098,1.63000422 1.63000422,0.662003098 2.81800561,0.662003098 Z M2.79600558,15.7320206 L37.2260456,15.7320206 L37.2260456,13.5540181 L2.79600558,13.5540181 L2.79600558,15.7320206 Z M15.9740209,23.9600302 L32.0780397,23.9600302 L32.0780397,21.6060275 L15.9740209,21.6060275 L15.9740209,23.9600302 Z M15.9740209,30.2300375 L32.0780397,30.2300375 L32.0780397,28.052035 L15.9740209,28.052035 L15.9740209,30.2300375 Z M8.71401247,15.7320206 L8.71401247,37.2260456 L11.0020151,37.2260456 L11.0020151,15.7320206 L8.71401247,15.7320206 Z M18.3940237,7.1080106 L18.3940237,9.44001331 L23.2340294,9.44001331 L23.2340294,7.1080106 L18.3940237,7.1080106 L18.3940237,7.1080106 Z M26.4460331,7.1080106 L26.4460331,9.44001331 L31.2860387,9.44001331 L31.2860387,7.1080106 L26.4460331,7.1080106 Z" id="Shape"></path>
                </g>
            </g>
        </g>
    </g>
</svg>