<?xml version="1.0" encoding="UTF-8"?>
<svg width="100px" height="100px" viewBox="0 0 100 100" version="1.1" xmlns="http://www.w3.org/2000/svg" xmlns:xlink="http://www.w3.org/1999/xlink">
    <!-- Generator: Sketch 57.1 (83088) - https://sketch.com -->
    <title>9</title>
    <desc>Created with Sketch.</desc>
    <g id="Page-1" stroke="none" stroke-width="1" fill="none" fill-rule="evenodd">
        <g id="为什么选择fxbv" transform="translate(-1227.000000, -1683.000000)" fill="#00A651" fill-rule="nonzero">
            <g id="9" transform="translate(1227.000000, 1683.000000)">
                <circle id="Oval" opacity="0.1" cx="50" cy="50" r="50"></circle>
                <g id="低成本" transform="translate(30.000000, 36.000000)">
                    <path d="M37.8793433,24.8496476 L1.88437952,24.8496476 C1.22266,24.8496476 0.68555,25.3824607 0.68555,26.0484771 C0.68555,26.7144935 1.22266,27.2473066 1.88437952,27.2473066 L37.8793433,27.2473066 C38.5410628,27.2473066 39.0781728,26.7144935 39.0781728,26.0484771 C39.0781728,25.3824607 38.5453597,24.8496476 37.8793433,24.8496476 Z M39.1168447,15.3406522 C39.1254385,15.2804958 39.2199698,15.2289333 39.2199698,15.168777 L39.2199698,7.9199404 C39.2199698,7.253924 38.6914536,6.71251712 38.0297341,6.71251712 C37.3680146,6.71251712 36.8394983,7.253924 36.8394983,7.9199404 L36.8394983,12.4230706 L24.3742494,0.98907296 C24.1465148,0.77852584 23.7726862,0.67110384 23.4847953,0.67110384 C23.1754199,0.67110384 22.8703414,0.79141648 22.6383099,1.023448 L12.682439,11.048069 L2.73086488,1.02774488 C2.26250496,0.55508808 1.5019572,0.55508808 1.03359728,1.02774488 C0.56523736,1.50040168 0.56523736,2.26524632 1.03359728,2.73790312 L11.8359536,13.6176033 C12.3043135,14.0902601 13.0648613,14.0988538 13.5332212,13.626197 L23.5191703,3.58438848 L34.7984803,14.0258069 L30.6820693,14.0258069 C30.0203498,14.0258069 29.4832398,14.55862 29.4832398,15.2246364 C29.4832398,15.8906528 30.0203498,16.4234659 30.6820693,16.4234659 L37.8836402,16.4234659 C37.8922339,16.4234659 37.9008277,16.3976846 37.9094214,16.3976846 C38.0039528,16.3976846 38.0941873,16.3461221 38.1887186,16.3203408 C38.248875,16.3031533 38.3133282,16.3031533 38.3648907,16.277372 C38.425047,16.2515907 38.4723127,16.204325 38.5281722,16.16995 C38.605516,16.1183874 38.6871567,16.0754186 38.7516099,16.0066686 C38.7602037,15.9980748 38.7730943,15.9980748 38.7773912,15.989481 C38.82036,15.9422154 38.8418444,15.8863559 38.8762194,15.8390902 C38.927782,15.7660433 38.9965321,15.6972932 39.0309071,15.6113556 C39.0609853,15.5211211 39.1039541,15.4308866 39.1168447,15.3406522 L39.1168447,15.3406522 Z" id="Shape"></path>
                </g>
            </g>
        </g>
    </g>
</svg>