<?xml version="1.0" encoding="UTF-8"?>
<svg width="100px" height="100px" viewBox="0 0 100 100" version="1.1" xmlns="http://www.w3.org/2000/svg" xmlns:xlink="http://www.w3.org/1999/xlink">
    <!-- Generator: Sketch 57.1 (83088) - https://sketch.com -->
    <title>6</title>
    <desc>Created with Sketch.</desc>
    <g id="Page-1" stroke="none" stroke-width="1" fill="none" fill-rule="evenodd">
        <g id="为什么选择fxbv" transform="translate(-1227.000000, -1497.000000)" fill="#00A651" fill-rule="nonzero">
            <g id="6" transform="translate(1227.000000, 1497.000000)">
                <circle id="Oval" opacity="0.1" cx="50" cy="50" r="50"></circle>
                <g id="闪电" transform="translate(34.000000, 24.000000)">
                    <path d="M7.3010219,49.989026 C7.16352174,49.989026 7.02052157,49.9561548 6.88852142,49.8849341 C6.525521,49.6931858 6.34402079,49.2713396 6.45402092,48.876886 L11.9045273,29.324041 L1.18501478,29.324041 C0.844014387,29.324041 0.536014029,29.1322927 0.393013862,28.8254955 C0.250013696,28.5186983 0.288513741,28.1571158 0.50301399,27.8996253 L22.3710394,0.90146886 C22.6240397,0.583714584 23.0640402,0.485101188 23.4325407,0.660413892 C23.8010411,0.835726596 23.9990413,1.2356587 23.9165412,1.63011229 L19.7915364,21.2048714 L30.4560488,21.1007795 C30.8080493,21.1007795 31.1270496,21.3034848 31.2700498,21.6212391 C31.41305,21.9389933 31.3525499,22.3115328 31.1160496,22.5690234 L26.1605438,27.9927602 C25.8360435,28.3488641 25.2750428,28.3762567 24.9175424,28.0530239 C24.560042,27.7297911 24.532542,27.1709819 24.8570423,26.8148779 L28.4540465,22.8812991 L18.7135352,22.9799125 L18.7025352,22.9799125 C18.4385349,22.9799125 18.1910346,22.8648636 18.0205344,22.6566797 C17.8500342,22.4539744 17.7840341,22.1800483 17.8390342,21.9225578 L21.4360383,4.85148322 L3.01651692,27.5873495 L13.0650286,27.5873495 C13.3400289,27.5873495 13.5985292,27.7133555 13.7635294,27.9324964 C13.9285296,28.1516373 13.9835297,28.4310419 13.9120296,28.6994895 L9.21502413,45.518552 L19.5935362,33.3781473 C19.9070366,33.0110863 20.4625372,32.9672581 20.8365377,33.2795339 C21.2050381,33.5918096 21.2490381,34.1451404 20.9355378,34.5176799 L7.97202268,49.6822287 C7.80152248,49.8794555 7.5540222,49.989026 7.3010219,49.989026 L7.3010219,49.989026 Z" id="Shape"></path>
                </g>
            </g>
        </g>
    </g>
</svg>