<?xml version="1.0" encoding="UTF-8"?>
<svg width="100px" height="100px" viewBox="0 0 100 100" version="1.1" xmlns="http://www.w3.org/2000/svg" xmlns:xlink="http://www.w3.org/1999/xlink">
    <!-- Generator: Sketch 57.1 (83088) - https://sketch.com -->
    <title>7</title>
    <desc>Created with Sketch.</desc>
    <g id="Page-1" stroke="none" stroke-width="1" fill="none" fill-rule="evenodd">
        <g id="为什么选择fxbv" transform="translate(-360.000000, -1683.000000)" fill="#00A651" fill-rule="nonzero">
            <g id="7" transform="translate(360.000000, 1683.000000)">
                <circle id="Oval" opacity="0.1" cx="50" cy="50" r="50"></circle>
                <g id="杠杆管理" transform="translate(30.000000, 32.000000)">
                    <path d="M38.8354438,32.2296593 L1.6482043,16.6602584 L1.64820431,16.6602584 C1.13489613,16.4408047 0.536426356,16.6688718 0.31148544,17.1696621 C0.0865454052,17.6704506 0.320314172,18.2543236 0.833624251,18.4737781 C0.838292503,18.4757739 0.842976082,18.4777354 0.847674591,18.4796623 L18.9215206,26.052054 L13.561397,35.8024481 L25.3753646,35.8024481 L20.3264049,26.6350546 L38.0349581,34.0600633 L38.0349581,34.0600633 C38.5482663,34.279517 39.1467361,34.0514499 39.371677,33.5506596 C39.596617,33.0498711 39.3628483,32.4659982 38.8495382,32.2465436 C38.8448699,32.2445478 38.8401863,32.2425863 38.8354878,32.2406594 L38.8354438,32.2296593 Z M16.9619183,33.8224612 L19.4739912,29.2596473 L21.9883192,33.8224612 L16.9619183,33.8224612 Z M10.3209356,18.1056343 L10.3209352,18.1056343 C15.3897142,18.1056343 19.4987959,14.0967871 19.4987959,9.1516239 C19.4987959,4.20647361 15.3897274,0.197613478 10.3209352,0.197613478 C5.25215614,0.197613478 1.14307417,4.20646072 1.14307417,9.1516239 L1.14307417,9.1513533 C1.14913365,14.0940114 5.25444164,18.099434 10.3206706,18.1056343 L10.3209356,18.1056343 Z M10.3209356,2.17761578 L10.3209353,2.17761578 C14.2688635,2.17761578 17.4692936,5.2999866 17.4692936,9.1516239 C17.4692936,13.0032612 14.2688635,16.125632 10.3209353,16.125632 C6.37300705,16.125632 3.17257683,13.0032612 3.17257683,9.1516239 L3.17257683,9.15172523 C3.17748916,5.30209888 6.37496243,2.18252962 10.3208471,2.17761578 L10.3209356,2.17761578 Z M39.6156659,20.8996376 L39.6156661,20.8996378 C37.7789885,18.6206715 34.396392,18.2258097 32.0604824,20.0176903 C29.7245419,21.8095709 29.3198086,25.109665 31.1564862,27.3886012 C32.0390334,28.483674 33.3315551,29.1915936 34.7493836,29.3564391 L34.7493832,29.356439 C34.9619498,29.3808228 35.1757738,29.3933099 35.389804,29.3938391 L35.3898039,29.3938391 C38.1092005,29.3888909 40.3984202,27.4074259 40.7273775,24.7738337 L40.7273775,24.7738335 C40.903488,23.3893014 40.5030167,21.9937006 39.6156612,20.899629 L39.6156659,20.8996376 Z M38.7136648,24.5318418 L38.7136649,24.5318414 C38.4944716,26.3234384 36.8280907,27.6024606 34.9917038,27.3886135 C33.1553168,27.1747664 31.8443191,25.5490289 32.0635124,23.7574319 C32.2642596,22.1166038 33.6892415,20.8803829 35.383026,20.8776322 L35.3830259,20.8776322 C35.5163957,20.8774132 35.6496659,20.884759 35.7821614,20.8996372 L35.7821616,20.8996372 C37.6190286,21.114134 38.9308103,22.7394581 38.713665,24.5318414 L38.7136648,24.5318418 Z" id="Shape"></path>
                </g>
            </g>
        </g>
    </g>
</svg>