<?xml version="1.0" encoding="UTF-8"?>
<svg width="100px" height="100px" viewBox="0 0 100 100" version="1.1" xmlns="http://www.w3.org/2000/svg" xmlns:xlink="http://www.w3.org/1999/xlink">
    <!-- Generator: Sketch 57.1 (83088) - https://sketch.com -->
    <title>4</title>
    <desc>Created with Sketch.</desc>
    <g id="Page-1" stroke="none" stroke-width="1" fill="none" fill-rule="evenodd">
        <g id="为什么选择fxbv" transform="translate(-360.000000, -1497.000000)" fill="#00A651" fill-rule="nonzero">
            <g id="4" transform="translate(360.000000, 1497.000000)">
                <circle id="Oval" opacity="0.1" cx="50" cy="50" r="50"></circle>
                <g id="8-多种配置" transform="translate(26.000000, 27.000000)">
                    <path d="M33.6923998,3.41009496 C33.6923998,3.41009496 28.6868612,0.181076148 23.7498492,0.276310839 C18.8128527,0.371547057 14.5044244,2.58681558 14.5044244,2.58681558 L22.8470403,21.5222668 L33.6923998,3.41006952 L33.6923998,3.41009496 Z M17.21744,3.77854219 C17.21744,3.77854219 19.676938,2.36098734 23.7271101,2.28288533 C27.7772976,2.20478027 30.7825699,4.56599916 30.7825699,4.56599916 L22.8030575,17.9525896 L17.21744,3.77856763 L17.21744,3.77854219 Z M22.357263,24.5527414 L13.6215341,8.09493907 C13.6317704,8.09014864 13.6419539,8.08535821 13.6521902,8.08056772 L12.9165523,6.33825525 C12.8552403,6.36559202 12.7940866,6.39324112 12.7330906,6.42115055 L12.6957863,6.35085619 L10.8871315,7.24328198 L10.9438003,7.35007754 C4.95542775,10.8451744 0.939374639,17.2827058 0.939374639,24.6458393 C0.939374639,35.7356739 10.0492931,44.725725 21.2869921,44.725725 C29.0367417,44.725725 35.7745761,40.4502033 39.210602,34.1590299 L38.9216119,34.0164099 L22.3572426,24.5527296 L22.357263,24.5527414 Z M11.846132,9.05003373 L20.8347753,25.9844675 L36.4546732,34.9085728 C36.2191333,35.2362496 35.9724606,35.5555438 35.7158694,35.8665576 L19.6540804,26.3563184 L10.824817,9.7221517 C11.1571794,9.48741976 11.4976155,9.26294605 11.8460702,9.05003373 L11.846132,9.05003373 Z M21.4864745,42.5470402 C11.3578862,42.5470402 3.14701255,34.4442044 3.14701255,24.448887 C3.14701255,18.6787821 5.88352526,13.539691 10.1454441,10.225711 L19.0261154,26.8768729 L35.1030638,36.5724321 C31.7467279,40.2412321 26.8895089,42.5470402 21.486423,42.5470402 L21.4864745,42.5470402 Z M34.500349,5.98721766 L24.4521467,24.1665311 L43.7112269,34.9088272 C43.7112269,34.9088272 44.3862427,33.5743254 44.5485978,33.2561776 C45.9279065,30.5496317 47.0606535,27.1309017 47.0606535,24.1665463 C47.0606535,15.9032221 41.249553,9.14184392 34.5003748,5.98721766 L34.500349,5.98721766 Z M43.6076893,30.6089676 C43.4767281,30.8655685 42.7855707,32.2315752 42.7855707,32.2315752 L27.1651572,23.3072156 L35.3863949,8.70368089 C40.8295966,11.24782 45.2519111,17.4542205 45.2519111,24.1185626 C45.2519111,26.5093574 44.7201,28.4262125 43.6076687,30.6090338 L43.6076893,30.6089676 Z" id="Shape"></path>
                </g>
            </g>
        </g>
    </g>
</svg>