<?xml version="1.0" encoding="UTF-8"?>
<svg width="100px" height="100px" viewBox="0 0 100 100" version="1.1" xmlns="http://www.w3.org/2000/svg" xmlns:xlink="http://www.w3.org/1999/xlink">
    <!-- Generator: Sketch 57.1 (83088) - https://sketch.com -->
    <title>3</title>
    <desc>Created with Sketch.</desc>
    <g id="Page-1" stroke="none" stroke-width="1" fill="none" fill-rule="evenodd">
        <g id="为什么选择fxbv" transform="translate(-1227.000000, -1318.000000)" fill="#00A651" fill-rule="nonzero">
            <g id="3" transform="translate(1227.000000, 1318.000000)">
                <circle id="Oval" opacity="0.1" cx="50" cy="50" r="50"></circle>
                <g id="技术" transform="translate(30.000000, 29.000000)">
                    <path d="M37.8307914,0.964411829 L2.15174379,0.964411829 L2.1517437,0.964411829 C1.01894768,0.968831613 0.101850259,1.88142687 0.0978111252,3.00826556 L0.0978111252,30.6991853 L0.0978111252,30.6991668 C0.101837937,31.8260008 1.01892852,32.7386086 2.15172454,32.7430396 L15.9445184,32.7430396 L15.9445184,38.7500439 L12.1385999,38.7500439 L12.1385998,38.7500439 C11.5041082,38.7500439 10.9897526,39.2616924 10.9897526,39.8928446 C10.9897526,40.5239968 11.5041082,41.0356453 12.1385998,41.0356453 L27.8637961,41.0356453 L27.863796,41.0356453 C28.4982876,41.0356453 29.0126433,40.5239968 29.0126433,39.8928446 C29.0126433,39.2616924 28.4982876,38.7500439 27.863796,38.7500439 L24.0416735,38.7500439 L24.0416735,32.7430396 L37.8344673,32.7430396 L37.8344673,32.7430396 C38.9672633,32.7386199 39.8843607,31.8260245 39.8883998,30.6991858 L39.8883998,3.00826607 L39.8883998,3.00828454 C39.884373,1.8814506 38.9672824,0.968842817 37.8344864,0.964411829 L37.8307914,0.964411829 Z M21.7226476,38.7280641 L18.2613819,38.7280641 L18.2613819,32.7210598 L21.7226476,32.7210598 L21.7226476,38.7280641 Z M37.568634,30.4354204 L2.41394895,30.4354204 L2.41394895,3.27194496 L37.568634,3.27194496 L37.568634,30.4354204 Z M10.0044352,16.6705305 L12.7631372,13.9307409 L12.7631372,13.9307409 C13.1727788,13.5414034 13.1875682,12.8954522 12.7961703,12.4879628 C12.4047728,12.0804772 11.7554039,12.0657657 11.3457585,12.4551036 C11.3346237,12.4656865 11.3237299,12.4765175 11.3130853,12.4875883 L7.85181957,15.9306369 L7.85181954,15.9306369 C7.65455074,16.126441 7.54536606,16.3933413 7.54914302,16.6705264 L7.54914301,16.6705295 C7.54791684,16.9472297 7.65671778,17.2131902 7.85182192,17.410419 L11.3344432,20.8607955 L11.3344432,20.8607955 C11.7440848,21.2501331 12.393457,21.2354216 12.784855,20.8279362 C13.1638465,20.433367 13.1636875,19.8120242 12.7844951,19.4176473 L10.0059081,16.6705345 L10.0044352,16.6705305 Z M17.5750126,21.3369591 L17.3135766,21.1977719 L17.3135766,21.1977719 C16.8351285,20.9223905 16.6651201,20.3174776 16.9306281,19.8352028 L21.0384884,12.6487388 L21.0384884,12.6487388 C21.3132108,12.1705625 21.9232685,12.0008172 22.4075316,12.2678059 L22.6689677,12.406993 L22.6689677,12.406993 C23.1474157,12.6823744 23.3174242,13.2872874 23.0519162,13.7695622 L18.9440559,20.9633399 L18.9440559,20.9633399 C18.6786944,21.4401199 18.0750263,21.6126435 17.5957236,21.3486767 C17.5887743,21.3448496 17.5818715,21.3409395 17.5750166,21.3369474 L17.5750126,21.3369591 Z M32.1926164,15.9306315 L28.7092552,12.4656037 L28.7092551,12.4656037 C28.3086317,12.0674934 27.6594223,12.0678211 27.2592061,12.4663363 C26.8589895,12.8648512 26.8593189,13.5106437 27.2599426,13.9087534 L30.0186446,16.6558662 L27.2599426,19.3956557 L27.2599426,19.3956558 C26.8593192,19.793766 26.8589893,20.4395595 27.2592062,20.8380729 C27.6594229,21.2365878 28.3086332,21.236916 28.7092552,20.8388054 L32.1926165,17.3957569 L32.1926165,17.3957568 C32.3888946,17.1992998 32.4979022,16.9328321 32.495293,16.6558673 L32.495293,16.6558673 C32.50552,16.3817867 32.3949776,16.1169157 32.1926165,15.930629 L32.1926164,15.9306315 Z" id="Shape"></path>
                </g>
            </g>
        </g>
    </g>
</svg>