<?xml version="1.0" encoding="UTF-8"?>
<svg width="100px" height="100px" viewBox="0 0 100 100" version="1.1" xmlns="http://www.w3.org/2000/svg" xmlns:xlink="http://www.w3.org/1999/xlink">
    <!-- Generator: Sketch 57.1 (83088) - https://sketch.com -->
    <title>2</title>
    <desc>Created with Sketch.</desc>
    <g id="Page-1" stroke="none" stroke-width="1" fill="none" fill-rule="evenodd">
        <g id="为什么选择fxbv" transform="translate(-789.000000, -1318.000000)" fill="#00A651" fill-rule="nonzero">
            <g id="2" transform="translate(789.000000, 1318.000000)">
                <circle id="Oval" opacity="0.1" cx="50" cy="50" r="50"></circle>
                <g id="安全" transform="translate(30.000000, 25.000000)">
                    <g id="Group" transform="translate(0.371160, 0.186371)">
                        <path d="M18.9937721,32.8911278 C19.7096449,32.8911278 20.1868985,32.417682 20.1868985,31.7075108 L20.1868985,24.7241926 L27.226322,24.7241926 C27.9421948,24.7241926 28.4194484,24.2507468 28.4194484,23.5405756 C28.4194484,22.8304084 27.9421988,22.3569586 27.226322,22.3569586 L20.1868985,22.3569586 L20.1868985,15.3736404 C20.1868985,14.6634732 19.7096489,14.1900234 18.9937721,14.1900234 C18.2778993,14.1900234 17.8006457,14.6634692 17.8006457,15.3736404 L17.8006457,22.3569586 L10.7612222,22.3569586 C10.0453494,22.3569586 9.56809581,22.8304044 9.56809581,23.5405756 C9.56809581,24.2507428 10.0453454,24.7241926 10.7612222,24.7241926 L17.8006457,24.7241926 L17.8006457,31.7075108 C17.8006457,32.417678 18.2778953,32.8911278 18.9937721,32.8911278 Z" id="Shape"></path>
                        <path d="M19.1130767,46.976169 C19.3517014,46.976169 19.5903262,46.8578063 19.7096399,46.7394451 L27.7035504,41.649886 C34.2657556,36.9154281 38.083754,32.7727586 38.083754,25.4343793 L38.083754,8.0352356 C38.083754,7.4434271 37.6065044,6.96998231 37.1292569,6.85161861 C34.5043849,6.49653401 28.6580777,5.07619813 19.5903252,0.22336148 C19.2323878,-0.0133614175 18.8744524,-0.0133614175 18.5165135,0.22336148 C9.32945642,5.07618313 3.60248403,6.49650751 0.977581783,6.85161861 C0.381018589,6.96998031 0.0230847043,7.4434271 0.0230847043,8.0352356 L0.0230847043,25.4343793 C0.0230847043,32.8911623 3.96039271,37.0337918 10.6418975,41.649886 L11.9543335,42.4784169 C12.5508967,42.8335015 13.2667695,42.7151398 13.6247084,42.1233323 C13.9826458,41.5315238 13.8633332,40.8213566 13.266771,40.4662705 L11.8350203,39.6377397 C5.63077923,35.3767265 2.29004954,31.8258955 2.29004954,25.4343458 L2.29004954,9.10048538 C5.39217009,8.50867689 10.8805333,6.85161511 18.9937988,2.70898565 C27.1070643,6.96999881 32.7147321,8.50871689 35.6975481,9.10048538 L35.6975481,25.4343458 C35.6975481,31.8258455 32.4761129,35.2583528 26.2718819,39.6377397 L18.3972759,44.7272987 C17.8007127,45.0823833 17.6814031,45.792552 18.0393385,46.3843605 C18.2779633,46.7394451 18.6359017,46.976169 19.1131503,46.976169 L19.1130767,46.976169 Z" id="Shape"></path>
                    </g>
                </g>
            </g>
        </g>
    </g>
</svg>