<?xml version="1.0" encoding="UTF-8"?>
<svg width="100px" height="100px" viewBox="0 0 100 100" version="1.1" xmlns="http://www.w3.org/2000/svg" xmlns:xlink="http://www.w3.org/1999/xlink">
    <!-- Generator: Sketch 57.1 (83088) - https://sketch.com -->
    <title>5</title>
    <desc>Created with Sketch.</desc>
    <g id="Page-1" stroke="none" stroke-width="1" fill="none" fill-rule="evenodd">
        <g id="为什么选择fxbv" transform="translate(-789.000000, -1497.000000)" fill="#00A651" fill-rule="nonzero">
            <g id="5" transform="translate(789.000000, 1497.000000)">
                <circle id="Oval" opacity="0.1" cx="50" cy="50" r="50"></circle>
                <g id="系统" transform="translate(30.000000, 30.000000)">
                    <path d="M29.1370086,11.5892366 L29.1370086,11.5892366 C28.9323935,11.3705918 28.6438135,11.2547129 28.3478773,11.2723612 C28.0370074,11.3211113 27.7739636,11.4917365 27.6065721,11.7354868 L23.4935238,18.1461192 L21.0543905,8.73735828 L21.0543906,8.73735835 C20.9611976,8.34383571 20.654008,8.04019979 20.2652592,7.95735745 L20.2652593,7.95735747 C19.8748881,7.888936 19.4815234,8.0607769 19.2609103,8.39610798 L13.8804693,16.4398673 L11.2500314,13.2954887 L11.2500315,13.2954887 C10.901015,12.8754658 10.2890473,12.810936 9.86307333,13.1492385 L6.75437406,15.7817416 L6.7543742,15.7817415 C6.30630228,16.1740987 6.22353391,16.8490326 6.56306963,17.3417433 C6.89785263,17.8292439 7.54350555,17.926744 7.97394084,17.5367435 L10.3413349,15.5379912 L13.2109035,18.9261201 C13.4261211,19.1698704 13.6891649,19.3161206 14.0239479,19.2917456 C14.3348178,19.2673705 14.5978616,19.0967453 14.7891662,18.82862 L19.6435196,11.5404865 L22.106566,20.9979975 C22.2261313,21.412373 22.5130882,21.7048734 22.9196104,21.7779985 C22.9674365,21.8023735 23.0391758,21.8023735 23.0870019,21.8023735 C23.3978718,21.8023735 23.7326548,21.6317483 23.9239594,21.3148729 L28.5630952,14.0511145 L31.7674468,17.4392434 C32.173969,17.8536189 32.8196219,17.8536189 33.2022311,17.4148684 C33.6087533,16.9761179 33.5848402,16.2936171 33.178318,15.8304915 L29.1370089,11.5892366 L29.1370086,11.5892366 Z M36.3348431,24.7030019 C36.3348431,25.3123776 35.8565817,25.8242532 35.2348418,25.8242532 L4.62611055,25.8242532 C4.02828377,25.8242532 3.52610927,25.3367526 3.52610927,24.7030019 L3.52610927,5.05672899 C3.52610927,4.44735329 4.0043707,3.93547769 4.62611055,3.93547769 L35.2348418,3.93547769 C35.8326686,3.93547769 36.3348431,4.42297826 36.3348431,5.05672899 L36.3348431,24.7030019 Z M35.4500595,1.52234988 L4.41089291,1.52234988 C2.56958642,1.52234988 1.086976,3.03360164 1.086976,4.91047882 L1.086976,24.849252 C1.086976,26.7017542 2.56958642,28.237381 4.41089291,28.237381 L18.6869965,28.237381 L18.6869965,34.8673887 L5.58263341,34.8673887 C4.91306741,34.8673887 4.36306677,35.4280143 4.36306677,36.1105151 C4.36306677,36.7930159 4.91306741,37.3536416 5.58263341,37.3536416 L34.2544059,37.3536416 C34.9239719,37.3536416 35.4739725,36.7930159 35.4739725,36.1105151 C35.4739725,35.4280143 34.9239719,34.8673887 34.2544059,34.8673887 L21.1261298,34.8673887 L21.1261298,28.237381 L35.4022333,28.237381 C37.2196267,28.237381 38.7261502,26.7261292 38.7261502,24.849252 L38.7261502,4.91047882 C38.7739764,3.03360164 37.291366,1.52234988 35.4500595,1.52234988 L35.4500595,1.52234988 Z" id="Shape"></path>
                </g>
            </g>
        </g>
    </g>
</svg>