<?xml version="1.0" encoding="UTF-8"?>
<svg width="100px" height="100px" viewBox="0 0 100 100" version="1.1" xmlns="http://www.w3.org/2000/svg" xmlns:xlink="http://www.w3.org/1999/xlink">
    <!-- Generator: Sketch 57.1 (83088) - https://sketch.com -->
    <title>8</title>
    <desc>Created with Sketch.</desc>
    <g id="Page-1" stroke="none" stroke-width="1" fill="none" fill-rule="evenodd">
        <g id="为什么选择fxbv" transform="translate(-789.000000, -1683.000000)" fill="#00A651" fill-rule="nonzero">
            <g id="8" transform="translate(789.000000, 1683.000000)">
                <circle id="Oval" opacity="0.1" cx="50" cy="50" r="50"></circle>
                <g id="服务支持" transform="translate(30.000000, 29.000000)">
                    <g id="Group" transform="translate(0.041768, 0.000000)">
                        <path d="M2.4146449,35.7962752 L5.52810651,35.7962752 C5.63062967,35.7962752 5.73315242,35.6952308 5.84107155,35.6952308 C6.15403658,35.8973193 6.46160483,35.7962752 6.87709424,35.8973193 C7.60554706,36.0994078 8.32860228,36.2057704 9.0570551,36.306816 L12.79105,37.0247623 L16.3146034,37.7427086 L19.8381568,38.4606549 C20.3561682,38.5616994 20.9767015,38.5616994 21.3921909,38.2585664 L25.1261858,36.1100473 L29.58324,33.5573511 C31.137274,32.7383616 32.588782,31.8183248 34.1482056,31.004655 C34.8766584,30.5951582 35.2867502,30.0846222 35.2867502,29.1645854 C35.2867502,28.4466391 34.9737851,27.9360991 34.3532535,27.6329653 C33.7327202,27.2234685 33.0042674,27.2234685 32.3837341,27.5319209 L28.6497392,29.68044 C27.0957052,30.6004728 25.5362776,31.4194663 23.9822557,32.3394991 C23.6692907,32.5415876 23.3617224,32.6479502 23.151281,33.0574454 C22.4228281,34.4880182 20.8687941,34.9985583 19.3147641,34.4880182 C18.6942308,34.2859297 17.965778,33.9774782 17.3452447,33.7700719 L12.0572199,31.7279158 C11.9546967,31.6268714 11.852174,31.6268714 11.852174,31.4194651 L11.852174,29.1698987 L11.9546971,29.1698987 L15.1706807,30.3983851 L20.1511519,32.3394979 C20.4641169,32.4405424 20.8796047,32.3394979 21.0846486,32.1374094 C21.3976136,31.7279126 21.1871717,31.2173766 20.6691592,31.0152861 L18.0737089,29.994206 L12.9907198,27.9520499 L9.77473624,26.7235636 L8.22070221,26.1119803 C7.90773717,26.0109359 7.60016892,26.1119803 7.28720551,26.1119803 L5.83569747,26.3140688 L4.07122196,26.5161573 L2.40927244,26.7182459 L2.40927244,35.7962716 L2.4146449,35.7962752 Z M0.0296361032,24.6548183 L2.4146449,24.3463672 L4.17912041,24.1442787 L6.46160726,23.8358276 L7.81059337,23.7347831 C8.43112665,23.6337387 9.05705753,23.9368717 9.67759082,24.1442799 L14.134645,25.8833063 L18.0736838,27.4149263 C19.2122284,27.8244231 20.3561706,28.3349591 21.4947112,28.7444559 C22.223164,29.052907 22.8436973,29.4624022 23.2591867,30.1750287 L24.3977313,29.5634455 L26.9931816,28.1328726 C27.9266783,27.6223326 28.8601791,27.0107493 29.7936757,26.4948935 C30.6246505,26.0853968 31.3477098,25.4738135 32.2812065,25.165364 C33.8352405,24.7558672 35.2867486,25.0643195 36.5332249,26.186444 C37.2616777,26.7980273 37.6717695,27.6170169 37.7796891,28.5370537 C37.984735,29.659177 37.6771659,30.78662 36.9487143,31.7066528 C36.430703,32.4245991 35.7022501,32.8287761 34.876673,33.2382729 C34.0456982,33.6477697 33.2147235,34.1583057 32.2812227,34.6688457 L29.793692,36.0994186 L27.2036393,37.7373977 L24.7161086,39.1679705 L22.5361477,40.3964568 C22.0181364,40.7049079 21.3976031,40.8059536 20.7716722,40.9069968 C19.9406974,41.0080409 19.1097227,40.7049083 18.1816195,40.5985457 C17.2481228,40.3964572 16.3146221,40.1890489 15.3811254,40.0880057 L12.2676638,39.4764224 L9.56969156,38.8648391 L6.56414948,38.2532558 C6.35910357,38.1522114 6.14866007,38.1522114 5.9436162,38.1522114 L0.0296361032,38.1522114 L0.0296361032,24.6548371 L0.0296361032,24.6548183 Z" id="Shape"></path>
                        <path d="M20.0431788,20.7566134 C20.145702,20.6555689 20.145702,20.5545249 20.2482247,20.5545249 L28.3367559,12.6836945 C29.0652087,11.9657482 29.788264,11.1520744 30.2037534,10.2320416 C30.5167184,9.6204583 30.7217647,9.00355526 30.8242866,8.39197198 C30.9268098,7.06244241 30.6192407,5.94031909 29.89079,4.91923904 C29.1623371,3.79711573 28.0237925,3.07916944 26.7773283,2.66967267 C26.3618389,2.56862821 25.9463536,2.46758415 25.4283422,2.46758415 C24.0793561,2.46758415 22.832892,2.77603487 21.7968693,3.58970747 C21.5918234,3.69075192 21.3813799,3.89815818 21.176336,4.10024749 L15.478199,9.71619979 C15.0627096,10.1256966 14.6472243,10.1256966 14.1292129,9.9182883 C13.8162479,9.81724424 13.4007601,9.30670502 13.4007601,8.89720824 C13.4007601,8.48771147 13.605806,8.17926196 13.8162495,7.87612819 C15.683247,6.03605859 17.5502444,4.19598899 19.4172216,2.45697863 C20.5557662,1.33485532 21.8022304,0.616909028 23.3562604,0.30845951 C24.0847132,8.39329293e-06 24.9102944,8.39329293e-06 25.6387472,8.39329293e-06 C26.5722439,0.101052849 27.5057447,0.30845951 28.4392414,0.611591677 C29.475264,1.02108845 30.3062388,1.63267173 31.029294,2.45166128 C32.0653167,3.47274133 32.6912435,4.80227091 32.9988134,6.13180048 C33.2038593,6.95079003 33.2038593,7.76977957 33.1013366,8.48241011 C32.9988134,9.60453342 32.6858472,10.6309292 32.1678399,11.550966 C31.6498285,12.3699556 31.0292952,13.0825861 30.3008424,13.8005324 L20.8687106,23.1072554 C20.4532212,23.5167522 19.5197245,23.6177954 19.1042351,23.1072554 L11.3286916,15.4385435 C10.6002388,14.7205972 9.87718356,14.1090139 9.14873074,13.3963874 C8.01018612,12.274264 7.28173329,10.9447345 7.07668942,9.40779863 C7.07668942,8.99830186 6.97416626,8.28567532 6.97416626,7.66877229 C7.07668942,6.0307932 7.59469955,4.39812986 8.63611578,3.06860828 C9.46709054,2.04752822 10.4005913,1.22853868 11.6416579,0.717998648 C12.3701107,0.409547531 13.0931659,0.106415364 13.9241447,0.106415364 C14.4421561,0.106415364 14.9601674,0.00537090811 15.5860942,0.00537090811 C16.0015836,0.00537090811 16.3145471,0.00537090811 16.7246389,0.106415364 C17.4530917,0.308503875 17.7606616,0.925404909 17.4530917,1.63803545 C17.2480458,2.24961873 16.6221169,2.55806825 15.8990576,2.45702499 C15.4835682,2.35598054 14.9655609,2.45702499 14.5500715,2.45702499 C13.8216187,2.55806945 13.0985635,2.76547571 12.4780302,3.17497128 C11.3394856,3.78655457 10.5085108,4.70659136 9.99049948,5.93507369 C9.47248814,6.75406323 9.3699662,7.67410003 9.47248814,8.59413283 C9.57501129,9.61521289 9.99049948,10.5352457 10.6110328,11.3542352 C11.0265222,11.8647753 11.5445295,12.3753153 12.0625408,12.8858553 L20.0431606,20.7566857 L20.0431788,20.7566134 Z" id="Shape"></path>
                    </g>
                </g>
            </g>
        </g>
    </g>
</svg>