<?xml version="1.0" encoding="UTF-8"?>
<svg width="30px" height="35px" viewBox="0 0 30 35" version="1.1" xmlns="http://www.w3.org/2000/svg" xmlns:xlink="http://www.w3.org/1999/xlink">
    <!-- Generator: Sketch 57.1 (83088) - https://sketch.com -->
    <title>Android-</title>
    <desc>Created with Sketch.</desc>
    <g id="Page-1" stroke="none" stroke-width="1" fill="none" fill-rule="evenodd">
        <g id="首页-3" transform="translate(-622.000000, -4634.000000)" fill="#FFFFFF" fill-rule="nonzero">
            <path d="M632.507091,4641.46387 C632.732703,4641.46387 632.932531,4641.38112 633.093683,4641.22199 C633.254835,4641.06285 633.338633,4640.86553 633.338633,4640.64275 C633.338633,4640.41996 633.254835,4640.22264 633.093683,4640.06351 C632.932531,4639.90438 632.732703,4639.82163 632.507091,4639.82163 C632.281478,4639.82163 632.088096,4639.90438 631.933391,4640.06351 C631.778685,4640.22264 631.701332,4640.41996 631.701332,4640.64275 C631.701332,4640.86553 631.778685,4641.06285 631.933391,4641.22199 C632.088096,4641.38112 632.275032,4641.46387 632.507091,4641.46387 Z M641.492909,4641.46387 C641.718522,4641.46387 641.911904,4641.38112 642.066609,4641.22199 C642.221315,4641.06285 642.298668,4640.86553 642.298668,4640.64275 C642.298668,4640.41996 642.221315,4640.22264 642.066609,4640.06351 C641.911904,4639.90438 641.718522,4639.82163 641.492909,4639.82163 C641.267297,4639.82163 641.067469,4639.90438 640.906317,4640.06351 C640.745165,4640.22264 640.661367,4640.41996 640.661367,4640.64275 C640.661367,4640.86553 640.745165,4641.06285 640.906317,4641.22199 C641.067469,4641.38112 641.267297,4641.46387 641.492909,4641.46387 Z M624.198109,4645.34031 C624.797593,4645.34031 625.306833,4645.55037 625.732273,4645.97047 C626.157714,4646.39058 626.370434,4646.89344 626.370434,4647.48541 L626.370434,4656.53045 C626.370434,4657.13515 626.16416,4657.64437 625.738719,4658.06448 C625.319725,4658.48458 624.80404,4658.69464 624.191663,4658.69464 C623.579287,4658.69464 623.063601,4658.48458 622.638161,4658.06448 C622.21272,4657.64437 622,4657.12878 622,4656.53045 L622,4647.48541 C622,4646.89344 622.21272,4646.39058 622.638161,4645.97047 C623.063601,4645.55037 623.585733,4645.34031 624.198109,4645.34031 Z M646.778685,4645.73496 L646.778685,4659.74491 C646.778685,4660.3878 646.553073,4660.93521 646.095402,4661.38714 C645.637731,4661.83908 645.096261,4662.06186 644.451654,4662.06186 L642.85303,4662.06186 L642.85303,4666.83581 C642.85303,4667.44051 642.640309,4667.94973 642.214869,4668.36984 C641.789428,4668.78995 641.267297,4669 640.661367,4669 C640.055436,4669 639.533305,4668.78995 639.107864,4668.36984 C638.682424,4667.94973 638.469703,4667.43414 638.469703,4666.83581 L638.469703,4662.06186 L635.530297,4662.06186 L635.530297,4666.83581 C635.530297,4667.44051 635.317576,4667.94973 634.892136,4668.36984 C634.466695,4668.78995 633.944564,4669 633.338633,4669 C632.739149,4669 632.22991,4668.78995 631.804469,4668.36984 C631.379029,4667.94973 631.166309,4667.43414 631.166309,4666.83581 L631.14697,4662.06186 L629.567684,4662.06186 C628.916631,4662.06186 628.362269,4661.83908 627.904598,4661.38714 C627.446927,4660.93521 627.221315,4660.39416 627.221315,4659.74491 L627.221315,4645.73496 L646.778685,4645.73496 Z M641.834551,4637.21823 C643.355823,4637.98843 644.567684,4639.06416 645.476579,4640.44542 C646.385475,4641.82669 646.843146,4643.33525 646.843146,4644.97749 L627.137516,4644.97749 C627.137516,4643.33525 627.595187,4641.82669 628.504083,4640.44542 C629.412978,4639.06416 630.637731,4637.98843 632.171895,4637.21823 L630.657069,4634.46207 C630.560378,4634.27748 630.592609,4634.13745 630.766652,4634.04197 C630.953588,4633.95922 631.095402,4633.99741 631.192093,4634.16927 L632.726257,4636.94453 C634.073485,4636.35256 635.504512,4636.05976 637.006446,4636.05976 C638.50838,4636.05976 639.939407,4636.35256 641.286635,4636.94453 L642.820799,4634.16927 C642.91749,4634.00378 643.059304,4633.95922 643.24624,4634.04197 C643.413838,4634.13745 643.452514,4634.27748 643.355823,4634.46207 L641.834551,4637.21823 Z M652,4647.48541 L652,4656.53045 C652,4657.13515 651.78728,4657.64437 651.361839,4658.06448 C650.936399,4658.48458 650.414267,4658.69464 649.808337,4658.69464 C649.208853,4658.69464 648.699613,4658.48458 648.274173,4658.06448 C647.848732,4657.64437 647.636012,4657.12878 647.636012,4656.53045 L647.636012,4647.48541 C647.636012,4646.88071 647.848732,4646.37148 648.274173,4645.95774 C648.699613,4645.544 649.208853,4645.33395 649.808337,4645.33395 C650.420713,4645.33395 650.936399,4645.544 651.361839,4645.95774 C651.78728,4646.37148 652,4646.88071 652,4647.48541 Z" id="Android-"></path>
        </g>
    </g>
</svg>