<?xml version="1.0" encoding="UTF-8"?>
<svg width="30px" height="36px" viewBox="0 0 30 36" version="1.1" xmlns="http://www.w3.org/2000/svg" xmlns:xlink="http://www.w3.org/1999/xlink">
    <!-- Generator: Sketch 57.1 (83088) - https://sketch.com -->
    <title>ios</title>
    <desc>Created with Sketch.</desc>
    <g id="Page-1" stroke="none" stroke-width="1" fill="none" fill-rule="evenodd">
        <g id="首页-3" transform="translate(-950.000000, -4634.000000)" fill="#00A651" fill-rule="nonzero">
            <path d="M980,4660.2872 C979.441127,4662.0872 978.559828,4663.8944 977.348937,4665.6944 C975.500358,4668.524 973.651779,4669.9352 971.81753,4669.9352 C971.115357,4669.9352 970.112252,4669.7048 968.801051,4669.244 C967.568665,4668.7832 966.47958,4668.5528 965.548125,4668.5528 C964.673991,4668.5528 963.656556,4668.7904 962.488655,4669.2656 C961.32792,4669.7552 960.382135,4670 959.644137,4670 C957.465966,4670 955.302126,4668.1352 953.166945,4664.3984 C951.060425,4660.6328 950,4657.004 950,4653.5192 C950,4650.2288 950.809649,4647.536 952.436112,4645.4264 C954.04108,4643.3528 956.083114,4642.3088 958.547886,4642.3088 C959.579651,4642.3088 960.855027,4642.5248 962.359685,4642.9568 C963.850012,4643.3888 964.845952,4643.6048 965.333174,4643.6048 C965.978027,4643.6048 967.002627,4643.36 968.414139,4642.8704 C969.875806,4642.3808 971.122522,4642.136 972.139957,4642.136 C973.845235,4642.136 975.378553,4642.604 976.725579,4643.54 C977.470743,4644.0584 978.215906,4644.7784 978.96107,4645.7 C977.828995,4646.6648 977.012181,4647.5144 976.503463,4648.256 C975.572009,4649.6096 975.106281,4651.1072 975.106281,4652.7344 C975.106281,4654.52 975.600669,4656.1328 976.589444,4657.5584 C977.578218,4658.984 978.724624,4659.8984 980,4660.2872 Z M971.903511,4634.9072 C971.903511,4635.7856 971.695725,4636.7648 971.280153,4637.852 C970.850251,4638.932 970.183903,4639.9256 969.281108,4640.84 C968.507284,4641.6176 967.733461,4642.136 966.952472,4642.3952 C966.422259,4642.5536 965.677096,4642.676 964.716981,4642.7624 C964.759971,4640.6168 965.318844,4638.7592 966.393599,4637.204 C967.454024,4635.6632 969.252448,4634.5904 971.77454,4634 C971.78887,4634.0432 971.810365,4634.1224 971.831861,4634.2376 C971.853356,4634.3528 971.874851,4634.432 971.889181,4634.4752 C971.889181,4634.5328 971.896346,4634.6048 971.903511,4634.6912 C971.903511,4634.7776 971.903511,4634.8496 971.903511,4634.9072 Z" id="ios"></path>
        </g>
    </g>
</svg>