<?xml version="1.0" encoding="iso-8859-1"?>
<!-- Generator: Adobe Illustrator 16.0.0, SVG Export Plug-In . SVG Version: 6.00 Build 0)  -->
<!DOCTYPE svg PUBLIC "-//W3C//DTD SVG 1.1//EN" "http://www.w3.org/Graphics/SVG/1.1/DTD/svg11.dtd">
<svg version="1.1" id="&#x56FE;&#x5C42;_1" xmlns="http://www.w3.org/2000/svg" xmlns:xlink="http://www.w3.org/1999/xlink" x="0px"
	 y="0px" width="179.831px" height="36.019px" viewBox="0 0 179.831 36.019" style="enable-background:new 0 0 179.831 36.019;"
	 xml:space="preserve">
<g>
	<radialGradient id="SVGID_1_" cx="18.0688" cy="18.0093" r="18.0396" gradientUnits="userSpaceOnUse">
		<stop  offset="0.6" style="stop-color:#1CBCB4"/>
		<stop  offset="1" style="stop-color:#00A651"/>
	</radialGradient>
	<path style="fill:url(#SVGID_1_);" d="M19.198,0.904v9.64c0,0.404,0.269,0.762,0.658,0.868c3.008,0.82,5.183,3.658,4.976,6.971
		c-0.211,3.371-2.947,6.112-6.318,6.327c-3.944,0.252-7.221-2.871-7.221-6.762c0-3.125,2.115-5.753,4.991-6.537
		c0.389-0.106,0.656-0.464,0.656-0.868v-9.64c0-0.535-0.465-0.961-0.997-0.898C6.887,1.067-0.121,8.82,0,18.188
		c0.125,9.661,7.969,17.596,17.629,17.825c10.181,0.241,18.51-7.939,18.51-18.065c0-9.26-6.966-16.89-15.944-17.942
		C19.663-0.057,19.198,0.369,19.198,0.904z"/>
	<g>
		<linearGradient id="SVGID_2_" gradientUnits="userSpaceOnUse" x1="96.353" y1="31.0205" x2="96.353" y2="4.999">
			<stop  offset="0" style="stop-color:#00A651"/>
			<stop  offset="1" style="stop-color:#1CBCB4"/>
		</linearGradient>
		<path style="fill:url(#SVGID_2_);" d="M89.607,14.942c1.859,1.86,4.304,2.791,6.746,2.791c2.443,0,4.888-0.93,6.746-2.791
			l8.76-8.759c0.438-0.437,0.128-1.185-0.49-1.185h-5.397c-0.184,0-0.36,0.073-0.49,0.203l-6.062,6.061
			c-1.692,1.694-4.439,1.694-6.133,0l-6.061-6.061c-0.131-0.13-0.307-0.203-0.491-0.203h-5.397c-0.618,0-0.928,0.748-0.49,1.185
			L89.607,14.942z M103.099,21.076c-1.858-1.86-4.303-2.791-6.746-2.791c-2.442,0-4.887,0.93-6.746,2.791l-8.759,8.76
			c-0.438,0.436-0.127,1.185,0.49,1.185h5.397c0.184,0,0.36-0.073,0.491-0.204l6.061-6.061c1.693-1.693,4.44-1.693,6.133,0
			l6.062,6.061c0.13,0.131,0.307,0.204,0.49,0.204h5.397c0.618,0,0.928-0.749,0.49-1.185L103.099,21.076z"/>
		<linearGradient id="SVGID_3_" gradientUnits="userSpaceOnUse" x1="63.1357" y1="31.0205" x2="63.1357" y2="4.999">
			<stop  offset="0" style="stop-color:#00A651"/>
			<stop  offset="1" style="stop-color:#1CBCB4"/>
		</linearGradient>
		<path style="fill:url(#SVGID_3_);" d="M56.691,10.203h19.195c0.383,0,0.694-0.31,0.694-0.694V5.692
			c0-0.383-0.311-0.694-0.694-0.694H56.631c-3.882,0-7.029,3.204-6.937,7.106c0.037,1.574,0.61,3.008,1.539,4.148
			c-0.963,1.191-1.542,2.707-1.542,4.358v9.715c0,0.382,0.311,0.694,0.694,0.694h3.817c0.383,0,0.694-0.313,0.694-0.694v-9.715
			c0-0.958,0.776-1.734,1.735-1.734h0.13h19.125c0.383,0,0.694-0.311,0.694-0.694v-3.817c0-0.383-0.311-0.693-0.694-0.693H56.631
			c-0.997,0-1.798-0.843-1.731-1.854C54.961,10.898,55.769,10.203,56.691,10.203z"/>
		<linearGradient id="SVGID_4_" gradientUnits="userSpaceOnUse" x1="131.7388" y1="31.0205" x2="131.7388" y2="4.999">
			<stop  offset="0" style="stop-color:#00A651"/>
			<stop  offset="1" style="stop-color:#1CBCB4"/>
		</linearGradient>
		<path style="fill:url(#SVGID_4_);" d="M143.196,14.945c0.451-0.934,0.698-1.983,0.687-3.089c-0.044-3.822-3.246-6.857-7.067-6.857
			H116.82c-0.382,0-0.694,0.311-0.694,0.694v24.634c0,0.382,0.313,0.694,0.694,0.694h21.711c4.766,0,8.752-3.783,8.82-8.548
			C147.397,19.291,145.72,16.492,143.196,14.945z M138.593,25.816h-16.569c-0.382,0-0.693-0.313-0.693-0.694V10.896
			c0-0.383,0.312-0.694,0.693-0.694h14.858c0.923,0,1.73,0.695,1.791,1.616c0.068,1.011-0.733,1.854-1.729,1.854h-11.45
			c-0.383,0-0.693,0.31-0.693,0.693v3.817c0,0.383,0.311,0.694,0.693,0.694h11.45h1.735c1.956,0,3.541,1.629,3.466,3.604
			C142.074,24.357,140.471,25.816,138.593,25.816z"/>
		<linearGradient id="SVGID_5_" gradientUnits="userSpaceOnUse" x1="163.4956" y1="31.0205" x2="163.4956" y2="4.999">
			<stop  offset="0" style="stop-color:#00A651"/>
			<stop  offset="1" style="stop-color:#1CBCB4"/>
		</linearGradient>
		<path style="fill:url(#SVGID_5_);" d="M174.868,4.999c-0.262,0-0.501,0.149-0.619,0.384l-9.979,19.953
			c-0.207,0.417-0.575,0.48-0.774,0.48c-0.2,0-0.567-0.063-0.776-0.48l-9.977-19.953c-0.117-0.235-0.357-0.384-0.62-0.384h-4.269
			c-0.515,0-0.85,0.542-0.619,1.004l10.781,21.562c1.034,2.07,3.127,3.44,5.44,3.456c2.33,0.013,4.429-1.275,5.469-3.357
			l10.831-21.66c0.231-0.462-0.105-1.004-0.621-1.004H174.868z"/>
	</g>
</g>
</svg>
