<?xml version="1.0" encoding="UTF-8"?>
<svg width="80px" height="80px" viewBox="0 0 80 80" version="1.1" xmlns="http://www.w3.org/2000/svg" xmlns:xlink="http://www.w3.org/1999/xlink">
    <!-- Generator: Sketch 57.1 (83088) - https://sketch.com -->
    <title>超低成本</title>
    <desc>Created with Sketch.</desc>
    <g id="Page-1" stroke="none" stroke-width="1" fill="none" fill-rule="evenodd">
        <g id="首页-3" transform="translate(-910.000000, -2432.000000)">
            <g id="超低成本" transform="translate(910.000000, 2432.000000)">
                <circle id="Oval-2" fill="#00D05A" cx="40" cy="40" r="40"></circle>
                <g id="低成本" transform="translate(23.000000, 28.000000)" fill="#FFFFFF" fill-rule="nonzero">
                    <path d="M32.1974418,21.2996979 L1.60172259,21.2996979 C1.039261,21.2996979 0.5827175,21.7563949 0.5827175,22.3272661 C0.5827175,22.8981373 1.039261,23.3548343 1.60172259,23.3548343 L32.1974418,23.3548343 C32.7599034,23.3548343 33.2164469,22.8981373 33.2164469,22.3272661 C33.2164469,21.7563949 32.7635557,21.2996979 32.1974418,21.2996979 Z M33.249318,13.1491304 C33.2566227,13.0975679 33.3369744,13.0533714 33.3369744,13.0018088 L33.3369744,6.78852034 C33.3369744,6.21764914 32.8877356,5.7535861 32.325274,5.7535861 C31.7628124,5.7535861 31.3135736,6.21764914 31.3135736,6.78852034 L31.3135736,10.6483463 L20.718112,0.847776823 C20.5245376,0.667307863 20.2067833,0.575231863 19.962076,0.575231863 C19.6991069,0.575231863 19.4397902,0.678356983 19.2425634,0.877241143 L10.7800731,9.46977346 L2.32123515,0.880924183 C1.92312922,0.475789783 1.27666362,0.475789783 0.878557688,0.880924183 C0.480451756,1.28605858 0.480451756,1.9416397 0.878557688,2.3467741 L10.0605606,11.6722314 C10.4586665,12.0773658 11.1051321,12.0847319 11.503238,11.6795975 L19.9912948,3.07233298 L29.5787083,12.0221202 L26.0797589,12.0221202 C25.5172973,12.0221202 25.0607538,12.4788171 25.0607538,13.0496883 C25.0607538,13.6205595 25.5172973,14.0772565 26.0797589,14.0772565 L32.2010941,14.0772565 C32.2083988,14.0772565 32.2157035,14.0551583 32.2230082,14.0551583 C32.3033599,14.0551583 32.3800592,14.0109618 32.4604108,13.9888635 C32.5115437,13.9741314 32.5663289,13.9741314 32.6101571,13.9520331 C32.66129,13.9299349 32.7014658,13.8894215 32.7489463,13.8599571 C32.8146886,13.8157607 32.8840832,13.7789303 32.9388684,13.7200016 C32.9461731,13.7126355 32.9571302,13.7126355 32.9607825,13.7052695 C32.997306,13.664756 33.0155677,13.6168765 33.0447865,13.5763631 C33.0886147,13.5137514 33.1470523,13.4548227 33.1762711,13.3811619 C33.2018375,13.3038181 33.238361,13.2264743 33.249318,13.1491304 L33.249318,13.1491304 Z" id="Shape"></path>
                </g>
            </g>
        </g>
    </g>
</svg>