<?xml version="1.0" encoding="UTF-8"?>
<svg width="80px" height="80px" viewBox="0 0 80 80" version="1.1" xmlns="http://www.w3.org/2000/svg" xmlns:xlink="http://www.w3.org/1999/xlink">
    <!-- Generator: Sketch 57.1 (83088) - https://sketch.com -->
    <title>产品多样</title>
    <desc>Created with Sketch.</desc>
    <g id="Page-1" stroke="none" stroke-width="1" fill="none" fill-rule="evenodd">
        <g id="首页-3" transform="translate(-1300.000000, -1946.000000)">
            <g id="产品多样" transform="translate(1300.000000, 1946.000000)">
                <circle id="Oval-2" fill="#00D05A" cx="40" cy="40" r="40"></circle>
                <g id="8-多种配置" transform="translate(21.000000, 22.000000)" fill="#FFFFFF" fill-rule="nonzero">
                    <path d="M26.6731499,2.72807597 C26.6731499,2.72807597 22.7104318,0.144860918 18.8019639,0.221048671 C14.8935084,0.297237646 11.4826693,2.06945247 11.4826693,2.06945247 L18.0872403,17.2178134 L26.6731499,2.72805562 L26.6731499,2.72807597 Z M13.6304733,3.02283375 C13.6304733,3.02283375 15.5775759,1.88878988 18.7839622,1.82630827 C21.9903606,1.76382421 24.3695345,3.65279933 24.3695345,3.65279933 L18.0524205,14.3620717 L13.6304733,3.02285411 L13.6304733,3.02283375 Z M17.6994999,19.6421931 L10.7837145,6.47595126 C10.7918182,6.47211891 10.7998801,6.46828656 10.8079839,6.46445418 L10.2256039,5.0706042 C10.1770652,5.09247362 10.1286519,5.1145929 10.0803634,5.13692044 L10.0508308,5.08068495 L8.61897914,5.79462559 L8.66384194,5.88006203 C3.92304697,8.67613955 0.743671589,13.8261646 0.743671589,19.7166715 C0.743671589,28.5885391 7.95569033,35.78058 16.8522021,35.78058 C22.9874205,35.78058 28.3215394,32.3601626 31.0417266,27.3272239 L30.8129427,27.2131279 L17.6994837,19.6421837 L17.6994999,19.6421931 Z M9.37818787,7.24002698 L16.4941971,20.787574 L28.8599496,27.9268582 C28.6734806,28.1889997 28.478198,28.444435 28.2750632,28.6932461 L15.5594803,21.0850547 L8.56964675,7.77772136 C8.83276704,7.58993581 9.10227897,7.41035684 9.37813889,7.24002698 L9.37818787,7.24002698 Z M17.0101257,34.0376322 C8.99165988,34.0376322 2.49138493,27.5553635 2.49138493,19.5591096 C2.49138493,14.9430257 4.65779083,10.8317528 8.03180994,8.18056878 L15.0623414,21.5014983 L27.7899255,29.2579457 C25.1328262,32.1929857 21.2875279,34.0376322 17.0100848,34.0376322 L17.0101257,34.0376322 Z M27.3127763,4.78977413 L19.3579495,19.3332249 L34.6047213,27.9270617 C34.6047213,27.9270617 35.1391088,26.8594603 35.2676399,26.6049421 C36.3595927,24.4397053 37.2563507,21.7047213 37.2563507,19.3332371 C37.2563507,12.7225776 32.6558961,7.31347514 27.3127967,4.78977413 L27.3127763,4.78977413 Z M34.522754,24.4871741 C34.4190765,24.6924548 33.8719101,25.7852602 33.8719101,25.7852602 L21.5057495,18.6457725 L28.0142293,6.96294471 C32.3234306,8.998256 35.8244296,13.9633764 35.8244296,19.2948501 C35.8244296,21.2074859 35.4034125,22.74097 34.5227377,24.487227 L34.522754,24.4871741 Z" id="Shape"></path>
                </g>
            </g>
        </g>
    </g>
</svg>