<?xml version="1.0" encoding="UTF-8"?>
<svg width="80px" height="80px" viewBox="0 0 80 80" version="1.1" xmlns="http://www.w3.org/2000/svg" xmlns:xlink="http://www.w3.org/1999/xlink">
    <!-- Generator: Sketch 57.1 (83088) - https://sketch.com -->
    <title>IB支持</title>
    <desc>Created with Sketch.</desc>
    <g id="Page-1" stroke="none" stroke-width="1" fill="none" fill-rule="evenodd">
        <g id="首页-3" transform="translate(-534.000000, -2432.000000)">
            <g id="IB支持" transform="translate(534.000000, 2432.000000)">
                <circle id="Oval-2" fill="#00D05A" cx="40" cy="40" r="40"></circle>
                <g id="服务支持" transform="translate(25.000000, 24.000000)" fill="#FFFFFF" fill-rule="nonzero">
                    <g id="Group" transform="translate(1.031326, 0.000000)">
                        <path d="M1.81098367,27.0654764 L4.14607988,27.0654764 C4.22297225,27.0654764 4.29986431,26.9890769 4.38080366,26.9890769 C4.61552744,27.1418755 4.84620362,27.0654764 5.15782068,27.1418755 C5.70416029,27.2946742 6.24645171,27.3750947 6.79279133,27.4514951 L9.5932875,27.9943325 L12.2359526,28.5371699 L14.8786176,29.0800074 C15.2671261,29.1564068 15.7325261,29.1564068 16.0441432,28.9272087 L18.8446393,27.3027187 L22.18743,25.3726313 C23.3529555,24.7533953 24.4415865,24.0577578 25.6111542,23.442544 C26.1574938,23.1329245 26.4650626,22.7469095 26.4650626,22.0512719 C26.4650626,21.5084344 26.2303389,21.1224164 25.7649401,20.8932177 C25.2995402,20.5835982 24.7532005,20.5835982 24.2878006,20.8168182 L21.4873044,22.4413083 C20.3217789,23.1369428 19.1522082,23.7561818 17.9866918,24.4518164 C17.751968,24.604615 17.5212918,24.6850355 17.3634607,24.9946538 C16.8171211,26.0763065 15.6515956,26.4623245 14.4860731,26.0763065 C14.0206731,25.9235078 13.4743335,25.6902884 13.0089335,25.533469 L9.04291489,23.9893998 C8.96602253,23.9130003 8.88913046,23.9130003 8.88913046,23.7561809 L8.88913046,22.0552893 L8.96602283,22.0552893 L11.3780105,22.9841448 L15.1133639,24.4518155 C15.3480877,24.528215 15.6597035,24.4518155 15.8134864,24.2990169 C16.0482102,23.9893974 15.8903788,23.6033823 15.5018694,23.4505822 L13.5552817,22.678546 L9.74303985,21.1344768 L7.33105218,20.2056213 L6.16552666,19.7432046 C5.93080288,19.6668052 5.70012669,19.7432046 5.46540413,19.7432046 L4.3767731,19.8960033 L3.05341647,20.0488019 L1.80695433,20.2016005 L1.80695433,27.0654737 L1.81098367,27.0654764 Z M0.0222270774,18.641448 L1.81098367,18.4082289 L3.13434031,18.2554302 L4.84620545,18.0222111 L5.85794503,17.9458116 C6.32334499,17.8694122 6.79279315,18.0986103 7.25819311,18.2554312 L10.6009837,19.5703047 L13.5552628,20.7283589 C14.4091713,21.0379785 15.267128,21.4239935 16.1210334,21.733613 C16.667373,21.9668321 17.132773,22.2764504 17.44439,22.8152656 L18.2982985,22.352849 L20.2448862,21.2711964 C20.9450087,20.8851783 21.6451343,20.4227617 22.3452568,20.0327244 C22.9684879,19.7231049 23.5107823,19.2606882 24.2109049,19.0274703 C25.3764304,18.7178508 26.4650614,18.9510709 27.3999187,19.7995065 C27.9462583,20.2619231 28.2538271,20.8811591 28.3347668,21.5767967 C28.4885512,22.4252314 28.2578744,23.2776883 27.7115357,23.9733229 C27.3230272,24.5161603 26.7766876,24.8217576 26.1575047,25.1313771 C25.5342737,25.4409966 24.9110426,25.8270116 24.210917,26.2130297 L22.345269,27.2946823 L20.4027295,28.5331543 L18.5370814,29.614807 L16.9021108,30.5436625 C16.5136023,30.7768816 16.0482023,30.853282 15.5787541,30.9296805 C14.9555231,31.0060797 14.332292,30.7768819 13.6362146,30.6964614 C12.9360921,30.5436628 12.2359666,30.3868419 11.535844,30.3104433 L9.20074782,29.8480267 L7.17726867,29.3856101 L4.92311211,28.9231934 C4.76932768,28.846794 4.61149505,28.846794 4.45771215,28.846794 L0.0222270774,28.846794 L0.0222270774,18.6414622 L0.0222270774,18.641448 Z" id="Shape"></path>
                        <path d="M15.0323841,15.6940248 C15.1092765,15.6176253 15.1092765,15.5412261 15.1861685,15.5412261 L21.2525669,9.59011045 C21.7989066,9.04727301 22.341198,8.43205624 22.652815,7.73642168 C22.8875388,7.27400505 23.0413235,6.80756617 23.118215,6.34514954 C23.1951074,5.33989548 22.9644306,4.49146078 22.4180925,3.71942464 C21.8717528,2.87098994 21.0178444,2.3281525 20.0829963,2.01853299 C19.7713792,1.94213352 19.4597652,1.86573436 19.0712567,1.86573436 C18.0595171,1.86573436 17.124669,2.0989532 16.347652,2.71416906 C16.1938675,2.79056853 16.0360349,2.94738789 15.882252,3.10018713 L11.6086493,7.34639496 C11.2970322,7.65601447 10.9854182,7.65601447 10.5969097,7.49919359 C10.3621859,7.42279443 10.0505701,7.03677696 10.0505701,6.72715745 C10.0505701,6.41753794 10.2043545,6.18432001 10.3621871,5.95512131 C11.7624352,4.56384918 13.1626833,3.17257704 14.5629162,1.85771555 C15.4168247,1.00928085 16.3516728,0.466443412 17.5171953,0.233225483 C18.0635349,6.34614831e-06 18.6827208,6.34614831e-06 19.2290604,6.34614831e-06 C19.9291829,0.0764058124 20.6293085,0.233225483 21.329431,0.462422976 C22.106448,0.772042486 22.7296791,1.23445911 23.2719705,1.85369511 C24.0489875,2.62573125 24.5184327,3.63098532 24.7491101,4.63623939 C24.9028945,5.25547539 24.9028945,5.87471138 24.8260024,6.4135296 C24.7491101,7.26196429 24.5143854,8.03801966 24.1258799,8.73365724 C23.7373714,9.35289324 23.2719714,9.89171145 22.7256318,10.4345489 L15.6515329,17.4713395 C15.3399159,17.780959 14.6397933,17.8573575 14.3281763,17.4713395 L8.4965187,11.6730451 C7.95017909,11.1302076 7.40788767,10.667791 6.86154806,10.1289758 C6.00763959,9.2805411 5.46129997,8.27528704 5.30751706,7.1132136 C5.30751706,6.80359409 5.2306247,6.2647789 5.2306247,5.79834002 C5.30751706,4.55986803 5.69602466,3.32541526 6.47708684,2.32016723 C7.1003179,1.54813109 7.80044347,0.928895096 8.73124339,0.542877026 C9.27758301,0.309657889 9.81987443,0.0804603968 10.4431085,0.0804603968 C10.831617,0.0804603968 11.2201256,0.00406093052 11.6895707,0.00406093052 C12.0011877,0.00406093052 12.2359103,0.00406093052 12.5434791,0.0804603968 C13.0898188,0.233259027 13.3204962,0.699696395 13.0898188,1.23851461 C12.9360343,1.70093124 12.4665877,1.93414916 11.9242932,1.8577506 C11.6126762,1.78135114 11.2241707,1.8577506 10.9125537,1.8577506 C10.366214,1.93415007 9.82392262,2.09096944 9.35852266,2.40058804 C8.50461419,2.86300467 7.88138312,3.55864225 7.49287461,4.48749474 C7.1043661,5.10673074 7.02747465,5.80236832 7.1043661,6.49800287 C7.18125847,7.27003901 7.49287461,7.96567357 7.95827458,8.58490957 C8.26989163,8.97092764 8.6583971,9.35694571 9.04690561,9.74296378 L15.0323704,15.6940795 L15.0323841,15.6940248 Z" id="Shape"></path>
                    </g>
                </g>
            </g>
        </g>
    </g>
</svg>