<?xml version="1.0" encoding="UTF-8"?>
<svg width="80px" height="80px" viewBox="0 0 80 80" version="1.1" xmlns="http://www.w3.org/2000/svg" xmlns:xlink="http://www.w3.org/1999/xlink">
    <!-- Generator: Sketch 57.1 (83088) - https://sketch.com -->
    <title>闪电执行</title>
    <desc>Created with Sketch.</desc>
    <g id="Page-1" stroke="none" stroke-width="1" fill="none" fill-rule="evenodd">
        <g id="首页-3" transform="translate(-910.000000, -2185.000000)">
            <g id="闪电执行" transform="translate(910.000000, 2185.000000)">
                <circle id="Oval-2" fill="#00D05A" cx="40" cy="40" r="40"></circle>
                <g id="闪电" transform="translate(28.000000, 20.000000)" fill="#FFFFFF" fill-rule="nonzero">
                    <path d="M5.70392336,39.2070792 C5.59650136,39.2070792 5.48478248,39.1812979 5.38165736,39.1254385 C5.09806328,38.9750477 4.95626624,38.6441879 5.04220384,38.3348126 L9.30041192,22.9992478 L0.9257928,22.9992478 C0.65938624,22.9992478 0.41876096,22.848857 0.30704208,22.6082318 C0.1953232,22.3676065 0.22540136,22.0840124 0.39297968,21.882059 L17.4773746,0.7070344 C17.675031,0.45781536 18.0187814,0.38047152 18.3066724,0.51797168 C18.5945634,0.65547184 18.749251,0.96914408 18.6847978,1.27851944 L15.4621378,16.6312717 L23.7937882,16.549631 C24.0687885,16.549631 24.3180075,16.7086155 24.4297264,16.9578346 C24.5414453,17.2070536 24.4941796,17.4992414 24.3094138,17.7011948 L20.4379249,21.955106 C20.184409,22.2344032 19.7461272,22.2558876 19.46683,22.0023717 C19.1875328,21.7488558 19.1660484,21.310574 19.4195643,21.0312768 L22.2297238,17.946117 L14.6199494,18.0234608 L14.6113556,18.0234608 C14.4051054,18.0234608 14.2117458,17.9332263 14.0785425,17.7699449 C13.9453392,17.6109603 13.8937766,17.3961163 13.9367454,17.194163 L16.746905,3.80508488 L2.35665384,21.6371369 L10.2070536,21.6371369 C10.4218976,21.6371369 10.623851,21.7359651 10.7527574,21.9078403 C10.8816638,22.0797155 10.9246326,22.2988564 10.8687731,22.5094035 L7.1992376,35.7008251 L15.3074502,26.178939 C15.5523723,25.8910481 15.9863572,25.856673 16.278545,26.1015952 C16.566436,26.3465174 16.600811,26.7805022 16.3558889,27.0726901 L6.22814272,38.9664539 C6.09493944,39.1211416 5.90157984,39.2070792 5.70392336,39.2070792 L5.70392336,39.2070792 Z" id="Shape"></path>
                </g>
            </g>
        </g>
    </g>
</svg>