<?xml version="1.0" encoding="UTF-8"?>
<svg width="80px" height="80px" viewBox="0 0 80 80" version="1.1" xmlns="http://www.w3.org/2000/svg" xmlns:xlink="http://www.w3.org/1999/xlink">
    <!-- Generator: Sketch 57.1 (83088) - https://sketch.com -->
    <title>资金安全</title>
    <desc>Created with Sketch.</desc>
    <g id="Page-1" stroke="none" stroke-width="1" fill="none" fill-rule="evenodd">
        <g id="首页-3" transform="translate(-534.000000, -1946.000000)">
            <g id="资金安全" transform="translate(534.000000, 1946.000000)">
                <circle id="Oval-2" fill="#00D05A" cx="40" cy="40" r="40"></circle>
                <g id="安全" transform="translate(25.000000, 21.000000)" fill="#FFFFFF" fill-rule="nonzero">
                    <g id="Group" transform="translate(0.287649, 0.144532)">
                        <path d="M14.7201734,25.5074053 C15.2749748,25.5074053 15.6448463,25.1402432 15.6448463,24.5894982 L15.6448463,19.1738637 L21.1003996,19.1738637 C21.655201,19.1738637 22.0250725,18.8067016 22.0250725,18.2559566 C22.0250725,17.7052147 21.6552041,17.3380496 21.1003996,17.3380496 L15.6448463,17.3380496 L15.6448463,11.922415 C15.6448463,11.3716731 15.2749779,11.004508 14.7201734,11.004508 C14.165372,11.004508 13.7955004,11.37167 13.7955004,11.922415 L13.7955004,17.3380496 L8.3399472,17.3380496 C7.78514578,17.3380496 7.41527425,17.7052116 7.41527425,18.2559566 C7.41527425,18.8066985 7.78514265,19.1738637 8.3399472,19.1738637 L13.7955004,19.1738637 L13.7955004,24.5894982 C13.7955004,25.1402401 14.1653688,25.5074053 14.7201734,25.5074053 Z" id="Shape"></path>
                        <path d="M14.8126344,36.4304984 C14.9975686,36.4304984 15.1825028,36.3387069 15.2749709,36.2469166 L21.4702515,32.2999116 C26.5559606,28.6282912 29.5149093,25.4156087 29.5149093,19.7246207 L29.5149093,6.2314072 C29.5149093,5.77245367 29.1450409,5.4052924 28.7751741,5.31350015 C26.7408983,5.03812842 22.2100102,3.93664345 15.182502,0.173219107 C14.9051005,-0.0103619156 14.6277006,-0.0103619156 14.3502979,0.173219107 C7.23032873,3.93663181 2.79192512,5.03810787 0.757625882,5.31350015 C0.295289406,5.40529085 0.0178906458,5.77245367 0.0178906458,6.2314072 L0.0178906458,19.7246207 C0.0178906458,25.507432 3.06930435,28.7200834 8.24747053,32.2999116 L9.26460844,32.9424458 C9.72694491,33.2178175 10.2817463,33.1260268 10.559149,32.667074 C10.8365505,32.2081205 10.7440832,31.6573786 10.2817475,31.3820057 L9.17214075,30.7394716 C4.36385391,27.4350124 1.77478839,24.6813067 1.77478839,19.7245947 L1.77478839,7.05751928 C4.17893182,6.59856575 8.43241333,5.31349743 14.7201941,2.10084602 C21.0079748,5.4053052 25.3539174,6.59859677 27.6655998,7.05751928 L27.6655998,19.7245947 C27.6655998,24.681268 25.1689875,27.3432124 20.3607085,30.7394716 L14.2578889,34.6864765 C13.7955524,34.9618483 13.7030874,35.5125913 13.9804874,35.9715449 C14.1654216,36.2469166 14.4428238,36.4304984 14.8126915,36.4304984 L14.8126344,36.4304984 Z" id="Shape"></path>
                    </g>
                </g>
            </g>
        </g>
    </g>
</svg>