<?xml version="1.0" encoding="UTF-8"?>
<svg width="80px" height="80px" viewBox="0 0 80 80" version="1.1" xmlns="http://www.w3.org/2000/svg" xmlns:xlink="http://www.w3.org/1999/xlink">
    <!-- Generator: Sketch 57.1 (83088) - https://sketch.com -->
    <title>STP／ECN模式</title>
    <desc>Created with Sketch.</desc>
    <g id="Page-1" stroke="none" stroke-width="1" fill="none" fill-rule="evenodd">
        <g id="首页-3" transform="translate(-910.000000, -1946.000000)">
            <g id="STP／ECN模式" transform="translate(910.000000, 1946.000000)">
                <circle id="Oval-2" fill="#00D05A" cx="40" cy="40" r="40"></circle>
                <g id="技术" transform="translate(24.000000, 23.000000)" fill="#FFFFFF" fill-rule="nonzero">
                    <path d="M31.2104029,0.803676524 L1.77518862,0.803676524 L1.77518855,0.803676524 C0.840631836,0.807359678 0.0840264633,1.56785573 0.0806941783,2.50688797 L0.0806941783,25.5826544 L0.0806941783,25.582639 C0.0840162978,26.5216673 0.840616026,27.2821738 1.77517275,27.2858663 L13.1542277,27.2858663 L13.1542277,32.2917032 L10.0143449,32.2917032 L10.0143449,32.2917032 C9.49088927,32.2917032 9.06654587,32.718077 9.06654587,33.2440371 C9.06654589,33.7699973 9.49088927,34.196371 10.0143449,34.196371 L22.9876318,34.196371 L22.9876317,34.196371 C23.5110873,34.196371 23.9354307,33.7699973 23.9354307,33.2440371 C23.9354307,32.718077 23.5110873,32.2917032 22.9876317,32.2917032 L19.8343807,32.2917032 L19.8343807,27.2858663 L31.2134356,27.2858663 L31.2134355,27.2858663 C32.1479922,27.2821832 32.9045976,26.5216871 32.9079299,25.5826549 L32.9079299,2.5068884 L32.9079299,2.50690378 C32.9046077,1.5678755 32.148008,0.807369014 31.2134513,0.803676524 L31.2104029,0.803676524 Z M17.9211843,32.2733868 L15.0656401,32.2733868 L15.0656401,27.2675499 L17.9211843,27.2675499 L17.9211843,32.2733868 Z M30.994123,25.3628504 L1.99150789,25.3628504 L1.99150789,2.7266208 L30.994123,2.7266208 L30.994123,25.3628504 Z M8.25365905,13.8921087 L10.5295882,11.6089508 L10.5295882,11.6089508 C10.8675425,11.2845028 10.8797438,10.7462102 10.5568405,10.4066357 C10.2339376,10.0670643 9.69820825,10.0548047 9.36025076,10.379253 C9.35106456,10.3880721 9.34207715,10.3970979 9.33329538,10.4063236 L6.47775114,13.2755307 L6.47775112,13.2755307 C6.31500436,13.4387008 6.224927,13.6611177 6.22804299,13.8921053 L6.22804298,13.8921079 C6.22703139,14.1226914 6.31679217,14.3443251 6.47775308,14.5086825 L9.35091561,17.3839963 L9.35091561,17.3839963 C9.68886995,17.7084443 10.224602,17.6961846 10.5475054,17.3566135 C10.8601734,17.0278058 10.8600422,16.5100202 10.5472084,16.1813727 L8.25487416,13.8921121 L8.25365905,13.8921087 Z M14.4993854,17.7807992 L14.2837007,17.6648099 L14.2837007,17.6648099 C13.888981,17.4353254 13.7487241,16.9312313 13.9677682,16.5293356 L17.3567529,10.5406157 L17.3567529,10.5406157 C17.5833989,10.1421354 18.0866965,10.000681 18.4862136,10.2231716 L18.7018983,10.3391609 L18.7018984,10.3391609 C19.096618,10.5686454 19.236875,11.0727395 19.0178308,11.4746352 L15.6288461,17.4694499 L15.6288461,17.4694499 C15.4099229,17.8667666 14.9118967,18.0105362 14.516472,17.7905639 C14.5107388,17.7873746 14.505044,17.7841163 14.4993887,17.7807895 L14.4993854,17.7807992 Z M26.5589085,13.2755262 L23.6851355,10.3880031 L23.6851355,10.3880031 C23.3546212,10.0562445 22.8190234,10.0565176 22.4888451,10.3886136 C22.1586663,10.7207093 22.1589381,11.2588697 22.4894527,11.5906279 L24.7653818,13.8798885 L22.4894527,16.1630464 L22.4894526,16.1630465 C22.1589383,16.494805 22.1586661,17.0329662 22.4888451,17.3650608 C22.8190239,17.6971565 23.3546224,17.69743 23.6851356,17.3656712 L26.5589086,14.496464 L26.5589086,14.496464 C26.7208381,14.3327498 26.8107693,14.1106934 26.8086167,13.8798895 L26.8086167,13.8798894 C26.817054,13.6514889 26.7258565,13.4307631 26.5589086,13.2755242 L26.5589085,13.2755262 Z" id="Shape"></path>
                </g>
            </g>
        </g>
    </g>
</svg>