<?xml version="1.0" encoding="UTF-8"?>
<svg width="80px" height="80px" viewBox="0 0 80 80" version="1.1" xmlns="http://www.w3.org/2000/svg" xmlns:xlink="http://www.w3.org/1999/xlink">
    <!-- Generator: Sketch 57.1 (83088) - https://sketch.com -->
    <title>系统支持</title>
    <desc>Created with Sketch.</desc>
    <g id="Page-1" stroke="none" stroke-width="1" fill="none" fill-rule="evenodd">
        <g id="首页-3" transform="translate(-534.000000, -2185.000000)">
            <g id="系统支持" transform="translate(534.000000, 2185.000000)">
                <circle id="Oval-2" fill="#00D05A" cx="40" cy="40" r="40"></circle>
                <g id="系统" transform="translate(24.000000, 25.000000)" fill="#FFFFFF" fill-rule="nonzero">
                    <path d="M23.3096069,9.21195729 L23.3096069,9.2119573 C23.1459148,9.03816274 22.9150508,8.94605388 22.6783018,8.960082 C22.4296059,8.99883205 22.2191709,9.13445721 22.0852577,9.32820743 L18.7948191,14.4238384 L16.8435124,6.94507966 L16.8435124,6.94507972 C16.7689581,6.63227967 16.5232064,6.39092804 16.2122074,6.325079 L16.2122075,6.32507901 C15.8999105,6.27069272 15.5852187,6.4072842 15.4087283,6.67382942 L11.1043754,13.0675869 L9.00002515,10.5682089 L9.00002517,10.568209 C8.72081197,10.2343446 8.23123786,10.1830517 7.89045866,10.4519588 L5.40349925,12.5444613 L5.40349936,12.5444612 C5.04504182,12.8563349 4.97882713,13.3928208 5.2504557,13.7844626 C5.5182821,14.1719631 6.03480444,14.2494632 6.37915267,13.9394628 L8.27306792,12.3507109 L10.5687228,15.0438391 C10.7408969,15.2375893 10.9513319,15.3538394 11.2191583,15.3344644 C11.4678542,15.3150894 11.6782893,15.1794642 11.8313329,14.966339 L15.7148157,9.17320725 L17.6852528,16.690716 C17.7809051,17.0200914 18.0104706,17.2525917 18.3356883,17.3107167 C18.3739492,17.3300917 18.4313406,17.3300917 18.4696015,17.3300917 C18.7182975,17.3300917 18.9861239,17.1944666 19.1391675,16.9425913 L22.8504762,11.1688346 L25.4139574,13.8619627 C25.7391752,14.1913381 26.2556975,14.1913381 26.5617849,13.8425877 C26.8870026,13.4938373 26.8678722,12.9513366 26.5426544,12.5832112 L23.3096072,9.2119573 L23.3096069,9.21195729 Z M29.0678745,19.6357194 C29.0678745,20.120095 28.6852653,20.5269705 28.1878735,20.5269705 L3.70088844,20.5269705 C3.22262702,20.5269705 2.82088742,20.13947 2.82088742,19.6357194 L2.82088742,4.01945125 C2.82088742,3.53507569 3.20349656,3.12820022 3.70088844,3.12820022 L28.1878735,3.12820022 C28.6661349,3.12820022 29.0678745,3.51570067 29.0678745,4.01945125 L29.0678745,19.6357194 Z M28.3600476,1.21007298 L3.52871433,1.21007298 C2.05566914,1.21007298 0.8695808,2.41132438 0.8695808,3.90320112 L0.8695808,19.7519696 C0.8695808,21.2244713 2.05566914,22.4450977 3.52871433,22.4450977 L14.9495972,22.4450977 L14.9495972,27.7151038 L4.46610672,27.7151038 C3.93045393,27.7151038 3.49045341,28.1607293 3.49045341,28.70323 C3.49045341,29.2457306 3.93045393,29.6913561 4.46610672,29.6913561 L27.4035247,29.6913561 C27.9391775,29.6913561 28.379178,29.2457306 28.379178,28.70323 C28.379178,28.1607293 27.9391775,27.7151038 27.4035247,27.7151038 L16.9009038,27.7151038 L16.9009038,22.4450977 L28.3217867,22.4450977 C29.7757014,22.4450977 30.9809202,21.2438463 30.9809202,19.7519696 L30.9809202,3.90320112 C31.0191811,2.41132438 29.8330928,1.21007298 28.3600476,1.21007298 L28.3600476,1.21007298 Z" id="Shape"></path>
                </g>
            </g>
        </g>
    </g>
</svg>