<?xml version="1.0" encoding="UTF-8"?>
<svg width="80px" height="80px" viewBox="0 0 80 80" version="1.1" xmlns="http://www.w3.org/2000/svg" xmlns:xlink="http://www.w3.org/1999/xlink">
    <!-- Generator: Sketch 57.1 (83088) - https://sketch.com -->
    <title>24/5专业客服</title>
    <desc>Created with Sketch.</desc>
    <g id="Page-1" stroke="none" stroke-width="1" fill="none" fill-rule="evenodd">
        <g id="首页-3" transform="translate(-1300.000000, -2432.000000)">
            <g id="24/5专业客服" transform="translate(1300.000000, 2432.000000)">
                <circle id="Oval-2" fill="#00D05A" cx="40" cy="40" r="40"></circle>
                <g id="客服" transform="translate(22.000000, 23.000000)" fill="#FFFFFF" fill-rule="nonzero">
                    <path d="M1.802577,17.7802168 L1.802577,21.3440803 L1.802577,21.3440807 C1.802577,22.8173343 3.01297266,24.011645 4.50606804,24.011645 C5.99916342,24.011645 7.20955908,22.8173343 7.20955908,21.3440807 L7.20955908,17.7802172 L7.20955908,17.7802172 C7.20955908,16.3069636 5.99916342,15.1126529 4.50606804,15.1126529 C3.01297266,15.1126529 1.802577,16.3069636 1.802577,17.7802172 L1.802577,17.7802168 Z M26.6503906,24.577177 L26.6503906,24.5771771 C25.7451622,23.7392078 25.2320046,22.5687913 25.2328544,21.3440482 L25.2328544,17.7802489 L25.2328544,17.7802414 C25.2347654,15.3382958 27.2323737,13.3549384 29.7071423,13.3378459 C29.2447938,6.87785327 23.7864686,1.77835795 17.1223813,1.77835795 C10.4573497,1.77835795 4.99992968,6.87785327 4.53762024,13.3378137 L4.53762045,13.3378137 C7.01177697,13.3563428 9.00852198,15.3388612 9.01190838,17.7802093 L9.01190838,21.3440728 L9.01190838,21.3440728 C9.01190838,23.7994997 6.99458119,25.7900346 4.50606827,25.7900346 C2.01757164,25.7900346 0.000260725863,23.7995158 0.000260725863,21.3440728 L0.000260725863,17.7802093 L0.000260725863,17.7801578 C0.00133388906,16.0097796 1.0668156,14.4087462 2.7128202,13.70416 C2.99215077,6.08916637 9.3363358,5.26139794e-06 17.1223978,5.26139794e-06 C24.9084598,5.26139794e-06 31.2526296,6.08916637 31.532008,13.7041921 L31.5320078,13.704192 C33.1775304,14.4093534 34.24276,16.0100493 34.2445184,17.7802219 L34.2445184,21.3440855 L34.2445184,21.344182 C34.2427999,23.7995993 32.224088,25.7887302 29.7355848,25.7870274 C29.2216327,25.7866772 28.7115326,25.6995677 28.2273548,25.5294685 L28.2273548,25.5294685 C26.5256503,27.2978419 24.415858,28.6340144 22.0777731,29.4240988 L22.0777732,29.4240955 C22.0341618,31.1147299 20.6295379,32.4611868 18.9155903,32.4553488 L16.2283475,32.4553488 C14.4800832,32.4553488 13.0661613,31.0681976 13.0661613,29.3431661 C13.0661613,27.6208334 14.4755571,26.2310024 16.2292266,26.2310024 L18.9147111,26.2310024 C20.0528689,26.2310024 21.0486674,26.8178685 21.6056008,27.7026335 L21.6056006,27.7026336 C23.5013917,27.0436382 25.2244631,25.9759089 26.6493908,24.5771364 L26.6503906,24.577177 Z M27.0351709,17.7802168 L27.0351709,21.3440803 L27.0351709,21.3440806 C27.0351709,22.8173342 28.2455666,24.0116449 29.7386619,24.0116449 C31.2317573,24.0116449 32.442153,22.8173342 32.442153,21.3440806 L32.442153,17.7802171 L32.442153,17.7802172 C32.442153,16.3069636 31.2317573,15.1126529 29.7386619,15.1126529 C28.2455666,15.1126529 27.0351709,16.3069636 27.0351709,17.7802172 L27.0351709,17.7802168 Z M16.2302589,30.6769728 L18.9157108,30.6769728 C19.6744935,30.6769728 20.2764596,30.0829741 20.2764596,29.3431746 C20.2764596,28.6024755 19.6717909,28.0094086 18.9157108,28.0094086 L16.2302589,28.0094086 C15.4714762,28.0094086 14.8695101,28.6033751 14.8695101,29.3431746 C14.8695101,30.0838737 15.4741788,30.6769728 16.2302589,30.6769728 Z" id="Shape"></path>
                </g>
            </g>
        </g>
    </g>
</svg>