<?xml version="1.0" encoding="UTF-8"?>
<svg width="80px" height="80px" viewBox="0 0 80 80" version="1.1" xmlns="http://www.w3.org/2000/svg" xmlns:xlink="http://www.w3.org/1999/xlink">
    <!-- Generator: Sketch 57.1 (83088) - https://sketch.com -->
    <title>杠杆灵活</title>
    <desc>Created with Sketch.</desc>
    <g id="Page-1" stroke="none" stroke-width="1" fill="none" fill-rule="evenodd">
        <g id="首页-3" transform="translate(-1300.000000, -2185.000000)">
            <g id="杠杆灵活" transform="translate(1300.000000, 2185.000000)">
                <circle id="Oval-2" fill="#00D05A" cx="40" cy="40" r="40"></circle>
                <g id="杠杆管理" transform="translate(22.000000, 24.000000)" fill="#FFFFFF" fill-rule="nonzero">
                    <path d="M34.099414,28.6485861 L1.44720378,14.8091186 L1.44720378,14.8091186 C0.996494159,14.6140486 0.471008508,14.8167749 0.273499411,15.2619219 C0.0759910875,15.7070672 0.281251468,16.2260654 0.731962757,16.4211361 C0.73606171,16.4229101 0.74017412,16.4246537 0.744299641,16.4263665 L16.6140181,23.1573813 L11.9075681,31.8243983 L22.2808079,31.8243983 L17.847575,23.6756041 L33.3965486,30.2756118 L33.3965486,30.2756118 C33.8472582,30.4706818 34.3727439,30.2679555 34.570253,29.8228085 C34.7677613,29.3776632 34.5625009,28.858665 34.1117896,28.6635943 C34.1076907,28.6618203 34.1035783,28.6600768 34.0994527,28.6583639 L34.099414,28.6485861 Z M14.8933917,30.06441 L17.0991143,26.0085754 L19.3068168,30.06441 L14.8933917,30.06441 Z M9.06228491,16.0938972 L9.06228455,16.0938972 C13.5129198,16.0938972 17.1208939,12.5304774 17.1208939,8.1347768 C17.1208939,3.73908765 13.5129314,0.175656425 9.06228455,0.175656425 C4.6116493,0.175656425 1.00367488,3.7390762 1.00367488,8.1347768 L1.00367488,8.13453627 C1.0089954,12.5280101 4.61365607,16.0883858 9.06205223,16.0938972 L9.06228491,16.0938972 Z M9.06228491,1.93565847 L9.06228463,1.93565847 C12.5287582,1.93565847 15.3388919,4.7110992 15.3388919,8.1347768 C15.3388919,11.5584544 12.5287582,14.3338951 9.06228463,14.3338951 C5.59581107,14.3338951 2.78567721,11.5584544 2.78567721,8.1347768 L2.78567721,8.13486687 C2.78999049,4.71297678 5.59752799,1.94002633 9.06220717,1.93565847 L9.06228491,1.93565847 Z M34.7844871,18.5774556 L34.7844873,18.5774558 C33.1717947,16.551708 30.2017101,16.2007197 28.1506675,17.7935025 C26.0995978,19.3862853 25.7442222,22.3197022 27.3569147,24.3454233 C28.1318342,25.3188213 29.2667313,25.9480832 30.5116539,26.0946125 L30.5116536,26.0946125 C30.6982974,26.1162869 30.8860453,26.1273866 31.0739742,26.127857 L31.0739742,26.127857 C33.4617371,26.1234586 35.4717836,24.3621563 35.7606242,22.0211855 L35.7606242,22.0211853 C35.9152577,20.7904902 35.5636244,19.5499561 34.784483,18.577448 L34.7844871,18.5774556 Z M33.9924862,21.8060816 L33.9924862,21.8060813 C33.8000238,23.3986119 32.3368601,24.5355205 30.7244228,24.3454342 C29.1119855,24.1553479 27.9608655,22.7102479 28.1533279,21.1177173 C28.3295938,19.6592034 29.5807975,18.5603403 31.0680228,18.5578953 L31.0680228,18.5578953 C31.1851279,18.5577007 31.3021457,18.5642302 31.4184832,18.5774553 L31.4184833,18.5774553 C33.0313422,18.7681191 34.1831505,20.2128516 33.9924863,21.8060813 L33.9924862,21.8060816 Z" id="Shape"></path>
                </g>
            </g>
        </g>
    </g>
</svg>